{"glyphs":{"0":{"ha":328,"x_min":0,"x_max":304,"o":"m 176 436 q 209 430 189 438 q 249 409 229 422 q 284 378 269 396 q 300 344 299 361 q 283 271 304 308 q 231 203 261 233 q 169 156 200 174 q 122 143 139 139 q 84 158 106 147 q 44 183 63 168 q 13 215 25 197 q 0 253 0 233 q 19 301 0 271 q 65 361 38 332 q 122 413 92 390 q 176 436 153 435 m 67 203 q 89 202 74 194 q 124 227 104 210 q 163 267 143 244 q 199 313 183 290 q 225 351 215 335 q 232 374 235 368 q 211 374 226 382 q 176 349 196 367 q 136 308 157 332 q 99 263 115 285 q 72 224 82 240 q 67 203 63 207 z "},"1":{"ha":275,"x_min":-6,"x_max":271,"o":"m 268 394 q 250 360 264 382 q 217 310 236 338 q 178 255 199 283 q 137 201 157 226 q 101 158 117 176 q 76 133 85 140 q 51 126 68 126 q 21 131 35 126 q 1 145 7 136 q 6 168 -6 154 q 19 188 10 172 q 44 225 29 203 q 76 273 58 247 q 114 324 94 299 q 80 308 97 311 q 50 306 63 304 q 33 315 38 308 q 39 328 29 321 q 56 338 43 331 q 84 356 68 346 q 117 381 100 367 q 151 411 135 394 q 178 439 168 432 q 201 437 185 440 q 233 426 217 433 q 260 411 249 419 q 268 394 271 403 z "},"2":{"ha":315,"x_min":-44,"x_max":294,"o":"m 6 210 q 10 213 8 211 q 15 214 13 214 q 79 253 42 228 q 151 305 117 279 q 210 352 186 331 q 232 378 233 374 q 205 379 229 386 q 149 356 181 372 q 84 317 117 340 q 33 269 51 294 q 22 273 29 264 q 10 299 14 282 q 12 341 7 317 q 36 390 17 365 q 72 419 50 407 q 118 439 94 431 q 163 451 142 447 q 193 453 183 454 q 224 438 206 450 q 258 407 242 425 q 285 369 275 389 q 290 335 294 350 q 254 283 283 310 q 186 233 225 257 q 105 190 147 210 q 31 161 63 171 q 139 156 97 138 q 208 218 181 174 q 227 219 211 224 q 257 202 243 214 q 274 173 271 190 q 257 135 278 156 q 183 97 219 97 q 110 108 146 96 q 41 132 75 119 q -24 136 7 144 q -40 140 -36 132 q -41 161 -44 149 q -26 188 -37 174 q 6 210 -14 201 z "},"3":{"ha":315,"x_min":-7,"x_max":306,"o":"m 149 322 q 216 355 188 339 q 243 378 244 371 q 219 382 240 386 q 168 365 197 378 q 109 331 139 351 q 61 286 79 310 q 47 285 57 279 q 30 307 36 292 q 25 344 24 322 q 47 390 26 365 q 83 419 61 407 q 128 439 106 431 q 172 451 151 447 q 203 453 193 454 q 233 438 215 450 q 268 407 251 425 q 295 369 285 389 q 301 335 306 350 q 274 300 294 311 q 218 274 253 289 q 248 245 238 258 q 264 218 258 232 q 250 183 268 203 q 207 144 232 163 q 156 115 182 126 q 115 103 129 103 q 68 117 90 103 q 29 152 46 132 q 3 194 13 172 q -7 231 -7 215 q -3 259 -7 251 q 6 267 1 267 q 15 262 11 267 q 22 251 19 257 q 56 191 36 203 q 94 185 75 179 q 128 205 113 190 q 150 226 144 219 q 158 234 153 229 q 165 245 163 239 q 164 260 167 251 q 150 281 161 269 q 139 288 146 285 q 129 297 132 292 q 129 308 126 303 q 149 322 132 314 z "},"4":{"ha":315,"x_min":0,"x_max":351,"o":"m 349 393 q 329 358 344 381 q 294 307 314 335 q 251 249 274 279 q 206 194 228 219 q 167 149 185 168 q 140 124 149 131 q 115 116 132 117 q 85 119 99 115 q 65 133 72 124 q 69 157 58 142 l 111 222 q 73 205 90 211 q 44 203 56 199 q 19 225 29 210 q 4 258 8 240 q 1 294 0 276 q 7 324 1 311 q 33 376 19 350 q 78 431 46 401 q 108 438 88 439 q 147 432 128 438 q 179 417 167 426 q 185 399 192 407 q 147 356 169 379 q 103 311 124 332 q 69 274 83 290 q 57 253 56 257 q 70 252 58 247 q 99 267 82 257 q 135 290 115 276 q 174 314 154 303 q 227 391 201 356 q 265 436 253 426 q 285 438 271 442 q 315 428 300 435 q 341 411 331 421 q 349 393 351 401 z "},"5":{"ha":317,"x_min":-15,"x_max":322,"o":"m 143 226 q 151 265 165 249 q 113 291 138 281 q 67 308 89 301 q 50 318 44 314 q 39 336 39 326 q 46 361 38 346 q 67 392 54 376 q 94 419 79 407 q 124 436 110 432 l 136 436 q 183 431 158 436 q 232 422 208 426 q 276 413 256 417 q 310 410 297 410 q 322 398 322 411 q 313 368 322 385 q 287 338 303 351 q 251 324 271 324 q 221 345 236 324 q 186 389 206 367 q 163 354 179 369 q 132 315 147 339 q 177 306 156 315 q 215 284 199 297 q 242 253 232 271 q 256 218 253 236 q 239 178 257 199 q 196 142 221 158 q 146 114 171 125 q 107 103 121 103 q 60 117 82 103 q 21 152 38 132 q -6 194 4 172 q -15 231 -15 215 q -11 259 -15 251 q -2 267 -7 267 q 8 262 3 267 q 14 251 13 257 q 47 191 28 203 q 86 185 67 179 q 121 205 106 190 q 143 226 136 219 z "},"6":{"ha":315,"x_min":-10,"x_max":294,"o":"m -10 197 q 4 274 -10 232 q 44 351 18 315 q 108 411 71 386 q 193 439 146 436 q 236 430 218 440 q 263 406 254 419 q 269 381 271 392 q 256 369 268 369 q 211 362 240 369 q 149 338 182 354 q 88 294 117 321 q 43 231 58 268 q 91 280 63 257 q 149 319 119 303 q 205 343 179 336 q 244 344 231 350 q 272 319 261 338 q 289 280 283 301 q 294 238 294 258 q 289 207 294 218 q 258 176 282 193 q 203 144 233 158 q 141 119 172 129 q 89 108 110 108 q 29 123 49 106 q 7 157 10 140 q -5 178 0 167 q -10 197 -10 189 m 49 183 q 119 204 82 190 q 186 233 156 218 q 235 263 217 249 q 250 283 254 276 q 226 278 249 286 q 172 256 203 271 q 106 223 140 242 q 50 185 72 204 l 49 183 z "},"7":{"ha":315,"x_min":-17,"x_max":332,"o":"m 331 393 q 308 358 326 381 q 263 307 289 335 q 205 249 236 279 q 146 194 174 219 q 96 149 118 168 q 65 124 74 131 q 41 116 57 117 q 11 119 25 115 q -10 133 -3 124 q -6 157 -17 142 q 22 189 -1 163 q 76 250 44 215 q 141 322 107 285 q 201 389 175 360 q 158 367 181 379 q 116 343 136 354 q 79 324 96 332 q 53 317 63 317 q 28 335 33 317 q 27 374 24 353 q 41 414 31 396 q 64 431 51 432 q 99 431 75 429 q 151 434 122 432 q 208 438 179 436 q 257 440 236 440 q 260 439 260 440 q 283 433 269 438 q 307 421 296 428 q 325 406 318 414 q 331 393 332 399 z "},"8":{"ha":315,"x_min":-26,"x_max":310,"o":"m 169 444 q 208 438 183 446 q 254 418 232 431 q 293 389 276 406 q 310 357 310 372 q 283 289 307 313 q 232 258 260 265 q 249 238 242 247 q 256 218 256 228 q 241 172 253 192 q 213 138 229 151 q 178 118 197 125 q 144 111 160 111 q 97 119 125 111 q 40 140 68 126 q -7 171 13 154 q -26 207 -26 188 q -17 242 -26 224 q 7 278 -8 261 q 44 306 22 294 q 90 322 65 318 q 68 367 68 344 q 78 390 68 376 q 102 416 88 404 q 135 436 117 428 q 169 444 153 444 m 58 178 q 96 171 72 161 q 139 199 119 181 q 168 239 158 218 q 165 267 178 260 q 135 261 154 272 q 97 233 115 250 q 67 199 79 217 q 58 178 54 182 m 144 317 q 181 310 161 304 q 217 331 201 317 q 238 362 232 346 q 233 383 244 378 q 203 383 221 390 q 172 361 186 375 q 149 334 157 347 q 144 317 140 321 z "},"9":{"ha":311,"x_min":6,"x_max":307,"o":"m 303 336 q 276 285 296 317 q 231 222 256 254 q 182 161 206 189 q 144 124 158 133 q 121 116 136 117 q 92 119 106 115 q 71 133 78 124 q 75 157 64 142 q 88 176 78 163 q 111 211 97 190 q 50 203 69 196 q 24 230 35 210 q 10 274 14 250 q 6 319 6 297 q 11 353 6 342 q 42 384 18 367 q 97 416 67 401 q 159 441 128 431 q 211 451 190 451 q 262 442 243 453 q 288 418 281 432 q 294 392 296 404 q 286 381 293 381 q 272 379 279 381 q 258 376 265 378 q 291 360 275 374 q 303 336 307 347 m 50 276 q 65 277 51 274 q 100 287 79 281 q 144 302 121 293 q 186 319 167 311 q 213 351 201 338 q 233 372 225 365 q 167 350 201 364 q 106 322 133 336 q 62 295 78 308 q 50 276 46 282 z "}," ":{"ha":283,"x_min":0,"x_max":0,"o":""},"w":{"ha":568,"x_min":-43,"x_max":601,"o":"m 247 415 q 269 420 256 424 q 294 406 282 417 q 317 381 307 396 q 331 356 328 367 q 321 325 332 344 q 298 285 310 306 q 279 249 286 265 q 282 228 272 232 q 315 244 292 225 q 365 290 338 263 q 356 330 353 308 q 372 369 360 351 q 400 399 383 386 q 433 411 417 411 l 435 411 q 462 403 453 411 q 472 381 471 394 q 466 350 472 367 q 450 317 460 333 q 503 304 469 304 q 567 333 536 304 q 582 343 574 340 q 595 345 590 346 q 601 339 600 344 q 593 324 601 333 q 551 284 574 301 q 503 257 528 267 q 452 247 478 247 q 401 258 426 246 q 328 194 365 222 q 258 167 290 167 q 238 174 250 167 q 215 191 226 181 q 194 215 203 201 q 182 239 185 228 q 177 261 178 250 q 176 283 176 272 q 141 249 160 268 q 103 213 122 229 q 69 184 85 196 q 40 172 53 172 q 21 177 33 172 q -5 190 8 182 q -29 209 -18 199 q -42 232 -40 219 q -32 272 -43 244 q -4 332 -21 300 q 33 394 13 364 q 69 440 53 424 q 92 444 78 447 q 119 431 106 440 q 144 410 133 422 q 158 386 156 397 q 152 365 160 379 q 132 335 144 351 q 107 301 119 318 q 85 270 94 283 q 73 250 75 257 q 81 247 71 243 q 102 262 89 251 q 131 287 115 272 q 165 319 147 301 q 197 353 182 336 q 219 387 207 372 q 247 415 232 401 z "},"x":{"ha":369,"x_min":-121,"x_max":407,"o":"m 235 435 q 256 431 246 438 q 272 415 265 425 q 283 394 279 406 q 283 372 286 382 q 265 353 282 367 q 222 320 249 339 q 163 279 196 301 q 94 235 129 257 l 94 233 l 97 233 q 122 231 101 228 q 170 243 142 235 q 230 264 199 251 q 290 288 261 276 q 339 310 318 300 q 367 325 360 321 q 385 333 375 332 q 401 332 394 335 q 407 321 407 329 q 397 300 407 313 q 354 261 386 286 q 283 211 322 236 q 206 167 244 186 q 144 149 167 149 q 98 165 125 149 q 47 206 71 181 l -78 126 q -103 122 -93 118 q -117 134 -112 125 q -119 153 -121 143 q -111 167 -118 164 q -42 201 -74 183 q 18 239 -10 219 q 0 274 7 256 q -6 308 -7 292 q -1 342 -4 321 q 10 384 3 364 q 30 419 18 404 q 61 436 42 435 q 105 428 82 439 q 135 390 128 417 q 126 352 139 376 q 103 303 114 328 q 192 394 163 356 q 235 435 222 432 z "},"s":{"ha":278,"x_min":-39,"x_max":218,"o":"m 74 343 q 128 344 103 347 q 174 332 154 340 q 206 310 194 324 q 218 278 218 296 q 206 235 218 260 q 176 186 194 210 q 133 143 157 163 q 86 118 108 124 q 40 119 63 113 q 1 140 18 126 q -28 172 -17 154 q -39 203 -39 189 q -31 225 -39 213 q -11 249 -24 238 q 17 272 1 261 q 47 289 32 282 q 75 290 71 300 q 65 264 79 279 q 52 249 61 260 q 34 228 43 239 q 19 208 25 218 q 17 194 13 199 q 41 201 24 189 q 76 231 58 213 q 106 269 93 250 q 118 297 119 288 q 99 306 115 307 q 61 305 82 306 q 19 308 40 304 q -14 328 -3 311 q -24 369 -26 346 q -11 413 -22 392 q 17 448 0 433 q 51 465 35 463 q 75 461 63 467 q 98 447 88 456 q 115 426 108 438 q 122 406 122 415 q 104 374 122 386 q 74 343 86 361 z "},"p":{"ha":433,"x_min":-376,"x_max":496,"o":"m -283 -307 q -308 -322 -290 -318 q -341 -322 -325 -325 q -367 -306 -357 -318 q -367 -274 -376 -294 q -336 -216 -360 -258 q -278 -115 -312 -174 q -203 13 -244 -57 q -118 152 -161 82 q -33 288 -75 222 q 42 406 8 354 q 101 491 76 458 q 132 526 125 524 q 163 528 146 535 q 192 511 179 522 q 214 487 206 500 q 218 465 222 474 q 208 447 215 457 q 186 417 200 436 q 150 367 172 397 q 94 290 128 336 q 138 330 115 310 q 177 367 160 350 q 207 394 194 383 q 222 407 219 406 q 244 408 228 410 q 277 399 260 406 q 309 384 294 393 q 326 365 324 375 q 321 345 329 358 q 300 317 313 332 q 272 286 288 303 q 244 256 257 269 q 226 233 232 243 q 224 219 219 222 q 263 233 231 215 q 335 274 296 250 q 410 322 375 299 q 456 356 444 346 q 486 366 476 376 q 483 336 496 356 q 447 299 476 326 q 381 240 417 271 q 310 183 344 208 q 260 153 275 157 q 215 153 239 149 q 171 167 192 157 q 135 192 150 176 q 118 225 119 207 q 124 247 117 233 q 139 275 131 261 q 161 308 149 290 q 107 263 133 286 q 58 218 83 243 q 14 169 33 193 q -122 -40 -43 85 q -283 -307 -201 -165 z "},"q":{"ha":386,"x_min":-232,"x_max":436,"o":"m 400 350 q 418 359 410 358 q 431 356 426 360 q 435 343 436 351 q 425 324 435 335 q 394 295 419 317 q 330 238 368 274 q 242 156 292 203 q 140 53 193 108 l 103 14 q 199 17 154 15 q 278 20 244 19 q 333 21 313 21 q 357 18 354 21 q 355 3 361 11 q 338 -12 349 -6 q 315 -25 328 -19 q 292 -31 301 -31 q 268 -30 288 -31 q 219 -27 249 -29 q 153 -22 190 -25 q 78 -18 117 -19 q 6 -128 35 -75 q -42 -222 -22 -181 q -76 -292 -62 -264 q -100 -325 -89 -319 q -132 -331 -112 -331 q -168 -327 -151 -332 q -192 -312 -185 -322 q -186 -282 -200 -301 q -164 -249 -179 -274 q -127 -188 -149 -224 q -79 -109 -106 -153 q -25 -18 -53 -65 q -99 -19 -64 -18 q -162 -19 -135 -19 q -207 -19 -190 -19 q -225 -15 -224 -18 q -222 4 -232 -8 q -169 14 -211 17 q -90 10 -131 11 q -8 10 -50 10 q 33 87 15 50 q 76 164 50 124 q 8 182 44 161 q -40 243 -29 203 q -26 300 -44 268 q 19 360 -8 332 q 74 409 46 389 q 118 432 103 429 q 149 432 132 433 q 183 424 167 431 q 212 408 200 418 q 228 381 224 397 q 231 381 231 381 q 232 382 231 382 q 254 381 242 385 q 278 371 267 378 q 298 353 290 364 q 306 332 306 343 q 253 255 303 310 q 132 93 204 200 q 164 126 136 97 q 231 195 192 156 q 316 276 271 235 q 400 350 361 318 m 67 211 q 92 218 72 207 q 143 268 111 229 q 178 318 163 296 q 206 357 193 340 l 201 364 q 178 368 193 374 q 146 347 163 363 q 113 311 129 332 q 84 270 96 290 q 67 233 72 250 q 67 211 61 217 z "},"j":{"ha":189,"x_min":-392,"x_max":246,"o":"m 201 350 q 233 356 221 367 q 228 324 246 346 q 198 295 224 317 q 134 238 172 274 q 47 156 96 203 q -56 53 -3 108 q -159 -78 -118 -14 q -226 -196 -200 -143 q -267 -284 -251 -249 q -297 -325 -283 -319 q -326 -333 -308 -331 q -360 -331 -344 -335 q -384 -315 -376 -326 q -383 -282 -392 -303 q -341 -202 -375 -261 q -261 -67 -307 -143 q -163 92 -215 8 q -65 244 -111 175 q 15 360 -19 314 q 60 410 50 407 q 81 410 68 413 q 105 401 93 407 q 124 388 117 396 q 132 372 132 381 q 115 338 132 363 q 69 277 97 314 q 6 194 40 240 q -65 93 -29 147 q -33 126 -61 97 q 34 195 -6 156 q 118 276 74 235 q 201 350 163 318 m 176 442 q 158 445 169 442 q 137 455 147 449 q 119 469 126 461 q 111 485 111 476 q 115 506 111 493 q 126 529 119 518 q 141 549 132 540 q 158 560 150 558 q 181 557 167 561 q 207 545 194 553 q 228 528 219 538 q 239 511 238 518 q 233 493 239 504 q 217 471 226 482 q 196 451 207 460 q 176 442 185 443 z "},"y":{"ha":392,"x_min":-192,"x_max":450,"o":"m 406 350 q 438 356 425 367 q 431 324 450 346 q 400 295 425 317 q 337 238 375 274 q 249 156 299 203 q 147 53 200 108 q 44 -78 85 -14 q -22 -196 4 -143 q -65 -284 -49 -249 q -93 -325 -81 -319 q -125 -331 -106 -331 q -161 -327 -144 -332 q -185 -312 -178 -322 q -178 -282 -192 -301 q -135 -211 -168 -267 q -58 -81 -103 -156 q 38 80 -14 -6 q 139 240 90 165 q 85 193 111 214 q 42 172 58 172 q 19 177 33 172 q -8 190 6 182 q -34 208 -22 197 q -49 231 -46 218 q -38 269 -50 242 q -8 327 -26 296 q 33 388 11 358 q 72 433 54 418 q 95 438 81 440 q 124 426 110 435 q 151 404 139 417 q 164 382 163 392 q 150 347 168 372 q 112 298 132 322 q 79 256 92 274 q 82 244 67 239 q 110 263 93 249 q 148 295 128 276 q 189 335 168 314 q 228 372 210 356 q 245 390 239 382 q 256 399 251 397 q 278 396 265 400 q 301 385 290 392 q 319 367 313 378 q 326 347 326 357 q 310 315 326 336 q 267 263 293 294 q 208 190 242 232 q 139 93 174 147 q 170 126 143 97 q 237 195 197 156 q 322 276 276 235 q 406 350 367 318 z "},"f":{"ha":249,"x_min":-164,"x_max":611,"o":"m 610 867 q 592 819 611 849 q 526 739 574 790 q 398 607 479 688 q 194 406 317 526 q 75 258 124 333 q 110 267 85 257 q 165 291 136 276 q 220 322 193 306 q 260 349 247 338 q 281 361 274 361 q 290 355 289 361 q 286 338 290 349 q 272 318 282 328 q 149 213 193 246 q 89 175 106 179 q 61 180 74 172 q 39 199 49 188 q -32 62 -8 119 q -65 -6 -56 4 q -87 -5 -72 -11 q -119 14 -103 1 q -148 42 -135 26 q -164 72 -161 58 q -142 117 -164 78 q -81 217 -119 157 q 9 354 -42 278 q 115 509 60 431 q 227 663 171 588 q 333 799 283 739 q 423 898 383 860 q 485 940 463 936 q 535 939 513 946 q 574 919 558 932 q 599 892 590 907 q 610 867 608 876 m 543 864 q 517 851 538 868 q 465 801 496 833 q 397 724 435 768 q 320 631 360 681 q 242 531 281 582 q 169 433 203 479 q 301 567 232 494 q 428 702 371 639 q 519 810 485 765 q 543 864 553 856 z "},"m":{"ha":582,"x_min":-67,"x_max":625,"o":"m 51 403 q 77 408 61 408 q 108 404 93 408 q 135 392 124 400 q 144 375 146 385 q 128 343 144 363 q 94 305 113 324 q 63 272 76 286 q 53 258 49 258 q 71 269 57 258 q 103 297 85 281 q 144 334 122 314 q 185 372 165 354 q 219 403 204 390 q 240 418 235 415 q 267 419 253 422 q 293 409 281 415 q 314 394 306 403 q 324 376 322 385 q 301 327 325 358 q 244 251 278 296 q 321 328 285 293 q 378 384 351 357 q 417 418 406 411 q 442 422 426 425 q 473 410 458 419 q 497 388 488 401 q 506 360 507 374 q 493 338 504 353 q 466 305 482 322 q 433 269 450 288 q 404 235 417 250 q 387 210 392 219 q 390 203 382 201 q 422 223 396 204 q 480 265 449 242 q 540 308 511 288 q 581 335 569 328 q 615 344 604 347 q 606 318 625 342 q 573 281 594 306 q 525 228 551 256 q 472 179 499 201 q 425 151 446 157 q 381 149 404 144 q 340 163 358 153 q 308 186 321 172 q 293 214 294 200 q 298 233 293 221 q 310 257 303 244 q 325 280 318 269 q 335 293 332 290 q 301 259 321 279 q 262 220 282 239 q 223 188 242 201 q 193 172 204 174 q 156 181 175 168 q 136 210 136 194 q 143 231 136 215 q 159 263 150 246 q 176 294 168 279 q 186 317 185 310 q 106 246 142 276 q 45 197 74 218 q 8 172 17 175 q -10 172 1 169 q -33 181 -22 175 q -53 197 -44 188 q -64 215 -62 206 q -52 254 -67 225 q -17 315 -37 283 q 23 372 3 346 q 51 403 43 399 z "},"l":{"ha":276,"x_min":-26,"x_max":635,"o":"m 283 343 q 322 354 315 363 q 307 324 329 346 q 257 278 283 301 q 205 235 231 256 q 154 201 179 215 q 108 183 129 188 q 67 183 90 181 q 22 194 43 185 q -12 222 1 204 q -26 267 -26 239 q -1 336 -26 283 q 67 458 25 389 q 163 606 110 528 q 274 754 217 685 q 388 875 332 824 q 489 942 443 926 q 528 946 503 947 q 576 937 553 944 q 617 915 600 929 q 635 881 635 900 q 610 819 635 858 q 543 733 585 781 q 447 630 501 685 q 333 521 393 575 q 214 417 274 467 q 103 331 154 368 q 78 292 88 310 q 65 262 69 276 q 67 242 60 247 q 100 250 71 238 q 165 281 129 263 q 234 317 200 299 q 283 343 268 336 m 564 874 q 538 865 558 881 q 489 819 518 850 q 425 748 460 789 q 354 664 390 707 q 165 426 269 561 q 222 475 183 440 q 308 556 261 510 q 403 653 354 603 q 491 749 453 704 q 551 828 529 794 q 564 874 572 863 z "},"k":{"ha":382,"x_min":-50,"x_max":621,"o":"m 332 372 q 317 359 331 365 q 283 347 304 353 q 237 333 263 340 q 183 317 211 326 q 172 286 176 301 q 174 260 167 271 q 208 263 176 253 q 277 290 239 274 q 351 324 315 307 q 397 349 386 340 q 438 366 422 367 q 433 336 453 365 q 394 301 421 322 q 334 257 367 279 q 269 215 301 235 q 217 186 238 196 q 175 181 196 176 q 137 198 154 186 q 107 222 119 210 q 92 242 94 235 q 88 254 88 247 q 90 268 89 261 q 49 230 67 253 q 24 178 32 207 q 1 171 14 169 q -23 179 -11 172 q -42 197 -35 186 q -50 217 -50 207 q -35 265 -50 229 q 6 351 -19 301 q 67 460 32 400 q 142 583 101 521 q 225 704 182 644 q 311 813 268 764 q 394 896 354 861 q 469 942 435 931 q 506 947 485 947 q 548 937 526 946 q 588 909 569 928 q 615 860 606 890 q 599 802 621 839 q 535 719 576 765 q 438 622 493 674 q 321 517 382 569 q 199 417 260 465 q 86 331 138 368 l 61 276 q 153 349 110 315 q 224 401 189 376 q 275 431 260 425 q 295 426 285 432 q 315 412 306 421 q 328 392 324 403 q 332 372 333 381 m 564 892 q 538 882 558 899 q 486 834 517 865 q 419 760 456 803 q 344 672 382 718 q 147 426 257 565 q 205 477 165 440 q 293 562 244 514 q 393 663 342 610 q 485 764 444 717 q 548 846 525 811 q 564 892 571 881 z "},"c":{"ha":342,"x_min":-39,"x_max":376,"o":"m 251 344 q 230 295 251 317 q 185 258 208 274 q 160 251 174 251 q 135 256 147 251 q 117 267 124 260 q 115 285 111 275 q 133 305 119 293 q 158 329 146 317 q 178 352 171 342 q 178 369 185 363 q 148 356 169 378 q 106 304 126 335 q 75 243 86 274 q 78 203 64 213 q 125 201 92 192 q 197 232 158 211 q 272 279 235 253 q 332 328 310 306 q 355 347 344 342 q 371 348 365 351 q 374 335 376 344 q 360 308 372 325 q 319 265 344 290 q 266 215 294 239 q 208 172 238 190 q 157 147 179 153 q 108 145 138 142 q 47 160 78 149 q -6 190 17 171 q -33 236 -29 210 q -28 286 -39 257 q 1 343 -18 315 q 42 394 19 371 q 82 426 65 417 q 127 430 99 436 q 183 410 156 424 q 231 378 211 397 q 251 344 251 360 z "},"b":{"ha":378,"x_min":-15,"x_max":622,"o":"m 67 231 q 88 233 74 224 q 119 258 103 243 q 151 292 136 274 q 176 322 167 310 q 179 353 174 338 q 196 381 185 368 q 223 401 207 393 q 256 411 239 410 q 290 404 271 411 q 311 382 308 397 q 310 353 315 369 q 293 319 304 336 q 336 317 315 313 q 381 342 357 322 q 397 351 389 347 q 410 353 406 354 q 415 347 415 351 q 407 333 415 342 q 373 302 390 317 q 338 278 356 288 q 301 264 321 268 q 261 265 282 260 q 200 203 233 233 q 140 168 167 174 q 88 174 115 164 q 37 203 60 185 q -1 247 14 222 q -15 294 -15 271 q 8 363 -15 313 q 71 479 32 413 q 161 621 110 546 q 267 762 213 696 q 376 877 321 828 q 476 942 431 926 q 516 946 492 947 q 564 937 540 944 q 605 915 588 929 q 622 881 622 900 q 599 820 622 858 q 535 735 575 782 q 442 634 494 688 q 333 527 390 581 q 218 425 276 474 q 108 339 160 376 q 81 292 92 314 q 65 255 71 272 q 67 231 60 238 m 551 874 q 526 865 546 881 q 478 819 507 850 q 413 748 449 789 q 342 664 378 707 q 153 426 257 561 q 210 475 171 440 q 296 556 249 510 q 392 653 343 603 q 478 749 440 704 q 538 828 517 794 q 551 874 560 863 z "},"u":{"ha":451,"x_min":-57,"x_max":513,"o":"m 68 432 q 94 435 78 439 q 126 423 111 432 q 154 402 142 414 q 168 381 167 390 q 163 359 171 374 q 141 328 154 344 q 113 293 128 311 q 88 262 99 275 q 75 242 78 249 q 83 239 72 235 q 110 256 93 243 q 149 288 128 269 q 192 326 169 306 q 233 364 214 346 q 267 394 253 382 q 286 410 281 407 q 304 408 293 411 q 327 399 315 406 q 348 381 339 392 q 361 360 357 371 q 351 328 365 349 q 319 288 336 308 q 289 250 301 267 q 283 228 276 233 q 313 238 289 224 q 368 274 338 253 q 427 318 399 296 q 468 351 456 340 q 503 362 493 374 q 499 328 513 350 q 466 292 490 318 q 413 239 442 267 q 354 189 383 211 q 308 164 325 167 q 270 165 290 160 q 232 181 250 169 q 201 207 214 192 q 185 239 188 222 q 185 259 182 250 q 190 272 188 268 q 151 238 172 257 q 108 203 129 219 q 69 175 88 186 q 39 164 51 164 q 15 169 31 164 q -15 182 0 174 q -41 201 -29 190 q -56 224 -53 211 q -44 264 -57 236 q -12 324 -31 292 q 29 385 7 356 q 68 432 51 415 z "},"d":{"ha":382,"x_min":-47,"x_max":700,"o":"m 108 422 q 149 422 126 425 q 190 407 172 418 q 275 572 225 482 q 378 742 325 663 q 482 878 432 822 q 565 940 532 933 q 617 938 593 944 q 658 918 640 931 q 685 891 675 906 q 697 867 694 876 q 680 812 700 846 q 605 714 660 778 q 456 549 550 650 q 218 290 361 447 q 214 260 207 267 q 242 261 218 253 q 295 285 265 269 q 353 319 325 301 q 394 349 382 336 q 415 361 408 361 q 424 355 422 361 q 422 338 426 349 q 408 318 418 328 q 298 213 338 246 q 240 175 258 179 q 197 190 217 171 q 164 236 178 210 q 115 188 139 208 q 78 165 90 168 q 44 166 63 163 q 8 179 25 169 q -24 205 -10 189 q -42 242 -37 221 q -30 297 -47 267 q 13 355 -12 328 q 66 401 39 382 q 108 422 93 419 m 632 864 q 606 851 625 868 q 560 802 588 833 q 500 727 533 771 q 432 635 467 683 q 363 535 397 586 q 300 439 329 485 q 378 526 338 481 q 458 617 419 572 q 532 705 497 663 q 591 781 567 747 q 627 836 615 814 q 632 864 639 858 m 60 210 q 89 218 67 203 q 147 282 111 233 q 153 318 147 300 q 169 361 158 336 q 131 335 153 357 q 90 288 108 314 q 63 239 72 263 q 60 210 53 215 z "},"g":{"ha":376,"x_min":-210,"x_max":426,"o":"m 389 350 q 408 359 399 358 q 422 356 417 360 q 426 343 426 351 q 415 324 425 335 q 385 295 410 317 q 321 238 360 274 q 233 156 282 203 q 132 53 185 108 q 29 -78 69 -14 q -37 -196 -11 -143 q -80 -284 -64 -249 q -108 -325 -96 -319 q -141 -331 -121 -331 q -178 -327 -161 -332 q -202 -312 -194 -322 q -197 -282 -210 -301 q -160 -225 -187 -269 q -95 -118 -133 -181 q -11 21 -57 -56 q 85 175 35 97 q 50 176 68 172 q 16 188 32 179 q -12 213 0 197 q -28 249 -24 228 q -19 307 -35 275 q 20 367 -4 339 q 71 415 44 394 q 114 439 97 436 q 142 435 126 440 q 172 422 157 431 q 199 402 188 414 q 218 376 211 390 q 250 410 239 407 q 272 408 258 413 q 297 397 285 404 q 317 378 308 389 q 325 358 325 368 q 306 324 324 347 q 258 268 288 301 q 194 191 229 235 q 122 93 158 147 q 153 126 126 97 q 220 195 181 156 q 305 276 260 235 q 389 350 350 318 m 189 339 q 189 351 192 344 q 171 362 183 365 q 143 344 158 358 q 113 310 128 331 q 85 270 97 290 q 68 233 74 250 q 68 211 63 217 q 93 217 75 204 q 131 249 111 231 l 189 339 z "},"e":{"ha":335,"x_min":-8,"x_max":372,"o":"m 340 339 q 369 351 367 358 q 360 325 372 344 q 324 276 347 304 q 274 224 301 249 q 215 179 246 199 q 158 156 185 160 q 111 165 140 153 q 55 199 82 176 q 10 250 28 221 q -3 310 -8 279 q 18 358 1 335 q 56 398 35 381 q 98 426 76 415 q 135 436 119 436 q 163 429 147 436 q 192 411 179 422 q 213 385 206 400 q 219 356 221 371 q 199 320 217 340 q 158 281 181 300 q 100 235 133 258 q 198 254 131 226 q 340 339 265 282 m 176 365 q 151 359 171 369 q 111 332 131 349 q 78 295 92 315 q 72 261 65 275 q 99 281 81 265 q 137 314 118 296 q 168 347 156 332 q 176 365 181 361 z "},"r":{"ha":307,"x_min":-24,"x_max":367,"o":"m 64 364 q 81 359 69 358 q 103 364 92 360 q 126 374 115 368 q 140 383 136 379 q 155 389 143 389 q 179 384 167 389 q 202 370 192 379 q 215 349 213 361 q 205 317 217 338 q 180 276 193 296 q 160 240 167 256 q 164 225 153 225 q 197 241 175 225 q 242 278 218 257 q 286 319 265 299 q 317 350 307 340 q 352 364 338 368 q 349 335 367 360 q 323 299 340 322 q 283 249 306 275 q 236 199 261 222 q 186 165 211 175 q 155 165 175 161 q 114 179 135 169 q 78 205 93 189 q 64 242 63 221 q 73 280 64 260 q 93 324 82 300 q 42 322 68 317 q -1 342 15 328 q -21 376 -18 356 q -3 419 -24 396 q 41 449 19 446 q 75 440 63 451 q 87 406 88 428 q 64 364 86 385 z "},"i":{"ha":232,"x_min":-18,"x_max":289,"o":"m 181 476 q 160 481 172 476 q 137 492 147 485 q 120 508 126 499 q 115 526 114 517 q 123 549 117 535 q 138 576 129 563 q 156 599 146 589 q 176 611 167 608 q 200 608 186 613 q 226 594 214 603 q 247 574 239 585 q 253 557 254 564 q 244 535 253 549 q 225 510 236 522 q 201 488 214 497 q 181 476 189 478 m 233 340 q 275 356 261 365 q 264 315 289 346 q 224 272 247 294 q 176 228 200 249 q 131 194 151 208 q 99 176 110 179 q 63 182 83 175 q 24 203 43 189 q -6 237 6 217 q -15 282 -18 257 q -2 334 -12 306 q 22 386 8 363 q 50 425 36 410 q 75 439 64 440 q 96 431 85 436 q 116 420 107 426 q 131 406 125 414 q 135 386 136 397 q 122 353 133 375 q 100 310 111 332 q 81 269 89 288 q 78 247 72 251 q 98 251 82 244 q 135 269 114 257 q 183 300 157 282 q 233 340 208 318 z "},"t":{"ha":258,"x_min":-24,"x_max":1322,"o":"m 26 497 q 114 507 33 504 q 156 539 136 526 q 193 551 175 551 q 229 538 210 551 q 260 508 249 525 q 411 510 331 508 q 575 514 492 511 q 782 522 681 517 q 965 533 883 528 q 1101 543 1047 539 q 1168 547 1156 547 q 1220 540 1192 547 q 1272 522 1249 532 q 1309 499 1296 511 q 1314 478 1322 488 q 1260 472 1308 472 q 1131 472 1211 471 q 947 474 1051 472 q 724 476 842 475 q 485 476 607 476 q 247 469 363 475 q 208 436 232 458 q 160 388 185 414 q 110 332 135 361 q 69 278 86 303 q 47 234 53 253 q 50 208 40 215 q 89 221 58 203 q 155 264 119 239 q 223 313 190 289 q 268 344 256 338 q 304 351 293 361 q 303 325 315 342 q 269 290 296 317 q 208 234 243 263 q 134 183 172 206 q 68 161 96 161 q -6 192 11 161 q -17 270 -24 224 q 17 370 -10 317 q 76 467 43 424 q 26 497 11 481 z "},"h":{"ha":444,"x_min":-53,"x_max":622,"o":"m 615 860 q 599 802 622 839 q 535 719 576 765 q 438 622 493 674 q 321 517 382 569 q 198 417 260 465 q 85 331 136 368 q 65 293 72 308 q 56 271 58 279 q 61 269 54 263 q 94 299 69 276 q 149 348 119 322 q 206 397 178 374 q 251 426 235 419 q 281 428 267 433 q 306 410 294 422 q 324 385 317 399 q 333 364 331 372 q 319 332 336 354 q 281 285 301 310 q 247 242 261 261 q 240 218 232 222 q 263 224 246 217 q 303 245 281 232 q 353 276 326 258 q 403 309 379 293 q 444 338 426 325 q 469 358 463 351 q 508 367 493 376 q 508 340 522 358 q 480 308 501 332 q 428 258 458 285 q 365 208 399 231 q 300 176 331 185 q 231 176 260 167 q 186 203 203 185 q 163 244 169 221 q 164 286 157 267 q 124 251 143 267 q 90 222 107 236 q 64 200 74 208 q 37 184 54 190 q 1 177 19 178 q -33 183 -18 176 q -50 206 -47 189 q -29 279 -53 222 q 37 413 -6 336 q 135 576 79 489 q 249 739 190 663 q 366 871 308 815 q 469 942 424 926 q 505 947 483 947 q 547 937 526 946 q 587 909 568 928 q 615 860 606 890 m 561 892 q 535 882 556 899 q 485 834 515 865 q 419 760 456 803 q 344 672 382 718 q 147 426 257 565 q 204 477 164 440 q 293 562 244 514 q 393 663 342 610 q 484 764 444 717 q 547 846 524 811 q 561 892 569 881 z "},"o":{"ha":347,"x_min":-26,"x_max":407,"o":"m 131 439 q 166 429 150 439 q 185 403 182 419 q 236 368 221 394 q 249 308 251 342 q 316 319 283 304 q 367 357 349 335 q 387 374 378 369 q 401 375 396 378 q 407 365 407 372 q 401 347 407 357 q 337 279 379 310 q 225 240 294 249 q 180 190 207 213 q 115 157 153 168 q 74 157 99 151 q 27 178 50 163 q -11 217 4 193 q -22 269 -26 240 q -6 327 -19 297 q 27 382 7 357 q 74 423 47 407 q 131 439 100 439 m 75 210 q 104 210 82 199 q 147 244 126 221 q 121 274 132 256 q 106 318 110 293 q 72 255 82 286 q 75 210 63 224 z "},"n":{"ha":440,"x_min":-32,"x_max":471,"o":"m 39 401 q 59 408 47 410 q 81 398 71 406 q 100 378 92 390 q 110 357 108 367 q 109 333 113 347 q 99 303 106 318 q 88 277 93 289 q 81 260 82 265 q 113 288 88 264 q 165 340 138 313 q 217 390 193 368 q 249 415 242 413 q 268 416 254 418 q 296 408 282 414 q 321 392 310 401 q 335 372 332 383 q 324 336 338 361 q 296 284 311 311 q 269 235 281 257 q 264 210 257 214 q 294 221 271 206 q 347 258 318 236 q 400 303 375 281 q 436 336 425 326 q 455 347 447 346 q 467 342 463 347 q 470 328 471 336 q 464 310 469 319 q 435 276 457 300 q 385 224 413 251 q 333 175 358 197 q 294 149 308 153 q 248 144 274 140 q 199 156 222 147 q 159 180 175 165 q 142 210 143 194 q 147 232 140 215 q 161 265 153 249 q 177 296 169 282 q 185 311 185 310 q 165 290 185 311 q 119 243 144 268 q 67 197 93 218 q 31 176 42 176 q -7 188 13 176 q -31 224 -26 200 q -27 258 -32 233 q -13 309 -22 282 q 9 362 -4 336 q 39 401 22 388 z "},"A":{"ha":1165,"x_min":31,"x_max":1271,"o":"m 76 131 q 266 376 150 257 q 520 590 382 496 q 808 740 658 683 q 1100 797 958 797 q 1183 788 1147 797 q 1240 758 1219 778 q 1266 708 1261 739 q 1256 635 1271 678 q 1208 525 1239 588 q 1138 397 1176 463 q 1058 265 1100 331 q 980 144 1017 199 q 915 50 943 89 q 874 -3 886 11 q 840 -19 864 -15 q 792 -20 815 -24 q 756 -7 769 -17 q 756 19 743 3 q 798 80 775 47 q 844 147 821 113 q 888 216 867 182 q 926 281 910 250 q 727 240 824 263 q 538 188 631 217 q 352 124 444 160 q 165 47 260 89 q 140 -10 147 14 q 125 -53 132 -33 q 110 -59 122 -58 q 84 -56 99 -60 q 56 -44 69 -51 q 39 -28 43 -37 q 33 10 31 -11 q 42 55 35 32 q 59 98 49 78 q 76 131 69 118 m 968 361 q 1022 444 992 399 q 1078 533 1051 489 q 1125 619 1104 578 q 1151 693 1146 661 q 1144 744 1157 725 q 1090 764 1131 764 q 923 732 1008 764 q 752 647 838 700 q 585 524 667 593 q 431 382 504 456 q 297 235 358 308 q 192 103 236 163 q 361 181 264 140 q 565 256 458 221 q 776 319 671 292 q 968 361 881 347 z "},"a":{"ha":399,"x_min":-39,"x_max":450,"o":"m 407 343 q 438 352 426 361 q 431 319 450 343 q 400 283 419 307 q 360 233 381 258 q 318 189 339 208 q 283 167 297 169 q 233 172 265 163 q 176 201 200 182 q 142 177 158 189 q 108 160 125 165 q 71 161 93 157 q 27 177 49 165 q -11 206 6 189 q -33 244 -28 222 q -22 301 -39 268 q 21 363 -4 333 q 73 413 46 392 q 115 436 100 435 q 140 435 125 438 q 169 425 154 432 q 195 408 183 418 q 211 386 207 399 q 244 401 231 403 q 268 394 256 399 q 291 385 281 390 q 308 371 301 379 q 314 353 315 363 q 303 323 314 342 q 279 285 292 304 q 258 250 267 265 q 256 231 250 235 q 274 237 260 228 q 310 262 289 246 q 356 299 331 278 q 407 343 382 319 m 58 210 q 97 219 74 201 q 140 263 119 236 q 176 317 161 289 q 190 358 190 344 q 171 365 185 371 q 140 344 157 360 q 106 307 124 329 q 76 265 89 285 q 58 228 64 244 q 58 210 51 213 z "},"z":{"ha":351,"x_min":-94,"x_max":400,"o":"m 11 399 q 61 417 22 413 q 144 419 100 421 q 224 412 188 418 q 268 399 261 406 q 278 366 283 385 q 250 335 274 347 q 211 315 236 328 q 161 286 186 301 q 99 250 132 269 q 110 238 104 243 q 122 228 115 232 q 135 222 128 224 q 176 231 146 219 q 241 259 207 243 q 307 292 275 275 q 351 317 339 308 q 390 322 381 332 q 381 294 400 311 q 338 261 369 286 q 270 209 307 236 q 199 161 233 182 q 151 140 165 140 q 125 150 138 140 q 101 173 113 160 q 78 199 89 186 q 57 218 67 211 q 33 197 46 210 q 8 172 21 183 q -17 151 -4 160 q -43 140 -31 142 q -65 146 -56 138 q -82 167 -75 154 q -92 193 -89 179 q -92 215 -94 207 q -65 244 -86 228 q -17 272 -43 260 q 32 290 8 285 q 65 285 56 294 l 157 335 q 101 319 126 326 q 58 306 79 313 q 25 293 36 299 q 6 300 13 288 q -1 331 0 313 q 1 370 -1 350 q 11 399 4 390 z "},"v":{"ha":411,"x_min":-18,"x_max":442,"o":"m 76 443 q 99 448 85 451 q 126 434 113 444 q 151 410 140 424 q 164 385 161 396 q 147 351 165 375 q 110 301 129 328 q 84 253 92 275 q 99 226 76 232 q 133 242 108 224 q 186 286 157 260 q 176 326 172 304 q 192 365 179 347 q 223 394 204 382 q 260 407 242 407 l 261 407 q 291 399 282 407 q 301 377 300 390 q 295 347 301 364 q 276 314 289 331 q 335 302 300 301 q 403 331 371 303 q 420 340 411 338 q 435 342 429 343 q 441 337 440 342 q 432 322 442 332 q 385 283 410 300 q 335 256 361 265 q 281 245 308 246 q 225 257 253 244 q 147 194 188 221 q 74 167 107 167 q 51 174 64 167 q 25 191 38 181 q 3 213 13 201 q -10 236 -7 225 q -12 299 -18 268 q 7 356 -7 329 q 40 406 21 383 q 76 443 58 428 z "},"Z":{"ha":925,"x_min":-128,"x_max":1468,"o":"m 1458 932 q 1467 924 1465 936 q 1461 891 1468 911 q 1439 849 1454 871 q 1399 810 1424 826 q 1319 773 1376 796 q 1194 731 1261 750 q 1073 667 1144 707 q 917 578 1001 628 q 739 470 832 528 q 551 351 646 413 q 364 226 456 289 q 192 106 272 164 q 435 169 313 140 q 683 208 558 197 q 732 212 707 210 q 781 213 757 214 q 827 204 804 211 q 869 182 850 197 q 889 161 888 168 q 882 152 890 154 q 858 150 874 150 q 826 150 843 150 q 606 124 726 150 q 360 56 485 97 q 116 -37 235 14 q -99 -139 -3 -89 q -126 -130 -124 -151 q -106 -73 -128 -108 q -38 3 -85 -37 q 82 68 8 43 q 304 240 190 160 q 537 396 418 321 q 776 543 656 471 q 1019 689 897 615 q 799 654 904 671 q 592 616 694 638 q 387 565 490 594 q 169 490 283 535 q 160 501 163 488 q 163 533 158 514 q 182 574 168 553 q 224 606 196 594 q 422 667 319 643 q 630 710 524 692 q 844 744 736 728 q 1056 785 951 761 q 1263 843 1161 808 q 1458 932 1364 878 z "},"B":{"ha":1100,"x_min":29,"x_max":1290,"o":"m 1257 839 q 1282 774 1290 808 q 1239 703 1274 739 q 1153 632 1204 667 q 1048 567 1101 597 q 948 513 994 536 q 878 476 901 489 q 956 447 921 471 q 1006 389 990 422 q 1014 306 1022 349 q 981 222 1006 264 q 921 142 957 181 q 845 72 885 104 q 767 13 806 39 q 701 -26 729 -12 q 490 -119 592 -85 q 305 -162 389 -153 q 158 -159 221 -172 q 62 -108 94 -146 q 31 -11 29 -71 q 76 132 32 49 q 102 146 82 142 q 143 149 122 150 q 178 142 164 149 q 185 122 192 135 q 158 79 176 107 q 126 19 140 51 q 106 -46 111 -14 q 122 -100 101 -78 q 190 -121 142 -122 q 303 -99 238 -119 q 444 -45 368 -79 q 595 33 519 -11 q 739 124 671 76 q 857 220 807 172 q 933 313 907 268 q 947 390 958 357 q 906 428 938 421 q 830 429 874 436 q 738 406 786 422 q 644 372 689 389 q 564 339 599 354 q 515 319 529 324 q 464 229 488 279 q 418 135 440 179 q 408 129 415 128 q 392 135 400 131 q 376 147 383 140 q 368 156 369 153 q 364 176 364 163 q 366 204 364 189 q 372 235 368 219 q 381 264 376 251 q 352 256 369 258 q 321 256 335 253 q 303 272 307 260 q 314 308 299 283 q 335 326 318 315 q 371 347 351 336 q 406 365 390 357 q 426 376 422 374 q 456 429 443 403 q 481 478 469 456 q 502 517 493 501 q 518 539 511 533 q 535 543 524 543 q 561 540 547 543 q 586 533 575 538 q 601 522 597 528 q 601 485 611 507 q 585 444 592 464 q 663 474 604 449 q 797 535 722 499 q 951 614 872 571 q 1093 698 1031 657 q 1189 774 1156 739 q 1206 826 1222 808 q 1133 844 1186 846 q 1005 826 1081 843 q 838 778 929 808 q 653 708 747 747 q 469 623 560 668 q 305 531 379 578 q 178 440 231 485 q 108 357 125 396 q 89 359 103 346 q 68 400 75 372 q 69 465 61 428 q 117 539 76 503 q 262 644 171 589 q 462 748 353 699 q 688 835 571 797 q 915 889 806 872 q 1113 896 1024 906 q 1257 839 1203 886 z "},"M":{"ha":1308,"x_min":61,"x_max":1490,"o":"m 497 126 q 561 153 517 126 q 666 224 606 179 q 799 326 726 268 q 947 449 872 385 q 1097 577 1022 513 q 1237 700 1172 642 q 1352 804 1301 758 q 1431 876 1403 850 q 1453 879 1440 886 q 1476 856 1467 872 q 1488 819 1486 840 q 1481 781 1490 799 q 1372 602 1433 701 q 1247 401 1311 503 q 1122 203 1183 299 q 1014 40 1060 108 q 942 -62 968 -29 q 925 -75 917 -96 q 911 -72 922 -82 q 891 -41 900 -62 q 881 13 882 -19 q 900 85 881 44 q 966 190 922 132 q 1062 313 1010 249 q 1168 444 1114 376 q 1267 576 1222 511 q 1124 456 1201 518 q 960 332 1046 394 q 785 210 875 269 q 603 97 694 150 q 517 71 550 67 q 466 99 485 75 q 440 157 447 122 q 433 222 433 192 q 442 421 433 324 q 460 622 451 518 q 413 547 442 590 q 350 455 383 504 q 282 352 317 406 q 215 248 247 299 q 157 151 183 197 q 117 69 131 104 q 99 65 113 60 q 74 92 85 71 q 63 149 64 113 q 85 236 61 185 q 135 334 104 279 q 202 446 167 389 q 274 558 238 503 q 343 658 311 614 q 399 729 375 701 q 433 760 424 757 q 450 758 440 763 q 467 744 460 754 l 465 932 q 483 951 465 947 q 522 942 500 954 q 563 903 544 931 q 583 832 581 876 q 574 738 585 801 q 547 595 563 674 q 513 434 531 517 q 486 283 496 351 q 477 170 476 214 q 497 126 478 126 z "},"L":{"ha":875,"x_min":22,"x_max":1135,"o":"m 301 181 q 537 201 417 203 q 767 175 657 200 q 967 103 876 150 q 1111 -10 1057 57 q 1133 -54 1135 -39 q 1111 -47 1132 -69 q 940 78 1046 29 q 708 143 835 128 q 444 135 582 158 q 178 44 307 113 q 144 25 161 35 q 109 10 126 15 q 75 8 92 6 q 42 26 58 11 q 24 48 26 39 q 27 65 22 57 q 43 82 32 74 q 67 99 54 90 q 192 226 129 154 q 321 372 256 297 q 456 522 386 447 q 602 661 526 597 q 762 772 678 725 q 940 840 846 819 q 1031 846 990 850 q 1096 832 1071 842 q 1128 813 1121 822 q 1117 806 1135 804 q 950 776 1029 808 q 798 692 871 744 q 658 571 725 639 q 531 432 592 503 q 412 295 469 361 q 301 181 354 229 z "},"K":{"ha":951,"x_min":25,"x_max":1247,"o":"m 294 251 q 419 262 344 267 q 580 239 494 257 q 756 194 665 221 q 927 138 846 167 q 1074 83 1008 110 q 1175 39 1139 57 q 1190 27 1185 33 q 1190 18 1194 21 q 1171 17 1186 15 q 1125 32 1156 19 q 995 80 1065 56 q 849 126 925 104 q 694 165 772 147 q 540 192 615 182 q 397 202 465 201 q 274 192 329 203 q 240 197 260 189 q 207 217 219 206 q 190 181 200 201 q 169 142 181 161 q 147 106 158 122 q 128 83 136 90 q 97 65 115 72 q 62 55 78 58 q 35 53 46 51 q 28 64 25 56 q 91 217 54 128 q 174 397 128 306 q 274 572 219 489 q 394 706 329 654 q 442 723 418 724 q 483 714 465 722 q 510 693 501 706 q 510 674 518 681 q 444 606 478 644 q 376 524 410 568 q 315 430 343 479 q 265 331 286 381 q 386 399 321 364 q 519 467 451 433 q 653 534 586 501 q 778 594 719 567 q 1003 712 890 650 q 1232 825 1115 774 q 1245 815 1243 831 q 1240 773 1247 799 q 1217 718 1233 747 q 1176 668 1201 689 q 1083 610 1142 639 q 951 549 1025 581 q 793 483 878 517 q 622 413 708 450 q 451 336 535 376 q 294 251 367 296 z "},"J":{"ha":1140,"x_min":76,"x_max":1529,"o":"m 524 486 q 749 604 628 544 q 998 719 871 664 q 1251 822 1125 775 q 1493 903 1378 869 q 1529 902 1529 913 q 1509 872 1529 892 q 1456 830 1489 853 q 1393 792 1424 807 q 1242 598 1315 704 q 1093 383 1168 492 q 938 170 1018 274 q 767 -13 858 67 q 572 -142 676 -93 q 343 -190 468 -190 q 244 -176 293 -190 q 156 -134 194 -161 q 97 -69 118 -107 q 83 15 76 -31 q 103 41 86 35 q 140 43 121 47 q 172 27 158 39 q 182 0 186 15 q 183 -74 171 -43 q 225 -122 196 -104 q 297 -142 254 -139 q 389 -136 340 -146 q 489 -102 438 -126 q 586 -40 540 -78 q 769 133 685 40 q 930 326 853 226 q 1081 526 1007 425 q 1233 726 1154 628 q 1127 678 1190 708 q 990 613 1064 649 q 839 537 917 576 q 688 461 761 497 q 551 395 614 425 q 444 349 488 365 q 434 358 433 343 q 445 397 435 374 q 476 446 456 421 q 524 486 496 471 z "},"I":{"ha":786,"x_min":92,"x_max":1015,"o":"m 524 743 q 599 763 557 751 q 686 785 642 774 q 774 808 731 797 q 853 829 818 819 q 913 845 889 839 q 942 853 936 851 q 961 848 947 854 q 988 832 975 842 q 1008 813 1001 822 q 1010 797 1015 803 q 913 678 963 751 q 810 519 863 604 q 701 344 757 433 q 588 176 646 254 q 472 40 531 99 q 351 -40 413 -18 q 273 -53 311 -56 q 203 -35 235 -51 q 144 8 171 -19 q 100 72 118 36 q 101 91 92 89 q 118 78 110 93 q 206 10 158 18 q 300 24 253 1 q 388 87 347 46 q 457 167 429 128 q 572 333 517 251 q 679 493 626 414 q 786 649 732 572 q 897 800 840 725 q 788 765 842 786 q 681 722 733 744 q 574 679 628 700 q 467 644 521 658 q 420 647 426 635 q 428 678 414 658 q 469 717 442 697 q 524 743 496 736 z "},"H":{"ha":1278,"x_min":99,"x_max":1636,"o":"m 1100 393 q 1198 522 1144 454 q 1304 653 1251 590 q 1403 766 1357 715 q 1481 843 1450 817 q 1522 860 1493 856 q 1578 861 1551 864 q 1621 849 1606 858 q 1622 822 1636 839 q 1433 621 1535 724 q 1238 407 1331 518 q 1075 176 1146 296 q 978 -78 1004 56 q 958 -96 976 -86 q 919 -108 940 -106 q 882 -100 899 -110 q 865 -61 865 -90 q 885 48 865 -11 q 934 165 904 107 q 999 272 964 222 q 1064 356 1033 322 q 710 283 883 321 q 358 206 536 244 q 284 89 317 132 q 227 27 251 46 q 188 13 203 8 q 164 36 172 17 q 171 63 161 44 q 195 104 181 82 q 224 147 210 126 q 244 181 238 168 q 213 172 232 178 q 176 160 194 167 q 139 147 157 154 q 108 135 121 140 q 101 147 99 131 q 115 185 103 164 q 147 227 126 207 q 194 250 167 247 l 282 258 q 352 372 317 313 q 426 491 388 432 q 506 606 464 550 q 600 708 549 663 q 631 726 611 718 q 675 738 651 733 q 720 744 699 743 q 756 742 742 746 q 771 731 769 739 q 756 708 772 722 q 676 635 722 682 q 582 528 631 588 q 485 402 533 468 q 401 274 438 336 q 758 332 589 304 q 1100 393 926 360 z "},"G":{"ha":956,"x_min":40,"x_max":1336,"o":"m 86 83 q 61 271 40 178 q 149 448 82 364 q 320 605 217 532 q 542 733 424 678 q 783 824 660 789 q 1015 865 907 858 q 1206 850 1124 872 q 1325 768 1289 828 q 1331 729 1336 749 q 1308 691 1325 710 q 1267 656 1292 672 q 1215 628 1242 640 q 1162 608 1188 615 q 1118 601 1136 601 q 1068 611 1088 601 q 1039 632 1049 621 q 1028 653 1029 643 q 1035 667 1028 664 q 1099 683 1057 672 q 1182 708 1142 693 q 1248 744 1222 724 q 1261 792 1274 764 q 1213 816 1251 811 q 1125 816 1174 821 q 1026 800 1076 811 q 940 778 975 789 q 755 709 856 751 q 556 613 654 667 q 367 496 457 558 q 215 367 278 433 q 123 233 151 300 q 117 101 94 165 q 160 49 129 67 q 234 25 192 31 q 326 25 276 19 q 424 45 376 31 q 515 81 472 60 q 589 128 558 103 q 642 210 614 169 q 700 286 671 251 q 758 349 729 321 q 814 394 788 378 q 846 406 828 404 q 878 405 864 408 q 899 394 892 401 q 903 382 907 388 q 790 223 842 299 q 692 70 738 147 q 607 -90 647 -7 q 528 -269 567 -172 q 514 -275 524 -279 q 494 -258 504 -271 q 478 -224 485 -244 q 472 -178 471 -203 q 524 11 476 -81 q 406 -25 471 -14 q 277 -29 340 -36 q 163 6 214 -22 q 86 83 111 33 z "},"F":{"ha":883,"x_min":68,"x_max":1425,"o":"m 269 200 q 140 230 185 200 q 91 310 96 260 q 119 425 86 360 q 219 560 151 490 q 390 698 288 629 q 625 824 492 767 q 796 885 708 860 q 967 925 883 911 q 1125 940 1050 939 q 1260 929 1200 942 q 1360 890 1319 917 q 1415 819 1401 863 q 1411 758 1425 789 q 1368 697 1397 726 q 1299 642 1339 668 q 1215 597 1258 617 q 1130 563 1172 576 q 1056 547 1088 550 q 964 556 997 540 q 924 592 931 572 q 995 606 950 594 q 1092 635 1040 618 q 1196 676 1144 653 q 1285 724 1247 699 q 1343 777 1324 750 q 1349 832 1363 804 q 1302 863 1338 854 q 1215 868 1267 871 q 1099 851 1164 865 q 961 817 1033 838 q 813 772 889 797 q 665 717 738 746 q 454 612 547 669 q 297 497 361 554 q 200 387 233 439 q 165 297 167 335 q 194 243 163 260 q 293 240 225 226 q 328 297 306 260 q 372 374 350 333 q 413 453 394 414 q 440 519 432 493 q 462 541 444 538 q 497 537 479 544 q 527 514 514 529 q 539 478 540 499 q 505 382 532 431 q 442 282 478 333 q 506 310 474 292 q 567 349 538 329 q 624 388 597 369 q 672 418 651 407 q 713 424 686 425 q 760 414 739 422 q 790 391 782 406 q 775 356 797 376 q 697 303 740 326 q 605 264 653 281 q 507 236 557 247 q 411 219 457 225 q 365 146 392 190 q 312 57 339 101 q 261 -24 285 13 q 225 -74 238 -61 q 169 -115 199 -99 q 117 -137 140 -131 q 81 -142 93 -144 q 75 -128 68 -139 q 115 -63 88 -108 q 173 33 143 -18 q 230 131 203 85 q 269 200 257 178 z "},"E":{"ha":1089,"x_min":89,"x_max":1390,"o":"m 106 315 q 127 455 89 386 q 241 587 165 524 q 421 704 317 650 q 640 799 525 758 q 870 865 754 840 q 1086 892 986 889 q 1260 876 1186 896 q 1367 807 1335 856 q 1385 733 1390 771 q 1356 662 1379 694 q 1301 606 1333 629 q 1242 574 1269 582 q 1189 571 1213 565 q 1150 588 1165 576 q 1130 610 1135 599 q 1136 626 1125 622 q 1197 655 1157 635 q 1270 700 1236 675 q 1323 751 1304 725 q 1324 800 1342 778 q 1251 829 1303 825 q 1126 822 1199 833 q 969 788 1054 811 q 799 736 885 765 q 634 674 714 707 q 494 610 554 640 q 431 576 468 597 q 354 529 394 556 q 276 472 314 503 q 211 410 238 442 q 173 344 185 378 q 174 281 161 311 q 208 249 183 257 q 261 242 233 242 q 314 248 289 243 q 347 253 339 253 q 494 324 424 296 q 624 366 565 351 q 728 383 683 381 q 797 375 772 385 q 814 339 832 363 q 744 289 796 315 q 619 239 693 263 q 472 203 546 215 q 421 181 454 199 q 349 137 388 163 q 274 80 311 111 q 210 18 236 49 q 172 -40 183 -12 q 175 -86 160 -67 q 246 -105 193 -111 q 372 -74 299 -99 q 531 -8 444 -49 q 704 78 618 33 q 869 169 790 124 q 1007 250 949 214 q 1030 263 1019 258 q 1044 267 1040 268 q 1045 258 1049 267 q 1026 231 1042 249 q 954 160 1007 207 q 828 60 901 113 q 666 -42 754 8 q 490 -125 578 -93 q 319 -162 401 -157 q 172 -131 236 -168 q 109 -67 128 -106 q 99 17 90 -28 q 146 109 108 61 q 253 200 183 157 q 158 241 200 211 q 106 315 115 271 z "},"D":{"ha":1401,"x_min":6,"x_max":1381,"o":"m 339 751 q 513 844 417 807 q 709 899 608 881 q 910 914 810 917 q 1095 887 1010 911 q 1247 817 1181 863 q 1347 703 1313 771 q 1377 561 1381 633 q 1344 417 1374 489 q 1264 279 1315 346 q 1149 156 1213 213 q 922 -3 1050 68 q 651 -112 793 -75 q 363 -147 510 -150 q 81 -81 215 -143 q 32 -53 51 -67 q 9 -31 13 -39 q 20 -23 6 -22 q 75 -39 35 -24 q 270 -77 167 -76 q 474 -56 374 -78 q 483 58 471 -8 q 515 195 494 124 q 565 338 536 267 q 623 466 593 408 q 681 562 653 524 q 733 607 710 600 q 779 613 756 613 q 820 608 803 613 q 845 594 838 603 q 843 575 853 585 q 776 479 817 544 q 696 330 736 414 q 621 152 656 246 q 572 -31 586 58 q 781 50 675 -4 q 982 174 888 104 q 1152 325 1076 244 q 1269 485 1228 406 q 1310 635 1310 564 q 1253 758 1310 707 q 1128 822 1204 804 q 963 834 1053 839 q 776 805 874 829 q 588 742 679 781 q 415 655 496 704 q 278 551 335 606 q 257 558 264 539 q 254 610 250 576 q 278 683 258 643 q 339 751 299 722 z "},"C":{"ha":761,"x_min":15,"x_max":1529,"o":"m 51 103 q 44 278 15 188 q 147 458 72 368 q 331 630 221 547 q 569 782 442 713 q 832 902 697 851 q 1089 977 967 953 q 1313 994 1211 1001 q 1474 942 1414 988 q 1526 865 1522 904 q 1500 786 1529 825 q 1417 710 1471 747 q 1298 639 1364 672 q 1162 576 1232 606 q 1030 526 1092 547 q 922 492 968 504 q 860 476 876 479 q 833 488 846 475 q 812 516 819 500 q 806 547 804 532 q 824 565 807 563 q 853 574 821 565 q 937 600 885 583 q 1055 639 989 617 q 1188 688 1121 661 q 1314 742 1254 714 q 1413 800 1374 771 q 1466 858 1453 829 q 1451 911 1479 886 q 1324 944 1411 949 q 1124 904 1238 939 q 880 810 1010 869 q 626 676 750 750 q 392 517 501 601 q 211 352 283 433 q 113 197 139 271 q 131 65 88 122 q 196 33 151 36 q 297 43 240 29 q 416 83 353 57 q 538 140 479 110 q 648 203 597 171 q 731 260 699 235 q 741 264 739 267 q 741 252 743 261 q 733 229 739 243 q 718 201 726 215 q 643 115 693 160 q 531 32 593 69 q 399 -28 468 -6 q 263 -49 329 -51 q 142 -11 197 -46 q 51 103 86 24 z "},"N":{"ha":1174,"x_min":44,"x_max":1504,"o":"m 406 697 q 422 694 413 700 q 445 824 431 757 q 483 944 460 892 q 539 1022 506 996 q 619 1031 572 1049 q 553 743 583 888 q 511 451 522 599 q 508 383 510 422 q 511 302 507 343 q 527 222 515 261 q 561 154 539 183 q 618 110 583 125 q 706 103 653 96 q 819 167 764 111 q 928 306 875 224 q 1030 485 981 388 q 1126 677 1079 583 q 1219 849 1174 771 q 1308 972 1264 928 q 1374 1013 1338 1001 q 1440 1024 1410 1024 q 1487 1018 1469 1025 q 1494 1003 1504 1011 q 1374 858 1432 951 q 1259 656 1317 765 q 1140 436 1201 547 q 1010 238 1079 325 q 858 99 940 150 q 678 61 776 49 q 574 98 618 68 q 498 172 529 128 q 447 270 467 215 q 418 382 428 325 q 406 494 408 439 q 410 597 404 550 l 410 603 q 326 481 369 546 q 242 349 282 417 q 172 214 203 282 q 124 82 140 146 q 109 65 124 63 q 78 87 94 68 q 53 139 63 106 q 56 217 44 172 q 82 293 63 249 q 129 388 101 338 q 190 488 157 438 q 260 580 224 538 q 333 653 296 622 q 406 697 371 685 z "},"O":{"ha":1172,"x_min":51,"x_max":1171,"o":"m 801 867 q 947 906 882 906 q 1060 876 1013 906 q 1134 794 1107 847 q 1166 671 1161 740 q 1152 521 1171 601 q 1089 357 1133 440 q 977 201 1043 274 q 830 74 911 129 q 657 -18 749 18 q 468 -65 565 -54 q 352 -60 410 -72 q 244 -22 294 -49 q 152 47 193 6 q 85 142 111 88 q 65 279 51 208 q 122 418 78 350 q 235 548 167 486 q 381 660 303 610 q 538 745 458 710 q 686 794 618 781 q 724 826 697 810 q 801 867 750 843 m 833 799 q 872 789 857 794 q 885 776 886 783 q 865 760 885 768 q 803 747 846 753 q 695 720 747 739 q 595 676 643 701 q 503 622 547 651 q 419 564 458 593 q 336 491 382 536 q 249 393 290 446 q 177 284 207 340 q 142 175 147 228 q 163 78 136 122 q 261 7 189 35 q 440 -10 347 -26 q 623 55 533 6 q 794 181 713 104 q 941 346 876 257 q 1047 528 1006 435 q 1097 707 1088 622 q 1088 803 1104 771 q 1039 847 1071 836 q 965 848 1007 857 q 876 818 922 839 l 833 799 z "},"P":{"ha":1351,"x_min":67,"x_max":1458,"o":"m 143 82 q 163 167 140 119 q 222 267 185 215 q 305 369 258 318 q 396 465 351 419 q 477 544 440 510 q 533 597 514 579 q 583 624 554 617 q 637 629 613 631 q 676 622 661 628 q 686 610 692 615 q 618 537 660 581 q 528 441 576 493 q 431 332 481 389 q 340 218 382 275 q 269 108 299 161 q 232 8 240 54 q 217 6 231 -1 q 188 27 204 13 q 159 58 172 42 q 143 82 146 74 m 694 819 q 1095 857 932 863 q 1342 806 1258 851 q 1440 688 1422 760 q 1423 537 1458 615 q 1304 383 1388 458 q 1100 256 1221 307 q 816 176 958 194 q 518 169 674 157 q 496 178 508 171 q 475 194 483 186 q 466 209 467 203 q 482 215 465 215 q 597 222 532 215 q 735 244 663 229 q 881 283 807 260 q 1024 339 956 307 q 1115 393 1068 360 q 1204 467 1163 426 q 1280 550 1246 507 q 1332 635 1314 593 q 1349 713 1350 676 q 1319 774 1347 749 q 1219 817 1285 806 q 1071 824 1154 828 q 891 801 988 819 q 699 753 794 782 q 513 685 603 724 q 351 605 422 647 q 231 517 279 563 q 172 425 183 471 q 162 419 171 419 q 141 424 153 419 q 117 435 129 428 q 97 453 104 443 q 79 532 67 493 q 133 608 92 571 q 241 677 175 644 q 383 737 307 710 q 540 785 460 764 q 694 819 621 806 z "},"Q":{"ha":1097,"x_min":71,"x_max":1754,"o":"m 749 182 q 974 134 844 150 q 1238 115 1103 118 q 1505 121 1374 111 q 1736 150 1636 131 q 1751 138 1749 153 q 1742 103 1754 124 q 1700 63 1731 83 q 1615 31 1669 42 q 1424 19 1532 14 q 1197 46 1317 25 q 954 97 1078 67 q 717 161 831 128 q 588 102 654 124 q 454 78 521 81 q 322 94 388 76 q 193 153 256 113 q 106 235 135 190 q 74 330 78 281 q 93 431 71 379 q 160 533 115 483 q 268 635 207 588 q 399 722 329 683 q 543 788 468 761 q 694 824 618 814 q 842 824 769 833 q 982 783 915 815 q 1067 748 1026 775 q 1124 678 1107 721 q 1128 581 1140 631 q 1085 483 1115 532 q 1010 390 1054 435 q 918 305 965 344 q 826 234 871 265 q 749 182 781 203 m 281 493 q 170 363 196 422 q 160 259 144 303 q 224 188 175 215 q 336 151 272 160 q 472 155 400 143 q 606 203 543 167 q 511 231 557 219 q 420 247 465 242 q 328 250 375 251 q 231 239 282 249 q 206 238 215 233 q 190 251 196 243 q 183 267 185 258 q 186 276 182 275 q 356 293 268 301 q 498 268 433 286 q 635 224 563 250 q 706 271 656 236 q 817 352 757 306 q 935 453 876 399 q 1033 559 994 507 q 1078 656 1071 611 q 1042 731 1086 701 q 972 750 1011 749 q 893 741 933 751 q 815 713 853 731 q 749 674 776 694 q 717 661 738 665 q 678 658 696 657 q 655 665 661 658 q 667 685 649 671 q 735 730 699 711 q 810 764 771 749 q 528 667 657 739 q 281 493 400 594 z "},"R":{"ha":1093,"x_min":83,"x_max":1318,"o":"m 674 160 q 780 147 721 154 q 901 134 839 140 q 1024 122 963 128 q 1138 114 1085 117 q 1233 110 1192 111 q 1297 114 1275 110 q 1315 103 1318 118 q 1293 70 1313 89 q 1240 35 1274 51 q 1167 18 1207 18 q 1018 32 1086 18 q 883 65 950 46 q 748 101 817 83 q 599 128 679 119 q 539 111 571 118 q 474 102 507 104 q 407 106 440 100 q 344 128 374 111 q 320 99 335 117 q 292 61 306 82 q 267 19 278 40 q 256 -19 257 -1 q 238 -31 254 -35 q 207 -10 222 -28 q 185 38 192 7 q 194 107 178 68 q 235 171 206 135 q 301 246 264 207 q 382 324 339 285 q 465 397 425 363 q 538 458 504 432 q 589 500 571 485 q 638 522 610 517 q 690 524 667 526 q 725 514 714 522 q 722 494 736 506 q 648 433 693 472 q 553 345 603 393 q 453 247 503 297 q 367 153 404 196 q 496 181 419 156 q 653 250 572 207 q 812 350 735 293 q 943 473 889 407 q 1019 611 997 539 q 1011 756 1040 683 q 946 828 990 806 q 841 850 901 850 q 709 831 781 850 q 564 783 638 813 q 419 714 490 753 q 287 635 347 675 q 182 556 226 594 q 117 486 138 517 q 101 494 111 479 q 87 538 90 510 q 94 601 83 565 q 142 668 104 636 q 271 762 197 717 q 427 842 344 807 q 597 897 510 878 q 765 913 683 917 q 919 879 847 910 q 1043 782 990 849 q 1110 640 1100 710 q 1095 505 1119 569 q 1022 383 1071 440 q 913 281 972 326 q 789 205 853 236 q 674 160 725 174 z "},"S":{"ha":994,"x_min":-3,"x_max":1292,"o":"m 424 753 q 540 806 468 775 q 695 863 611 836 q 869 908 779 889 q 1038 926 958 926 q 1182 901 1118 926 q 1278 817 1246 876 q 1283 766 1292 790 q 1252 720 1275 742 q 1197 681 1229 699 q 1132 651 1165 664 q 1069 631 1099 638 q 1025 624 1040 624 q 965 631 990 622 q 928 652 940 640 q 918 675 915 664 q 942 689 921 686 q 988 699 958 692 q 1052 718 1018 707 q 1119 744 1086 729 q 1177 773 1153 758 q 1211 803 1201 788 q 1208 832 1221 818 q 1118 863 1179 861 q 976 847 1057 865 q 803 792 896 828 q 615 711 710 757 q 433 613 521 665 q 274 508 344 561 q 157 406 203 456 q 103 317 111 356 q 117 286 97 290 q 164 287 136 282 q 220 301 192 292 q 261 314 249 311 q 374 345 315 328 q 493 377 433 363 q 612 402 553 392 q 728 411 671 413 q 801 391 761 410 q 870 342 840 372 q 911 272 900 311 q 899 189 922 232 q 817 97 872 143 q 690 11 763 51 q 536 -60 618 -29 q 374 -109 454 -92 q 224 -127 294 -126 q 103 -106 153 -128 q 41 -55 67 -89 q 7 17 15 -21 q 13 91 -1 56 q 68 147 26 126 q 99 147 82 153 q 127 131 115 142 q 142 109 139 121 q 135 90 146 97 q 69 35 85 58 q 64 -4 54 11 q 103 -27 74 -19 q 171 -35 132 -35 q 253 -29 210 -35 q 335 -11 296 -24 q 567 81 453 25 q 786 233 682 138 q 835 302 838 281 q 795 326 833 324 q 692 318 757 329 q 552 291 626 307 q 403 258 478 275 q 272 233 328 242 q 215 230 246 229 q 153 235 183 231 q 97 251 124 240 q 51 278 69 261 q 11 388 -3 326 q 83 513 25 449 q 231 639 140 576 q 424 753 322 701 z "},"T":{"ha":814,"x_min":8,"x_max":1435,"o":"m 1292 881 q 1388 836 1353 864 q 1428 778 1422 808 q 1412 719 1435 747 q 1336 672 1389 690 q 1274 665 1303 660 q 1227 683 1246 671 q 1201 707 1208 694 q 1201 722 1193 719 q 1251 735 1219 726 q 1306 760 1282 744 q 1344 815 1353 792 q 1276 849 1335 839 q 1115 856 1218 860 q 872 828 1011 851 q 693 791 785 814 q 513 735 601 768 q 341 656 424 701 q 189 553 258 611 q 102 453 122 499 q 101 385 82 408 q 99 375 108 376 q 76 379 90 374 q 46 398 61 385 q 25 432 31 411 q 29 533 8 485 q 94 624 50 582 q 197 704 138 667 q 317 772 256 742 q 547 861 422 826 q 801 910 672 896 q 1057 917 931 924 q 1292 881 1183 910 m 383 26 q 415 153 393 85 q 467 291 438 221 q 532 430 497 361 q 604 556 567 499 q 678 658 642 614 q 747 722 715 701 q 790 740 767 735 q 834 744 814 744 q 867 740 854 743 q 875 732 879 736 q 801 645 843 699 q 714 526 758 592 q 625 385 669 460 q 544 231 581 310 q 482 75 508 153 q 447 -74 456 -3 q 432 -90 444 -90 q 407 -76 419 -90 q 385 -35 394 -61 q 383 26 376 -10 z "},"U":{"ha":1094,"x_min":36,"x_max":1428,"o":"m 164 117 q 322 147 232 111 q 513 242 413 182 q 717 379 613 303 q 915 532 821 456 q 1088 677 1010 608 q 1217 789 1167 746 q 1278 813 1240 810 q 1351 811 1317 817 q 1406 795 1385 806 q 1419 776 1428 785 q 1333 706 1389 750 q 1215 608 1278 663 q 1090 490 1153 553 q 984 363 1028 428 q 923 236 940 299 q 932 118 906 174 q 931 99 939 106 q 906 103 922 92 q 863 163 874 124 q 857 245 853 201 q 874 331 861 289 q 903 401 888 374 q 767 319 842 365 q 613 228 692 274 q 453 145 533 183 q 303 87 374 107 q 174 69 232 67 q 82 111 117 72 q 43 192 50 146 q 47 288 36 238 q 84 392 58 339 q 142 493 110 444 q 208 584 174 542 q 274 657 243 626 q 332 687 296 679 q 400 692 368 694 q 451 678 432 689 q 457 653 469 667 q 428 620 451 646 q 374 557 406 594 q 306 473 343 519 q 235 378 269 426 q 174 285 201 331 q 133 202 146 239 q 126 142 121 165 q 164 117 132 119 z "},"V":{"ha":939,"x_min":26,"x_max":1642,"o":"m 119 40 q 217 69 153 36 q 369 161 282 103 q 558 297 456 219 q 769 459 661 375 q 985 628 878 543 q 1188 784 1092 713 q 1365 909 1285 856 q 1497 985 1444 963 q 1559 994 1531 999 q 1606 976 1588 989 q 1633 950 1625 964 q 1635 932 1642 936 q 1297 718 1460 838 q 974 474 1135 599 q 648 229 813 349 q 306 17 483 110 q 172 -17 231 -24 q 78 28 114 -11 q 35 131 43 67 q 51 269 26 194 q 91 363 64 308 q 151 474 118 418 q 220 581 185 531 q 286 661 256 631 q 339 688 308 683 q 393 687 369 693 q 428 667 417 681 q 422 640 439 654 q 385 599 410 629 q 330 525 361 568 q 265 430 299 482 q 199 325 231 378 q 142 222 168 272 q 103 133 117 172 q 93 68 90 93 q 119 40 96 43 z "},"W":{"ha":1314,"x_min":22,"x_max":1557,"o":"m 976 233 q 1064 328 1015 272 q 1164 448 1113 383 q 1267 581 1215 513 q 1365 711 1318 649 q 1449 827 1411 774 q 1510 917 1486 881 q 1525 928 1515 925 q 1542 928 1535 931 q 1553 918 1550 925 q 1553 903 1557 911 q 1458 727 1510 821 q 1348 538 1407 633 q 1223 349 1289 442 q 1082 177 1157 257 q 923 35 1007 97 q 747 -60 839 -26 q 658 -77 706 -75 q 571 -65 611 -79 q 503 -21 531 -51 q 469 61 475 10 q 377 -3 431 28 q 267 -46 324 -33 q 157 -45 211 -58 q 64 22 103 -32 q 28 123 33 65 q 38 247 22 181 q 84 381 53 313 q 159 516 115 450 q 254 640 203 582 q 360 742 306 699 q 470 810 415 785 q 575 833 525 835 q 592 829 581 833 q 615 819 604 825 q 631 807 625 813 q 631 799 636 801 q 457 677 532 754 q 315 517 382 600 q 263 446 297 494 q 195 339 229 397 q 133 219 161 281 q 97 110 104 158 q 110 35 89 63 q 193 15 131 7 q 349 68 278 26 q 482 165 419 110 q 565 353 510 261 q 683 525 621 444 q 738 592 706 554 q 808 664 769 631 q 887 718 846 697 q 968 733 928 739 q 1008 695 1011 728 q 973 614 1006 663 q 887 506 940 565 q 776 385 833 446 q 664 269 718 325 q 578 172 610 213 q 560 131 569 154 q 545 83 551 107 q 538 34 539 58 q 547 -10 538 10 q 592 -32 558 -37 q 672 -2 626 -26 q 767 59 717 22 q 860 132 817 96 q 936 197 904 168 q 976 233 968 225 m 726 397 q 796 463 761 426 q 859 534 831 500 q 908 593 888 568 q 933 624 928 618 q 878 578 907 606 q 822 520 850 551 q 769 457 794 489 q 726 397 744 425 z "},"Y":{"ha":697,"x_min":58,"x_max":1167,"o":"m 410 317 q 555 477 483 400 q 701 626 626 554 q 856 765 775 697 q 1031 894 938 832 q 1082 909 1056 911 q 1128 896 1108 907 q 1157 871 1147 885 q 1158 851 1167 857 q 1057 778 1110 819 q 953 694 1004 738 q 856 606 903 650 q 772 524 810 561 q 793 491 788 514 q 783 451 799 468 q 681 377 739 406 q 568 317 622 349 q 356 94 451 208 q 178 -133 260 -21 q 158 -136 174 -139 q 127 -125 143 -133 q 99 -103 111 -117 q 89 -72 86 -89 q 117 -16 90 -54 q 183 69 144 22 q 265 166 222 117 q 343 256 308 215 q 258 238 301 240 q 176 250 214 236 q 111 296 139 264 q 72 381 83 328 q 63 510 58 442 q 86 643 68 578 q 133 766 104 708 q 197 864 161 824 q 271 923 232 904 q 347 931 310 942 q 363 921 350 929 q 388 901 375 913 q 407 881 400 890 q 408 868 414 871 q 331 808 371 851 q 256 707 290 764 q 195 585 221 650 q 159 463 169 521 q 157 358 149 404 q 200 289 165 311 q 249 275 222 275 q 303 282 275 275 q 359 299 332 289 q 410 317 386 310 z "},"X":{"ha":767,"x_min":60,"x_max":1242,"o":"m 632 61 q 733 10 674 18 q 851 12 792 1 q 958 46 910 22 q 1026 92 1007 69 q 1039 90 1033 99 q 1043 69 1044 81 q 1022 16 1040 47 q 973 -43 1004 -15 q 896 -88 942 -71 q 792 -100 850 -106 q 690 -60 738 -94 q 606 25 643 -25 q 544 133 569 75 q 511 240 519 190 q 456 188 489 219 q 383 117 422 156 q 303 38 344 79 q 224 -41 263 -3 q 155 -112 186 -79 q 106 -165 124 -144 q 79 -181 89 -183 q 65 -165 69 -179 q 60 -127 60 -150 q 63 -81 60 -104 q 72 -40 67 -58 q 85 -14 78 -21 q 138 38 106 7 q 206 106 169 69 q 283 183 243 143 q 361 258 324 222 q 431 324 399 294 q 483 374 463 354 q 477 506 481 433 q 472 651 474 578 q 472 792 471 724 q 478 914 472 861 q 497 933 479 932 q 535 922 515 933 q 571 890 556 910 q 583 849 586 871 q 584 758 586 813 q 579 647 582 704 q 574 538 576 590 q 574 450 572 485 q 747 595 664 528 q 928 733 831 663 q 967 760 942 743 q 1024 794 993 776 q 1090 826 1056 811 q 1154 844 1124 840 q 1208 839 1185 849 q 1242 800 1231 829 q 903 572 1060 696 q 592 310 747 449 q 588 249 589 283 q 590 179 586 214 q 603 113 593 144 q 632 61 613 81 z "},"/":{"ha":426,"x_min":-39,"x_max":506,"o":"m -28 82 q 22 137 -14 97 q 103 230 57 176 q 203 343 150 283 q 303 457 256 403 q 390 555 351 511 q 444 618 428 599 q 475 635 461 636 q 497 625 489 635 q 506 601 506 615 q 494 581 506 588 q 440 534 478 571 q 352 447 401 497 q 249 337 303 396 q 145 224 194 278 q 57 127 96 169 q 1 65 18 85 q -19 50 -10 53 q -33 51 -28 47 q -38 64 -39 56 q -28 82 -37 72 z "},"":{"ha":418,"x_min":49,"x_max":344,"o":"m 64 568 q 106 614 79 592 q 153 644 133 636 q 175 649 163 649 q 200 647 188 650 q 222 638 213 643 q 236 628 232 633 q 248 601 247 615 q 250 586 249 586 q 269 593 251 586 q 306 632 288 600 q 317 642 310 639 q 330 644 324 644 q 340 638 336 643 q 343 622 344 632 q 328 584 339 603 q 303 549 317 565 q 274 522 289 533 q 250 508 260 511 q 225 504 239 506 q 197 504 211 503 q 169 510 182 506 q 150 522 157 514 q 140 535 144 528 q 133 550 136 543 q 128 567 129 558 q 110 552 118 560 q 93 536 103 544 q 61 533 74 521 q 64 568 49 546 z "},"`":{"ha":314,"x_min":49,"x_max":246,"o":"m 206 497 q 175 506 196 500 q 131 517 154 511 q 88 532 108 524 q 57 550 67 540 q 49 578 49 560 q 57 613 50 596 q 75 641 64 629 q 99 650 86 653 q 129 634 111 647 q 167 603 147 621 q 204 568 186 586 q 233 539 222 550 q 245 517 244 526 q 240 501 246 507 q 225 494 235 496 q 206 497 215 493 z "},"":{"ha":322,"x_min":40,"x_max":250,"o":"m 56 549 q 78 569 63 554 q 110 601 93 585 q 146 632 128 618 q 176 649 164 646 q 204 642 189 651 q 231 619 219 633 q 246 589 242 604 q 242 564 250 574 q 213 545 233 554 q 167 528 192 536 q 117 513 142 519 q 76 503 93 507 q 52 503 60 499 q 42 516 44 508 q 44 533 40 524 q 56 549 47 542 z "},"":{"ha":378,"x_min":50,"x_max":307,"o":"m 306 618 q 281 589 303 608 q 229 549 258 569 q 173 515 200 529 q 135 500 146 500 q 103 514 118 500 q 76 547 88 528 q 57 588 64 567 q 51 622 50 608 q 59 634 51 629 q 77 642 67 639 q 98 644 88 644 q 114 640 108 644 q 118 626 119 635 q 113 606 117 617 q 104 583 108 594 q 101 558 100 571 q 131 583 114 568 q 166 613 149 599 q 199 638 183 626 q 224 651 214 649 q 248 653 233 654 q 276 647 263 651 q 298 635 289 642 q 306 618 307 628 z "},"":{"ha":386,"x_min":67,"x_max":324,"o":"m 68 542 q 92 571 69 551 q 144 610 115 590 q 201 645 174 631 q 239 660 228 660 q 271 646 256 660 q 298 613 286 632 q 317 573 310 593 q 322 539 324 553 q 313 526 321 532 q 296 518 306 521 q 276 515 286 515 q 260 519 265 515 q 255 534 253 525 q 261 554 257 543 q 269 577 265 565 q 272 601 274 589 q 241 576 258 590 q 207 547 224 561 q 175 522 190 533 q 150 508 160 511 q 126 507 140 506 q 98 513 111 508 q 76 525 85 518 q 68 542 67 532 z "},"":{"ha":367,"x_min":44,"x_max":301,"o":"m 224 625 q 242 619 229 625 q 267 606 254 614 q 289 588 279 597 q 299 569 299 578 q 292 536 301 551 q 271 509 283 521 q 244 492 258 497 q 222 489 231 486 q 192 502 211 490 q 164 528 174 514 q 135 509 149 515 q 111 506 121 503 q 92 513 104 507 q 70 528 81 519 q 52 547 60 538 q 44 565 44 557 q 51 588 44 575 q 67 613 57 601 q 90 634 78 625 q 114 643 103 643 q 127 639 118 643 q 147 628 136 635 q 167 615 157 622 q 183 600 178 607 q 224 625 201 622 z "},"":{"ha":347,"x_min":64,"x_max":276,"o":"m 164 667 q 190 658 172 667 q 226 638 208 650 q 259 610 244 625 q 274 585 274 596 q 264 536 276 560 q 232 496 251 513 q 192 471 213 479 q 160 465 172 463 q 133 478 149 468 q 101 500 117 488 q 75 526 86 513 q 64 551 64 539 q 73 583 64 564 q 97 620 82 603 q 129 651 111 638 q 164 667 147 664 m 132 525 q 150 526 138 518 q 175 549 163 535 q 197 578 188 564 q 203 597 206 593 q 185 597 199 606 q 160 573 172 588 q 138 544 147 558 q 132 525 129 529 z "},"":{"ha":439,"x_min":40,"x_max":386,"o":"m 56 549 q 78 569 63 554 q 110 601 93 585 q 146 632 128 618 q 176 649 164 646 q 214 635 194 651 q 242 597 233 618 q 280 629 261 614 q 314 649 299 644 q 342 642 326 651 q 367 619 357 633 q 382 589 378 604 q 378 564 386 574 q 349 545 369 554 q 304 528 329 536 q 255 513 279 519 q 214 503 231 507 q 183 508 190 496 q 181 532 175 519 q 124 514 153 521 q 76 503 94 507 q 52 503 60 499 q 42 516 44 508 q 44 533 40 524 q 56 549 47 542 z "},"":{"ha":228,"x_min":-3,"x_max":201,"o":"m 178 158 q 144 140 167 151 q 99 114 121 128 q 62 85 76 100 q 53 56 47 69 q 64 47 57 46 q 78 53 71 47 q 93 68 86 60 q 103 82 100 76 q 117 85 107 89 q 137 74 128 82 q 151 53 146 65 q 153 31 157 42 q 133 6 149 19 q 98 -14 118 -8 q 56 -11 78 -19 q 14 31 33 -3 q 15 83 -3 57 q 62 128 32 108 q 124 163 92 149 q 167 182 156 178 q 196 181 190 190 q 178 158 201 172 z "},"":{"ha":240,"x_min":10,"x_max":211,"o":"m 132 176 q 150 187 142 186 q 164 183 158 188 q 172 172 169 179 q 169 158 174 164 q 148 138 163 147 q 132 118 133 129 q 148 106 132 113 q 180 90 164 100 q 203 62 196 79 q 194 17 211 44 q 149 -14 178 -11 q 92 -6 121 -17 q 40 22 63 4 q 14 51 18 39 q 13 72 10 64 q 22 83 15 79 q 35 83 28 86 q 47 72 43 81 q 74 48 54 54 q 101 58 94 42 q 93 81 108 75 q 68 100 78 88 q 70 115 64 106 q 87 134 76 124 q 110 156 97 144 q 132 176 122 167 z "},"|":{"ha":542,"x_min":103,"x_max":439,"o":"m 107 -3 q 133 81 113 17 q 180 234 153 146 q 238 422 207 322 q 295 613 268 522 q 342 772 322 703 q 369 865 363 840 q 390 894 376 889 q 415 892 404 899 q 433 874 426 886 q 432 850 439 861 q 408 799 424 838 q 372 703 392 760 q 328 576 351 646 q 281 435 304 507 q 235 291 257 363 q 193 160 213 219 q 160 56 174 100 q 140 -7 146 11 q 127 -28 135 -22 q 113 -34 119 -35 q 105 -25 107 -33 q 107 -3 103 -17 z "},"\\":{"ha":386,"x_min":-103,"x_max":421,"o":"m -86 592 q -101 624 -103 610 q -87 644 -99 638 q -62 650 -76 651 q -43 636 -49 649 q -3 576 -35 618 q 74 478 29 533 q 169 362 118 424 q 268 244 221 300 q 353 146 315 189 q 407 83 390 103 q 419 60 418 71 q 417 45 421 50 q 403 42 413 40 q 386 56 394 44 l -86 592 z "},"$":{"ha":994,"x_min":-3,"x_max":1292,"o":"m 283 -124 q 185 -125 231 -129 q 103 -106 139 -121 q 41 -55 67 -89 q 7 17 15 -21 q 13 91 -1 56 q 68 147 26 126 q 99 147 82 153 q 127 131 115 142 q 142 109 139 121 q 135 90 146 97 q 72 37 88 60 q 63 -1 56 14 q 97 -25 71 -17 q 160 -35 124 -33 q 238 -31 196 -36 q 318 -17 279 -26 l 408 258 q 335 244 371 251 q 272 233 300 238 q 215 230 246 229 q 153 235 183 231 q 97 251 124 240 q 51 278 69 261 q 11 388 -3 326 q 83 513 25 449 q 231 639 140 576 q 424 753 322 701 q 497 788 454 768 q 590 826 539 807 q 622 924 610 883 q 639 981 633 965 q 659 1009 646 1004 q 683 1008 672 1014 q 701 989 694 1001 q 700 965 707 976 q 681 925 693 956 q 650 849 668 894 l 719 869 q 749 961 738 924 q 765 1014 761 999 q 785 1042 772 1038 q 810 1041 799 1047 q 828 1022 822 1035 q 826 999 835 1010 q 808 960 819 989 q 781 886 796 932 q 933 918 857 907 q 1076 924 1010 929 q 1196 894 1143 919 q 1278 817 1249 868 q 1283 766 1292 790 q 1252 720 1275 742 q 1197 681 1229 699 q 1132 651 1165 664 q 1069 631 1099 638 q 1025 624 1040 624 q 965 631 990 622 q 928 652 940 640 q 918 675 915 664 q 942 689 921 686 q 988 699 958 692 q 1052 718 1018 707 q 1119 744 1086 729 q 1177 773 1153 758 q 1211 803 1201 788 q 1208 832 1221 818 q 1136 862 1183 857 q 1026 856 1089 867 q 888 822 963 846 q 735 765 814 799 q 674 592 707 686 q 608 401 640 499 q 669 409 639 407 q 728 411 699 411 q 801 391 761 410 q 870 342 840 372 q 911 272 900 311 q 899 189 922 232 q 828 108 875 149 q 719 29 781 67 q 587 -40 658 -8 q 443 -92 515 -71 q 428 -140 435 -119 q 418 -169 421 -160 q 406 -191 414 -185 q 392 -197 399 -197 q 383 -187 386 -196 q 385 -167 381 -179 l 406 -101 q 362 -112 383 -108 q 318 -119 340 -117 q 301 -171 308 -149 q 292 -203 294 -193 q 279 -224 286 -218 q 266 -230 272 -231 q 257 -221 260 -229 q 258 -200 254 -212 l 283 -124 m 261 314 q 349 338 304 324 q 442 364 393 351 q 493 522 468 443 q 542 675 518 601 q 382 583 458 631 q 247 488 306 535 q 149 396 188 440 q 103 317 111 351 q 117 286 97 290 q 164 287 136 282 q 220 301 192 292 q 261 314 249 311 m 786 233 q 835 301 836 279 q 800 326 835 322 q 704 319 765 329 q 572 294 643 310 l 489 43 q 641 123 567 78 q 786 233 715 168 m 483 375 q 526 385 504 381 q 567 393 547 390 l 681 742 l 599 703 l 483 375 m 447 267 q 399 124 422 192 q 357 -6 376 56 q 402 11 379 3 q 449 28 425 19 l 532 286 l 447 267 z "},"":{"ha":232,"x_min":-18,"x_max":289,"o":"m 233 340 q 275 356 261 365 q 264 315 289 346 q 224 272 247 294 q 176 228 200 249 q 131 194 151 208 q 99 176 110 179 q 63 182 83 175 q 24 203 43 189 q -6 237 6 217 q -15 282 -18 257 q -2 334 -12 306 q 22 386 8 363 q 50 425 36 410 q 75 439 64 440 q 96 431 85 436 q 116 420 107 426 q 131 406 125 414 q 135 386 136 397 q 122 353 133 375 q 100 310 111 332 q 81 269 89 288 q 78 247 72 251 q 98 251 82 244 q 135 269 114 257 q 183 300 157 282 q 233 340 208 318 z "},"":{"ha":236,"x_min":44,"x_max":190,"o":"m 114 643 q 132 638 119 643 q 157 624 144 632 q 179 606 169 615 q 189 589 189 596 q 182 555 190 571 q 160 527 174 539 q 133 509 147 515 q 111 506 119 503 q 92 513 104 507 q 70 528 81 519 q 52 547 60 538 q 44 565 44 557 q 51 588 44 575 q 67 613 57 601 q 90 634 78 625 q 114 643 103 643 z "},"":{"ha":283,"x_min":-133,"x_max":413,"o":"m -122 47 q -73 102 -108 63 q 10 194 -37 142 q 110 307 57 247 q 210 422 163 367 q 297 519 258 476 q 351 583 335 563 q 382 601 368 601 q 404 590 396 600 q 413 565 413 579 q 401 544 413 551 q 347 498 385 535 q 259 410 308 461 q 156 301 210 360 q 52 189 101 243 q -36 92 3 135 q -92 31 -75 50 q -112 15 -103 18 q -128 16 -122 13 q -133 28 -133 19 q -122 47 -132 36 z "},"":{"ha":375,"x_min":28,"x_max":307,"o":"m 306 618 q 283 589 303 608 q 233 549 264 569 q 165 515 203 529 q 90 500 128 500 q 47 515 61 500 q 31 549 33 529 q 34 590 28 569 q 51 622 40 610 q 64 632 56 626 q 81 640 72 638 q 99 644 90 643 q 114 640 108 644 q 113 622 119 635 q 99 594 107 608 q 89 569 92 581 q 101 558 86 558 q 142 572 124 558 q 175 603 160 586 q 202 634 190 619 q 224 651 214 649 q 248 653 233 654 q 276 647 263 651 q 298 635 289 642 q 306 618 307 628 z "},"&":{"ha":636,"x_min":10,"x_max":792,"o":"m 310 535 q 300 518 306 531 q 292 489 294 506 q 295 453 290 472 q 317 418 300 435 q 367 422 342 421 q 415 424 392 424 q 456 424 438 424 q 485 424 475 424 q 528 456 508 443 q 565 468 547 468 q 633 442 599 468 q 667 446 647 442 q 707 455 686 450 q 747 464 728 460 q 776 468 765 468 q 788 455 792 468 q 772 424 783 442 q 744 391 760 407 q 722 369 729 375 q 699 365 715 365 q 665 365 683 364 q 631 368 647 367 q 608 369 615 369 q 578 336 599 357 q 533 290 557 315 q 485 239 510 265 q 444 190 461 213 q 419 149 426 167 q 422 125 413 132 q 453 134 429 121 q 508 168 476 147 q 541 179 526 181 q 561 169 556 178 q 561 147 567 161 q 535 118 556 132 q 484 89 508 100 q 440 78 460 78 q 388 90 407 78 q 360 121 368 101 q 353 167 351 140 q 364 224 356 194 q 308 172 338 199 q 249 124 279 146 q 192 89 219 103 q 140 75 164 75 q 76 90 103 75 q 35 130 50 106 q 15 183 19 154 q 14 236 10 211 q 47 303 21 274 q 106 355 72 332 q 176 395 140 378 q 240 425 213 413 q 218 448 231 435 q 194 476 206 461 q 174 504 182 490 q 164 531 165 518 q 188 590 161 558 q 253 649 215 622 q 330 692 290 675 q 392 708 369 708 q 449 690 422 708 q 497 646 476 672 q 531 590 518 619 q 542 539 543 561 q 528 496 542 506 q 500 489 515 486 q 473 503 485 492 q 464 525 461 515 q 467 597 474 575 q 445 622 460 618 q 410 614 431 625 q 369 588 389 603 q 332 557 349 572 q 310 535 315 542 m 449 383 q 381 386 421 396 q 297 355 340 376 q 210 303 253 333 q 138 242 168 272 q 92 188 107 213 q 89 151 78 163 q 118 153 93 146 q 178 178 143 161 q 253 217 213 194 q 333 268 294 240 q 402 325 371 296 q 449 383 433 354 z "},".":{"ha":158,"x_min":-19,"x_max":121,"o":"m 47 172 q 26 176 39 172 q 3 188 14 181 q -13 203 -7 194 q -18 222 -19 213 q -10 244 -17 231 q 4 270 -4 257 q 23 294 13 283 q 43 307 33 304 q 67 303 53 308 q 93 288 81 297 q 113 269 106 279 q 119 251 121 260 q 111 231 119 243 q 92 206 103 218 q 68 183 81 193 q 47 172 56 174 z "},"":{"ha":475,"x_min":-19,"x_max":438,"o":"m 47 172 q 26 176 39 172 q 3 188 14 181 q -13 203 -7 194 q -18 222 -19 213 q -10 244 -17 231 q 4 270 -4 257 q 23 294 13 283 q 43 307 33 304 q 67 303 53 308 q 93 288 81 297 q 113 269 106 279 q 119 251 121 260 q 111 231 119 243 q 92 206 103 218 q 68 183 81 193 q 47 172 56 174 m 206 172 q 185 176 197 172 q 162 188 172 181 q 145 203 151 194 q 140 222 139 213 q 148 244 142 231 q 163 270 154 257 q 181 294 171 283 q 201 307 192 304 q 225 303 211 308 q 251 288 239 297 q 272 269 264 279 q 278 251 279 260 q 269 231 278 243 q 250 206 261 218 q 226 183 239 193 q 206 172 214 174 m 364 172 q 343 176 356 172 q 320 188 331 181 q 303 203 310 194 q 299 222 297 213 q 306 244 300 231 q 321 270 313 257 q 340 294 329 283 q 360 307 350 304 q 383 303 369 308 q 410 288 397 297 q 430 269 422 279 q 436 251 438 260 q 428 231 436 243 q 408 206 419 218 q 385 183 397 193 q 364 172 372 174 z "},",":{"ha":168,"x_min":-47,"x_max":121,"o":"m -6 111 q -33 109 -19 103 q -44 135 -47 115 q -33 170 -43 143 q -9 227 -22 197 q 19 281 4 257 q 43 307 33 304 q 67 303 53 308 q 93 288 81 297 q 113 269 106 279 q 119 251 121 260 q 103 222 119 243 q 66 178 88 201 q 24 136 44 156 q -6 111 3 117 z "},"'":{"ha":132,"x_min":19,"x_max":188,"o":"m 61 399 q 33 396 47 389 q 22 422 19 403 q 34 458 24 431 q 58 514 44 485 q 85 567 71 543 q 110 593 100 590 q 133 590 119 594 q 160 576 147 585 q 180 556 172 567 q 186 539 188 546 q 170 510 186 531 q 133 466 154 489 q 90 424 111 443 q 61 399 69 404 z "},"\"":{"ha":253,"x_min":19,"x_max":288,"o":"m 161 399 q 133 396 147 389 q 122 422 119 403 q 126 440 122 426 q 139 469 131 454 q 93 426 115 446 q 61 399 71 406 q 33 396 47 389 q 22 422 19 403 q 34 458 24 431 q 58 514 44 485 q 85 567 71 543 q 110 593 100 590 q 147 583 125 596 q 181 557 169 571 q 196 582 189 572 q 210 593 203 592 q 233 590 219 594 q 260 576 247 585 q 280 556 272 567 q 286 539 288 546 q 270 510 286 531 q 233 466 254 489 q 190 424 211 443 q 161 399 169 404 z "},"":{"ha":278,"x_min":21,"x_max":289,"o":"m 147 586 q 175 590 161 596 q 186 564 189 583 q 181 544 185 557 q 169 514 176 531 q 214 559 192 539 q 247 586 236 579 q 275 590 261 596 q 286 564 289 583 q 274 528 285 556 q 251 472 264 501 q 223 418 238 442 q 199 392 208 394 q 161 401 183 389 q 128 428 139 413 q 112 403 119 413 q 99 392 104 393 q 75 394 89 389 q 49 409 61 400 q 28 428 36 418 q 22 447 21 439 q 38 476 22 456 q 76 519 54 496 q 118 561 97 542 q 147 586 139 581 z "},"":{"ha":261,"x_min":19,"x_max":288,"o":"m 161 399 q 133 396 147 389 q 122 422 119 403 q 126 440 122 426 q 139 469 131 454 q 93 426 115 446 q 61 399 71 406 q 33 396 47 389 q 22 422 19 403 q 34 458 24 431 q 58 514 44 485 q 85 567 71 543 q 110 593 100 590 q 147 583 125 596 q 181 557 169 571 q 196 582 189 572 q 210 593 203 592 q 233 590 219 594 q 260 576 247 585 q 280 556 272 567 q 286 539 288 546 q 270 510 286 531 q 233 466 254 489 q 190 424 211 443 q 161 399 169 404 z "},"":{"ha":132,"x_min":19,"x_max":188,"o":"m 61 399 q 33 396 47 389 q 22 422 19 403 q 34 458 24 431 q 58 514 44 485 q 85 567 71 543 q 110 593 100 590 q 133 590 119 594 q 160 576 147 585 q 180 556 172 567 q 186 539 188 546 q 170 510 186 531 q 133 466 154 489 q 90 424 111 443 q 61 399 69 404 z "},"":{"ha":157,"x_min":21,"x_max":189,"o":"m 147 586 q 175 590 161 596 q 186 564 189 583 q 174 528 185 556 q 151 472 164 501 q 123 418 138 442 q 99 392 108 394 q 75 394 89 389 q 49 409 61 400 q 28 428 36 418 q 22 447 21 439 q 38 476 22 456 q 76 519 54 496 q 118 561 97 542 q 147 586 139 581 z "},":":{"ha":218,"x_min":-19,"x_max":219,"o":"m 47 172 q 26 176 39 172 q 3 188 14 181 q -13 203 -7 194 q -18 222 -19 213 q -10 244 -17 231 q 4 270 -4 257 q 23 294 13 283 q 43 307 33 304 q 67 303 53 308 q 93 288 81 297 q 113 269 106 279 q 119 251 121 260 q 111 231 119 243 q 92 206 103 218 q 68 183 81 193 q 47 172 56 174 m 144 339 q 124 343 136 339 q 102 354 113 347 q 85 370 92 361 q 81 389 79 379 q 88 410 82 397 q 103 437 94 424 q 122 460 111 450 q 142 474 132 471 q 165 469 151 475 q 192 455 179 464 q 212 436 204 446 q 218 418 219 426 q 210 397 218 410 q 190 372 201 385 q 166 350 179 360 q 144 339 153 340 z "},";":{"ha":218,"x_min":-47,"x_max":219,"o":"m 144 339 q 124 343 136 339 q 102 354 113 347 q 85 370 92 361 q 81 389 79 379 q 88 410 82 397 q 103 437 94 424 q 122 460 111 450 q 142 474 132 471 q 165 469 151 475 q 192 455 179 464 q 212 436 204 446 q 218 418 219 426 q 210 397 218 410 q 190 372 201 385 q 166 350 179 360 q 144 339 153 340 m -6 111 q -33 109 -19 103 q -44 135 -47 115 q -33 170 -43 143 q -9 227 -22 197 q 19 281 4 257 q 43 307 33 304 q 67 303 53 308 q 93 288 81 297 q 113 269 106 279 q 119 251 121 260 q 103 222 119 243 q 66 178 88 201 q 24 136 44 156 q -6 111 3 117 z "},"!":{"ha":235,"x_min":-3,"x_max":450,"o":"m 64 139 q 43 143 56 139 q 20 154 31 147 q 3 170 10 161 q -1 189 -3 179 q 6 210 0 197 q 21 237 13 224 q 40 260 29 250 q 60 274 50 271 q 83 269 69 275 q 110 255 97 264 q 130 236 122 246 q 136 218 138 226 q 128 197 136 210 q 108 172 119 185 q 85 150 97 160 q 64 139 72 140 m 183 357 q 167 353 176 353 q 147 357 157 353 q 131 369 138 361 q 126 386 125 376 q 143 421 128 392 q 181 491 158 450 q 231 578 204 532 q 283 663 258 624 q 326 729 307 703 q 351 757 344 756 q 383 753 365 760 q 415 735 400 747 q 440 707 431 722 q 449 678 450 692 q 431 648 449 672 q 385 589 413 624 q 324 515 357 554 q 263 442 292 476 q 211 385 233 408 q 183 357 189 361 z "},"#":{"ha":439,"x_min":31,"x_max":396,"o":"m 210 167 q 187 167 201 160 q 174 186 172 174 q 180 202 174 189 q 197 235 186 215 q 172 234 185 235 q 149 233 160 233 q 107 188 125 207 q 85 167 89 169 q 62 167 76 160 q 49 186 47 174 q 55 202 49 189 q 72 233 61 215 q 55 234 64 233 q 42 235 46 235 q 31 241 31 235 q 38 256 31 247 q 57 270 44 264 q 85 276 69 276 l 94 276 q 101 288 99 282 q 108 300 104 293 l 86 300 q 75 306 75 300 q 83 321 75 313 q 103 335 90 329 q 131 342 115 342 l 135 342 q 174 401 157 375 q 197 428 192 426 q 217 426 206 431 q 238 415 228 422 q 253 397 247 407 q 260 378 260 386 q 235 342 260 371 l 260 342 q 299 401 282 375 q 322 428 317 426 q 342 426 331 431 q 363 415 353 422 q 378 397 372 407 q 385 378 385 386 q 364 344 385 372 q 381 347 375 344 q 393 343 390 349 q 391 331 396 338 q 376 317 386 324 q 350 307 365 310 l 332 303 l 311 278 q 326 281 319 281 q 335 282 332 281 q 348 278 346 283 q 346 265 350 272 q 331 251 342 258 q 306 242 319 244 q 291 240 299 240 q 276 239 283 239 q 234 190 253 211 q 210 167 215 169 m 219 276 q 227 288 224 283 q 233 300 231 293 q 219 299 226 300 q 201 299 211 299 l 183 276 l 219 276 z "},"-":{"ha":308,"x_min":29,"x_max":242,"o":"m 83 324 q 159 324 119 324 q 226 328 199 325 q 240 324 238 329 q 238 312 242 319 q 222 297 233 304 q 197 289 211 290 q 108 281 153 281 q 40 282 64 282 q 29 288 29 282 q 36 303 29 294 q 56 317 43 311 q 83 324 68 324 z "},"=":{"ha":328,"x_min":8,"x_max":267,"o":"m 64 297 q 138 298 99 297 q 207 301 178 299 q 219 298 217 303 q 217 285 222 293 q 202 271 213 278 q 176 261 192 264 q 88 255 132 254 q 19 256 43 256 q 8 262 8 256 q 16 276 8 268 q 36 291 24 285 q 64 297 49 297 m 108 361 q 184 362 144 361 q 251 367 224 363 q 265 363 263 368 q 263 350 267 357 q 247 336 258 343 q 222 326 236 329 q 133 319 178 319 q 65 319 89 319 q 54 326 54 319 q 61 340 54 332 q 81 355 68 349 q 108 361 93 361 z "},"%":{"ha":475,"x_min":7,"x_max":419,"o":"m 165 499 q 189 492 174 499 q 219 474 204 485 q 246 452 235 464 q 257 431 257 440 q 240 390 256 410 q 203 357 224 371 q 163 335 183 343 q 133 331 143 328 q 109 340 124 332 q 82 358 94 347 q 61 380 69 368 q 56 401 53 392 q 69 428 57 413 q 97 459 81 444 q 131 485 113 474 q 165 499 150 496 m 115 381 q 133 381 119 374 q 160 401 146 389 q 183 424 174 413 q 192 440 193 436 q 176 440 189 447 q 149 420 163 432 q 124 396 135 408 q 115 381 113 383 m 19 186 q 61 219 35 199 q 119 265 88 240 q 187 319 151 290 q 256 374 222 347 q 317 424 289 400 q 364 464 346 447 q 394 478 381 479 q 413 469 407 478 q 418 449 419 461 q 406 432 417 438 q 361 406 389 424 q 299 364 333 388 q 228 314 265 340 q 157 261 192 288 q 92 212 122 235 q 44 174 63 189 q 24 160 33 163 q 11 161 15 158 q 8 171 7 164 q 19 186 10 178 m 286 325 q 310 318 294 325 q 340 301 325 311 q 366 279 356 290 q 376 258 376 268 q 361 217 376 236 q 326 183 346 197 q 285 163 306 169 q 256 158 265 156 q 231 169 244 161 q 204 187 217 176 q 183 208 192 197 q 176 231 175 219 q 190 256 178 240 q 217 287 201 272 q 251 313 233 301 q 286 325 269 324 m 236 208 q 253 209 240 201 q 281 228 267 217 q 305 252 294 240 q 314 267 315 264 q 297 267 310 274 q 269 248 283 260 q 244 224 254 236 q 236 208 233 211 z "},"":{"ha":558,"x_min":7,"x_max":499,"o":"m 408 325 q 432 318 417 325 q 463 301 447 311 q 488 279 478 290 q 499 258 499 268 q 483 217 499 236 q 447 183 467 197 q 406 163 426 169 q 376 158 386 156 q 353 168 367 161 q 326 185 339 175 q 286 163 307 169 q 256 158 265 156 q 231 169 244 161 q 204 187 217 176 q 183 208 192 197 q 176 231 175 219 q 190 256 178 240 q 217 287 201 272 q 251 313 233 301 q 286 325 269 324 q 314 316 296 325 q 349 294 332 307 q 378 315 363 306 q 408 325 394 324 m 165 499 q 189 492 174 499 q 219 474 204 485 q 246 452 235 464 q 257 431 257 440 q 240 390 256 410 q 203 357 224 371 q 163 335 183 343 q 133 331 143 328 q 109 340 124 332 q 82 358 94 347 q 61 380 69 368 q 56 401 53 392 q 69 428 57 413 q 97 459 81 444 q 131 485 113 474 q 165 499 150 496 m 19 186 q 61 219 35 199 q 119 265 88 240 q 187 319 151 290 q 256 374 222 347 q 317 424 289 400 q 364 464 346 447 q 394 478 381 479 q 413 469 407 478 q 418 449 419 461 q 406 432 417 438 q 361 406 389 424 q 299 364 333 388 q 228 314 265 340 q 157 261 192 288 q 92 212 122 235 q 44 174 63 189 q 24 160 33 163 q 11 161 15 158 q 8 171 7 164 q 19 186 10 178 m 236 208 q 253 209 240 201 q 281 228 267 217 q 305 252 294 240 q 314 267 315 264 q 297 267 310 274 q 269 248 283 260 q 244 224 254 236 q 236 208 233 211 m 115 381 q 133 381 119 374 q 160 401 146 389 q 183 424 174 413 q 192 440 193 436 q 176 440 189 447 q 149 420 163 432 q 124 396 135 408 q 115 381 113 383 m 358 208 q 376 209 363 201 q 403 228 389 217 q 426 252 417 240 q 435 267 436 264 q 423 269 432 272 q 403 258 414 265 q 382 240 393 250 q 365 222 371 231 l 360 215 q 358 208 357 208 z "},"?":{"ha":393,"x_min":-3,"x_max":583,"o":"m 64 139 q 85 150 72 140 q 108 172 97 160 q 128 197 119 185 q 136 218 136 210 q 130 236 138 226 q 110 255 122 246 q 83 269 97 264 q 60 274 69 275 q 40 260 50 271 q 21 237 29 250 q 6 210 13 224 q -1 189 0 197 q 3 170 -3 179 q 20 154 10 161 q 43 143 31 147 q 64 139 56 139 m 151 399 q 201 465 168 433 q 272 523 233 496 q 351 572 310 550 q 424 611 392 594 q 478 638 457 628 q 497 651 499 649 q 465 653 494 660 q 397 629 436 646 q 319 590 358 613 q 258 542 281 567 q 241 544 253 535 q 222 573 229 554 q 217 617 214 592 q 244 667 221 642 q 287 696 260 683 q 342 717 314 708 q 396 729 371 725 q 433 732 421 733 q 488 711 458 729 q 540 670 518 693 q 573 624 563 647 q 569 585 583 600 q 542 553 565 571 q 483 517 518 536 q 408 478 449 499 q 327 439 367 458 q 255 401 288 419 q 206 365 222 382 q 183 356 194 356 q 164 362 172 356 q 151 378 156 368 q 151 399 147 389 z "},"@":{"ha":778,"x_min":26,"x_max":719,"o":"m 501 231 q 522 240 504 228 q 558 272 539 251 q 592 320 576 293 q 608 376 607 347 q 591 434 610 406 q 522 486 572 463 q 417 508 468 511 q 321 485 365 506 q 241 433 276 465 q 183 367 206 400 q 151 290 157 328 q 154 218 144 251 q 187 158 164 185 q 242 116 210 132 q 314 98 275 100 q 394 110 353 96 q 429 113 413 115 q 453 101 446 110 q 453 81 460 93 q 418 57 447 69 q 308 36 364 33 q 201 62 251 39 q 110 124 150 85 q 48 210 69 163 q 27 310 26 258 q 60 411 28 361 q 250 553 129 521 q 557 522 371 586 q 658 465 621 500 q 707 390 694 429 q 712 312 719 351 q 680 240 704 272 q 617 188 656 208 q 531 167 578 167 q 479 174 513 167 q 424 201 446 182 q 388 177 406 189 q 356 160 371 165 q 318 161 340 157 q 274 177 296 165 q 235 206 253 189 q 214 244 218 222 q 226 301 208 268 q 268 363 243 333 q 319 413 293 392 q 361 436 346 435 q 386 435 371 438 q 416 425 401 432 q 442 408 431 418 q 458 386 454 399 q 492 401 476 404 q 539 384 515 394 q 560 353 563 374 q 549 323 560 342 q 525 285 538 304 q 504 250 513 265 q 501 231 496 235 m 306 210 q 343 219 321 201 q 386 263 365 236 q 422 317 407 289 q 436 358 436 344 q 417 365 431 371 q 388 344 404 360 q 353 307 371 329 q 324 265 336 285 q 305 228 311 244 q 306 210 299 213 z "},"<":{"ha":239,"x_min":24,"x_max":207,"o":"m 186 419 q 200 409 196 419 q 206 385 204 399 q 204 356 207 371 q 197 333 201 342 q 178 313 193 325 q 145 288 164 300 q 108 263 126 275 q 76 240 89 250 q 101 235 88 235 q 126 238 114 236 q 147 238 138 239 q 158 231 156 238 q 158 213 161 224 q 151 194 156 203 q 138 180 146 186 q 125 175 131 174 q 92 188 110 176 q 58 217 74 200 q 33 252 42 233 q 28 286 24 271 q 52 319 31 296 q 100 365 74 342 q 151 404 126 388 q 186 419 176 421 z "},"":{"ha":239,"x_min":24,"x_max":207,"o":"m 186 419 q 200 409 196 419 q 206 385 204 399 q 204 356 207 371 q 197 333 201 342 q 178 313 193 325 q 145 288 164 300 q 108 263 126 275 q 76 240 89 250 q 101 235 88 235 q 126 238 114 236 q 147 238 138 239 q 158 231 156 238 q 158 213 161 224 q 151 194 156 203 q 138 180 146 186 q 125 175 131 174 q 92 188 110 176 q 58 217 74 200 q 33 252 42 233 q 28 286 24 271 q 52 319 31 296 q 100 365 74 342 q 151 404 126 388 q 186 419 176 421 z "},"":{"ha":399,"x_min":24,"x_max":371,"o":"m 186 419 q 200 409 196 419 q 206 385 204 399 q 204 356 207 371 q 197 333 201 342 q 178 313 193 325 q 145 288 164 300 q 108 263 126 275 q 76 240 89 250 q 101 235 88 235 q 126 238 114 236 q 147 238 138 239 q 158 231 156 238 q 158 213 161 224 q 151 194 156 203 q 138 180 146 186 q 125 175 131 174 q 92 188 110 176 q 58 217 74 200 q 33 252 42 233 q 28 286 24 271 q 52 319 31 296 q 100 365 74 342 q 151 404 126 388 q 186 419 176 421 m 350 419 q 364 409 360 419 q 369 385 368 399 q 368 356 371 371 q 360 333 365 342 q 341 313 356 325 q 308 288 326 300 q 272 263 290 275 q 240 240 253 250 q 263 235 250 235 q 288 238 276 236 q 310 238 300 239 q 322 231 319 238 q 322 213 324 224 q 314 194 319 203 q 301 180 308 186 q 289 175 294 174 q 256 188 274 176 q 222 217 238 200 q 197 252 206 233 q 192 286 188 271 q 216 319 194 296 q 264 365 238 342 q 315 404 290 388 q 350 419 340 421 z "},">":{"ha":239,"x_min":19,"x_max":203,"o":"m 40 174 q 26 185 31 174 q 21 210 22 196 q 22 238 19 224 q 31 260 25 251 q 49 281 35 268 q 82 306 64 293 q 119 331 100 318 q 150 353 138 343 q 126 358 139 358 q 102 356 114 357 q 81 355 90 354 q 68 364 71 356 q 68 381 65 371 q 76 399 71 390 q 88 414 81 408 q 101 418 94 419 q 134 405 115 417 q 169 376 153 393 q 194 341 185 360 q 199 307 203 322 q 174 275 196 297 q 126 230 153 253 q 75 190 100 207 q 40 174 50 174 z "},"":{"ha":239,"x_min":19,"x_max":203,"o":"m 40 174 q 26 185 31 174 q 21 210 22 196 q 22 238 19 224 q 31 260 25 251 q 49 281 35 268 q 82 306 64 293 q 119 331 100 318 q 150 353 138 343 q 126 358 139 358 q 102 356 114 357 q 81 355 90 354 q 68 364 71 356 q 68 381 65 371 q 76 399 71 390 q 88 414 81 408 q 101 418 94 419 q 134 405 115 417 q 169 376 153 393 q 194 341 185 360 q 199 307 203 322 q 174 275 196 297 q 126 230 153 253 q 75 190 100 207 q 40 174 50 174 z "},"":{"ha":394,"x_min":19,"x_max":365,"o":"m 40 174 q 26 185 31 174 q 21 210 22 196 q 22 238 19 224 q 31 260 25 251 q 49 281 35 268 q 82 306 64 293 q 119 331 100 318 q 150 353 138 343 q 126 358 139 358 q 102 356 114 357 q 81 355 90 354 q 68 364 71 356 q 68 381 65 371 q 76 399 71 390 q 88 414 81 408 q 101 418 94 419 q 134 405 115 417 q 169 376 153 393 q 194 341 185 360 q 199 307 203 322 q 174 275 196 297 q 126 230 153 253 q 75 190 100 207 q 40 174 50 174 m 203 174 q 189 185 193 174 q 184 210 185 196 q 186 238 183 224 q 193 260 189 251 q 212 281 197 268 q 244 306 226 293 q 281 331 263 318 q 314 353 300 343 q 290 358 303 358 q 265 356 276 357 q 244 355 253 354 q 232 364 235 356 q 232 381 229 371 q 240 399 235 390 q 251 414 244 408 q 265 418 258 419 q 298 405 279 417 q 332 376 317 393 q 356 341 347 360 q 361 307 365 322 q 338 275 358 297 q 290 230 317 253 q 238 190 264 207 q 203 174 213 174 z "},"+":{"ha":347,"x_min":29,"x_max":283,"o":"m 103 281 q 66 281 83 281 q 40 282 49 282 q 29 288 29 282 q 36 303 29 294 q 56 317 43 311 q 83 324 68 324 l 119 324 q 143 400 136 364 q 159 409 146 410 q 186 400 172 408 q 210 378 200 392 q 218 350 221 365 q 215 336 217 343 q 211 322 214 329 q 243 323 228 322 q 268 325 258 324 q 281 321 279 326 q 279 308 283 315 q 264 294 275 301 q 239 285 253 288 l 199 281 q 183 235 192 256 q 169 201 174 214 q 152 195 165 192 q 125 209 139 199 q 102 235 111 219 q 99 265 93 250 l 103 281 z "},"*":{"ha":367,"x_min":29,"x_max":301,"o":"m 300 439 q 288 428 299 435 q 263 416 278 422 q 232 403 249 410 q 201 392 215 397 q 230 381 214 388 q 259 369 246 375 q 281 356 272 363 q 290 344 290 350 q 280 328 288 338 q 263 310 272 318 q 245 296 254 301 q 231 290 236 290 q 219 299 226 290 q 203 319 211 307 q 187 344 194 331 q 174 369 179 358 q 173 338 174 356 q 170 303 172 319 q 165 274 168 286 q 157 258 161 261 q 139 256 150 256 q 117 261 128 257 q 99 271 107 265 q 92 282 92 276 q 98 306 89 288 q 122 344 107 325 q 85 312 103 325 q 60 299 67 299 q 47 307 53 300 q 36 322 40 314 q 31 340 32 331 q 32 353 29 349 q 43 363 33 357 q 67 373 53 368 q 98 383 82 378 q 128 393 114 389 q 76 410 101 400 q 49 432 51 421 q 53 449 49 439 q 64 467 57 458 q 78 482 71 476 q 92 486 86 488 q 103 480 96 486 q 118 465 110 474 q 135 444 126 456 q 153 424 144 433 q 153 485 151 451 q 164 525 154 518 q 181 526 171 528 q 202 522 192 525 q 221 513 213 518 q 231 501 229 507 q 226 482 232 496 q 210 451 219 468 q 237 481 224 468 q 257 493 250 493 q 272 485 264 492 q 288 469 281 478 q 298 452 294 461 q 300 439 301 443 z "},"(":{"ha":314,"x_min":61,"x_max":528,"o":"m 486 665 q 363 562 426 628 q 247 417 299 496 q 163 256 194 339 q 135 100 131 172 q 124 49 138 50 q 92 82 111 47 q 62 192 63 129 q 81 321 61 254 q 141 453 101 388 q 232 572 181 518 q 344 660 283 625 q 467 700 404 694 q 528 699 528 706 q 486 665 528 692 z "},")":{"ha":360,"x_min":-147,"x_max":321,"o":"m -106 131 q 18 234 -46 168 q 134 378 82 300 q 219 538 186 456 q 247 694 251 621 q 258 746 244 744 q 290 714 271 747 q 320 604 319 667 q 301 474 321 542 q 241 342 281 407 q 150 223 201 276 q 38 135 99 169 q -85 94 -22 100 q -130 92 -115 92 q -146 97 -144 93 q -137 109 -147 101 q -106 131 -126 117 z "},"":{"ha":347,"x_min":-11,"x_max":319,"o":"m 140 539 q 158 551 147 543 q 183 568 169 560 q 149 608 165 592 q 122 628 132 624 q 117 635 117 629 q 123 647 117 642 q 143 652 129 651 q 182 644 157 653 q 236 606 213 632 q 273 633 257 621 q 300 653 289 644 q 313 657 308 660 q 319 646 318 654 q 315 626 319 638 q 299 603 310 614 q 261 572 286 590 q 298 483 285 533 q 311 376 311 432 q 297 266 311 321 q 250 164 282 211 q 185 135 226 132 q 101 160 143 138 q 28 219 60 183 q -8 286 -4 254 q -1 336 -11 310 q 28 383 10 363 q 67 417 46 404 q 108 428 89 429 q 135 424 122 426 q 161 413 149 421 q 185 387 174 404 q 210 339 197 369 q 231 439 236 389 q 206 531 225 489 l 128 481 q 115 479 118 474 q 113 495 111 485 q 121 518 114 506 q 140 539 128 531 m 182 301 q 146 336 169 333 q 92 301 122 339 q 78 266 75 281 q 96 249 81 251 q 135 258 111 246 q 182 301 158 269 z "},"":{"ha":542,"x_min":-376,"x_max":496,"o":"m -283 -307 q -308 -322 -290 -318 q -341 -322 -325 -325 q -367 -306 -357 -318 q -367 -274 -376 -294 q -326 -198 -360 -258 q -241 -51 -292 -137 q -126 142 -190 36 q 3 358 -62 249 q 133 570 69 467 q 247 754 196 674 q 333 885 299 835 q 375 939 368 936 q 406 940 389 946 q 437 923 424 935 q 458 898 450 911 q 461 876 465 885 q 437 835 458 871 q 382 744 415 799 q 308 623 349 689 q 226 493 267 557 q 151 375 186 429 q 94 290 117 321 q 138 330 115 310 q 177 367 160 350 q 207 394 194 383 q 222 407 219 406 q 244 408 228 410 q 277 399 260 406 q 309 384 294 393 q 326 365 324 375 q 321 345 329 358 q 300 317 313 332 q 272 286 288 303 q 244 256 257 269 q 226 233 232 243 q 224 219 219 222 q 263 233 231 215 q 335 274 296 250 q 410 322 375 299 q 456 356 444 346 q 486 366 476 376 q 483 336 496 356 q 447 299 476 326 q 381 240 417 271 q 310 183 344 208 q 260 153 275 157 q 215 153 239 149 q 171 167 192 157 q 135 192 150 176 q 118 225 119 207 q 124 247 117 233 q 139 275 131 261 q 161 308 149 290 q 107 263 133 286 q 58 218 83 243 q 14 169 33 193 q -122 -40 -43 85 q -283 -307 -201 -165 z "},"":{"ha":1036,"x_min":-46,"x_max":1075,"o":"m 460 744 q 533 757 497 751 q 600 767 568 763 q 663 836 636 807 q 703 878 690 865 q 753 906 724 899 q 807 911 782 913 q 847 903 832 910 q 857 892 863 897 q 815 844 840 874 q 757 775 789 814 q 888 764 832 775 q 982 733 944 753 q 1061 639 1047 697 q 1047 517 1075 581 q 951 392 1018 453 q 786 290 883 332 q 567 227 676 242 q 336 219 458 213 q 267 99 294 154 q 232 8 239 44 q 217 6 231 -1 q 188 27 204 13 q 159 58 172 42 q 143 82 146 74 q 158 152 140 108 q 208 249 176 196 q 283 364 240 303 q 372 486 325 425 q 467 606 419 547 q 558 717 515 665 q 392 660 475 694 q 242 585 310 625 q 128 500 175 544 q 72 414 82 456 q 58 412 71 410 q 30 419 46 414 q -1 433 14 425 q -22 450 -17 442 q -36 513 -46 482 q 8 574 -26 544 q 94 629 42 603 q 209 678 147 656 q 336 717 271 700 q 460 744 401 733 m 735 749 q 646 640 693 699 q 549 517 599 581 q 453 388 500 453 q 365 264 406 324 q 517 296 436 272 q 683 360 597 319 q 794 432 738 385 q 890 531 850 479 q 943 632 929 583 q 924 711 957 681 q 846 745 894 736 q 735 749 797 754 z "},"":{"ha":335,"x_min":-22,"x_max":246,"o":"m 119 94 q 92 92 106 86 q 81 118 78 99 q 97 167 81 133 q 51 122 74 143 q 19 94 29 101 q -8 92 6 86 q -19 118 -22 99 q -8 153 -18 126 q 16 210 3 181 q 44 264 29 240 q 68 290 58 288 q 106 281 83 293 q 139 253 128 268 q 154 278 147 268 q 168 290 161 289 q 192 286 178 292 q 218 272 206 281 q 238 253 231 263 q 244 235 246 243 q 228 206 244 226 q 191 162 213 185 q 149 119 169 139 q 119 94 128 100 z "},"":{"ha":283,"x_min":-29,"x_max":307,"o":"m 185 683 l 239 865 q 259 894 246 889 q 283 892 272 899 q 301 874 294 886 q 300 850 307 861 q 273 792 289 836 q 233 683 257 747 q 263 685 249 685 q 290 689 278 686 q 303 685 300 690 q 301 672 306 679 q 285 658 296 665 q 260 649 275 651 q 240 644 250 646 q 218 643 229 643 q 156 453 189 556 q 92 256 122 350 q 40 90 63 163 q 8 -7 17 18 q -4 -28 3 -22 q -17 -34 -11 -35 q -26 -25 -24 -33 q -25 -3 -29 -17 q -10 46 -21 10 q 17 133 1 82 q 53 248 33 185 q 92 378 72 311 q 133 512 113 444 q 172 640 154 579 q 132 641 150 640 q 103 642 114 642 q 92 648 92 642 q 99 663 92 654 q 119 677 107 671 q 147 683 132 683 l 185 683 z "},"":{"ha":283,"x_min":-37,"x_max":307,"o":"m 185 683 l 239 865 q 259 894 246 889 q 283 892 272 899 q 301 874 294 886 q 300 850 307 861 q 273 792 289 836 q 233 683 257 747 q 263 685 249 685 q 290 689 278 686 q 303 685 300 690 q 301 672 306 679 q 285 658 296 665 q 260 649 275 651 q 240 644 250 646 q 218 643 229 643 q 155 454 188 556 q 92 260 122 353 q 128 261 111 260 q 160 265 144 263 q 173 261 171 267 q 171 249 175 256 q 156 235 167 242 q 131 225 144 228 q 106 221 118 222 q 81 218 93 219 q 34 77 53 138 q 8 -7 15 17 q -4 -28 3 -22 q -17 -34 -11 -35 q -26 -25 -24 -33 q -25 -3 -29 -17 l 43 217 q 4 217 22 217 q -26 218 -14 218 q -37 224 -37 218 q -31 239 -37 231 q -11 253 -24 247 q 17 260 1 260 l 56 260 q 114 452 83 351 q 172 640 144 553 q 132 641 150 640 q 103 642 114 642 q 92 648 92 642 q 99 663 92 654 q 119 677 107 671 q 147 683 132 683 l 185 683 z "},"":{"ha":433,"x_min":-121,"x_max":583,"o":"m 161 308 q 142 327 142 317 q 152 349 142 338 q 181 372 163 361 q 218 392 200 383 q 277 446 240 407 q 353 533 314 485 q 429 632 392 581 q 492 726 467 683 q 526 796 518 768 q 515 824 535 824 q 474 796 501 824 q 409 722 446 768 q 328 618 372 676 q 242 499 285 560 q 158 378 199 438 q 83 274 117 319 l -28 117 q -53 102 -36 106 q -87 102 -71 99 q -112 117 -103 106 q -111 150 -121 129 q -77 218 -101 175 q -24 310 -53 261 q 36 405 6 358 q 90 483 67 451 q 180 608 131 539 q 282 738 229 678 q 388 840 335 799 q 490 881 442 881 q 553 858 531 881 q 580 796 576 835 q 569 707 583 757 q 517 602 554 657 q 423 492 481 547 q 285 390 365 438 q 312 380 300 386 q 326 365 324 374 q 319 342 329 358 q 292 307 308 326 q 258 266 276 288 q 224 226 239 244 q 199 196 208 208 q 194 181 190 183 q 218 188 199 178 q 264 215 238 197 q 321 254 290 232 q 379 297 351 276 q 428 333 407 317 q 456 356 449 349 q 486 366 476 376 q 483 336 496 356 q 462 312 479 331 q 419 269 444 293 q 366 219 394 246 q 311 170 338 193 q 263 132 285 147 q 232 114 242 117 q 187 113 211 110 q 142 126 163 117 q 106 151 121 136 q 90 185 92 167 q 100 213 89 193 q 125 254 111 233 q 161 308 140 279 z "},"":{"ha":2008,"x_min":31,"x_max":2321,"o":"m 76 131 q 266 376 150 257 q 520 590 382 496 q 808 740 658 683 q 1100 797 958 797 q 1179 788 1144 797 q 1235 762 1214 779 q 1264 717 1257 744 q 1260 651 1271 689 q 1444 749 1343 704 q 1651 826 1544 794 q 1860 876 1757 858 q 2051 892 1963 893 q 2203 872 2139 892 q 2297 807 2268 851 q 2315 733 2321 771 q 2286 662 2308 694 q 2232 606 2264 629 q 2172 574 2200 582 q 2119 571 2143 565 q 2080 588 2094 576 q 2060 610 2065 599 q 2067 626 2056 622 q 2103 643 2081 632 q 2151 669 2126 654 q 2200 700 2176 683 q 2240 734 2224 717 q 2260 768 2256 751 q 2253 800 2265 785 q 2181 829 2233 825 q 2057 822 2129 833 q 1900 788 1985 811 q 1730 736 1815 765 q 1565 674 1644 707 q 1425 610 1485 640 q 1365 578 1400 597 q 1291 534 1329 558 q 1216 481 1253 510 q 1151 422 1179 453 q 1126 376 1139 399 q 1099 332 1113 354 q 1103 281 1093 308 q 1138 249 1113 257 q 1190 242 1163 242 q 1243 248 1218 243 q 1276 253 1268 253 q 1424 324 1353 296 q 1553 366 1494 351 q 1657 383 1613 381 q 1726 375 1701 385 q 1744 339 1763 363 q 1674 289 1725 315 q 1550 239 1624 263 q 1401 203 1476 215 q 1350 181 1383 199 q 1279 137 1317 163 q 1204 80 1242 111 q 1140 18 1167 49 q 1102 -40 1114 -12 q 1106 -86 1090 -67 q 1176 -105 1124 -111 q 1301 -74 1228 -99 q 1460 -8 1374 -49 q 1633 78 1547 33 q 1799 169 1719 124 q 1936 250 1878 214 q 1960 263 1950 258 q 1975 267 1971 268 q 1976 258 1979 267 q 1957 231 1972 249 q 1884 160 1938 207 q 1757 60 1831 113 q 1596 -42 1683 8 q 1420 -125 1508 -93 q 1249 -162 1332 -157 q 1101 -131 1165 -168 q 1038 -67 1057 -106 q 1029 17 1019 -28 q 1076 109 1039 61 q 1183 200 1114 157 q 1113 224 1146 207 q 1058 267 1079 242 q 999 174 1028 218 q 944 94 969 131 q 901 33 919 58 q 874 -3 882 7 q 840 -19 864 -15 q 792 -20 815 -24 q 756 -7 769 -17 q 756 19 743 3 q 798 80 775 47 q 844 147 821 113 q 888 216 867 182 q 926 281 910 250 q 727 240 824 263 q 538 188 631 217 q 352 124 444 160 q 165 47 260 89 q 140 -10 147 14 q 125 -53 132 -33 q 110 -59 122 -58 q 84 -56 99 -60 q 56 -44 69 -51 q 39 -28 43 -37 q 33 10 31 -11 q 42 55 35 32 q 59 98 49 78 q 76 131 69 118 m 968 361 q 1022 444 992 399 q 1078 533 1051 489 q 1125 619 1104 578 q 1151 693 1146 661 q 1144 744 1157 725 q 1090 764 1131 764 q 923 732 1008 764 q 752 647 838 700 q 585 524 667 593 q 431 382 504 456 q 297 235 358 308 q 192 103 236 163 q 361 181 264 140 q 565 256 458 221 q 776 319 671 292 q 968 361 881 347 z "},"":{"ha":1690,"x_min":51,"x_max":1996,"o":"m 801 867 q 924 903 868 897 q 1023 893 979 908 q 1099 843 1067 878 q 1147 761 1131 808 q 1401 847 1269 813 q 1647 890 1532 881 q 1849 880 1763 899 q 1972 807 1936 861 q 1990 733 1996 771 q 1961 662 1983 694 q 1907 606 1939 629 q 1847 574 1875 582 q 1794 571 1818 565 q 1755 588 1769 576 q 1735 610 1740 599 q 1742 626 1731 622 q 1778 643 1756 632 q 1826 669 1801 654 q 1875 700 1851 683 q 1915 734 1899 717 q 1935 768 1931 751 q 1928 800 1940 785 q 1864 828 1910 822 q 1755 826 1818 833 q 1616 799 1692 818 q 1462 756 1540 781 q 1307 701 1383 731 q 1167 642 1231 671 q 1148 504 1167 576 q 1089 357 1129 432 q 1074 331 1081 344 q 1058 307 1067 318 q 1172 350 1118 333 q 1269 374 1225 367 q 1347 382 1314 382 q 1401 375 1381 382 q 1419 339 1438 363 q 1349 289 1400 315 q 1225 239 1299 263 q 1076 203 1151 215 q 1025 181 1058 199 q 954 137 992 163 q 879 80 917 111 q 815 18 842 49 q 777 -40 789 -12 q 781 -86 765 -67 q 851 -105 799 -111 q 976 -74 903 -99 q 1135 -8 1049 -49 q 1308 78 1222 33 q 1474 169 1394 124 q 1611 250 1553 214 q 1635 263 1625 258 q 1650 267 1646 268 q 1651 258 1654 267 q 1632 231 1647 249 q 1559 160 1613 207 q 1432 60 1506 113 q 1271 -42 1358 8 q 1095 -125 1183 -93 q 924 -162 1007 -157 q 776 -131 840 -168 q 717 -73 736 -107 q 701 1 699 -39 q 468 -65 589 -51 q 352 -60 410 -72 q 244 -22 294 -49 q 152 47 193 6 q 85 142 111 88 q 65 279 51 208 q 122 418 78 350 q 235 548 167 486 q 381 660 303 610 q 538 745 458 710 q 686 794 618 781 q 724 826 697 810 q 801 867 750 843 m 710 315 q 721 432 696 374 q 799 544 746 490 q 931 649 853 599 q 1099 740 1008 699 q 1080 816 1099 790 q 1030 849 1061 842 q 958 846 999 856 q 876 818 918 836 l 833 799 q 872 789 857 794 q 885 776 886 783 q 865 760 885 768 q 803 747 846 753 q 695 720 747 739 q 595 676 643 701 q 503 622 547 651 q 419 564 458 593 q 336 491 382 536 q 249 393 290 446 q 177 284 207 340 q 142 175 147 228 q 163 78 136 122 q 261 7 189 35 q 402 -15 329 -19 q 548 19 475 -10 q 691 97 621 49 q 824 208 761 146 q 749 251 781 224 q 710 315 717 278 m 857 242 q 988 414 932 322 q 1072 594 1043 506 q 970 535 1028 571 q 864 458 913 500 q 788 369 815 415 q 778 281 760 324 q 810 250 788 258 q 857 242 832 242 z "},"":{"ha":515,"x_min":-26,"x_max":549,"o":"m 517 339 q 546 351 543 358 q 536 325 549 344 q 501 276 524 304 q 450 224 478 249 q 392 179 422 199 q 335 156 361 160 q 276 169 314 151 q 210 218 239 188 q 169 182 192 199 q 115 157 146 165 q 74 157 99 151 q 27 178 50 163 q -11 217 4 193 q -22 269 -26 240 q -6 327 -19 297 q 27 382 7 357 q 74 423 47 407 q 131 439 100 439 q 166 429 150 439 q 185 403 182 419 q 218 386 206 399 q 268 423 242 410 q 311 436 294 436 q 340 429 325 436 q 369 411 356 422 q 390 385 382 400 q 397 356 399 371 q 376 320 394 340 q 335 281 357 300 q 276 235 310 258 q 374 254 307 226 q 517 339 442 282 m 75 210 q 104 210 82 199 q 147 244 126 221 q 121 274 132 256 q 106 318 110 293 q 72 255 82 286 q 75 210 63 224 m 353 365 q 328 359 347 369 q 289 332 308 349 q 256 295 269 315 q 249 261 242 275 q 276 281 257 265 q 313 314 294 296 q 344 347 332 332 q 353 365 357 361 z "},"":{"ha":519,"x_min":-39,"x_max":553,"o":"m 519 339 q 550 351 547 358 q 540 325 553 344 q 505 276 528 304 q 453 224 482 249 q 395 179 425 199 q 339 156 365 160 q 309 158 326 153 q 273 173 292 163 q 235 199 254 183 q 201 232 215 214 q 178 212 192 224 q 152 190 165 200 q 127 171 139 179 q 108 160 115 163 q 71 161 93 157 q 27 177 49 165 q -11 206 6 189 q -33 244 -28 222 q -22 301 -39 268 q 21 363 -4 333 q 73 413 46 392 q 115 436 100 435 q 140 434 125 438 q 169 423 154 431 q 195 406 183 415 q 211 386 207 396 q 215 381 211 385 q 267 421 239 406 q 315 436 296 436 q 344 429 328 436 q 373 411 360 422 q 394 385 386 400 q 400 356 401 371 q 378 320 397 340 q 338 281 360 300 q 281 235 313 258 q 320 235 294 231 q 377 254 346 240 q 445 290 408 268 q 519 339 482 311 m 58 210 q 97 219 74 201 q 140 263 119 236 q 176 317 161 289 q 190 358 190 344 q 171 365 185 371 q 140 344 157 360 q 106 307 124 329 q 76 265 89 285 q 58 228 64 244 q 58 210 51 213 m 357 365 q 331 359 351 369 q 292 332 311 349 q 258 295 272 315 q 251 261 244 275 q 278 281 260 265 q 316 314 297 296 q 348 347 335 332 q 357 365 361 361 z "},"":{"ha":407,"x_min":29,"x_max":357,"o":"m 83 324 q 138 324 101 324 q 215 324 175 324 q 291 326 256 325 q 342 328 326 326 q 354 324 351 329 q 352 312 357 319 q 337 297 347 304 q 311 289 326 290 q 249 283 289 285 q 166 281 208 282 q 88 281 124 281 q 40 282 53 282 q 29 288 29 282 q 36 303 29 294 q 56 317 43 311 q 83 324 68 324 z "},"":{"ha":551,"x_min":29,"x_max":482,"o":"m 83 324 q 125 324 94 324 q 195 324 156 324 q 278 324 235 324 q 360 325 322 325 q 428 326 399 325 q 467 328 457 326 q 479 324 476 329 q 477 312 482 319 q 462 297 472 304 q 436 289 451 290 q 389 285 422 286 q 315 283 356 283 q 228 281 274 282 q 144 281 183 281 q 77 282 106 282 q 40 282 49 282 q 29 288 29 282 q 36 303 29 294 q 56 317 43 311 q 83 324 68 324 z "},"":{"ha":407,"x_min":29,"x_max":357,"o":"m 83 324 q 138 324 101 324 q 215 324 175 324 q 291 326 256 325 q 342 328 326 326 q 354 324 351 329 q 352 312 357 319 q 337 297 347 304 q 311 289 326 290 q 249 283 289 285 q 166 281 208 282 q 88 281 124 281 q 40 282 53 282 q 29 288 29 282 q 36 303 29 294 q 56 317 43 311 q 83 324 68 324 z "},"":{"ha":315,"x_min":38,"x_max":376,"o":"m 86 542 q 97 544 94 544 q 161 585 124 558 q 233 637 199 611 q 292 684 268 663 q 314 710 315 706 q 287 711 311 718 q 231 688 263 704 q 166 649 199 672 q 115 601 133 626 q 103 605 111 596 q 92 631 96 614 q 94 673 89 649 q 118 722 99 697 q 153 751 131 739 q 200 771 176 763 q 244 783 224 779 q 275 785 265 786 q 306 769 288 782 q 340 739 324 757 q 367 701 357 721 q 372 667 376 682 q 336 615 365 642 q 268 564 307 588 q 187 521 229 540 q 111 492 144 501 q 221 487 179 468 q 290 550 263 506 q 309 551 293 556 q 338 534 325 546 q 356 505 351 522 q 339 467 360 488 q 265 428 301 429 q 192 440 228 428 q 123 464 157 451 q 58 468 89 476 q 42 472 46 464 q 41 493 38 481 q 56 519 44 506 q 86 542 67 533 z "},"":{"ha":315,"x_min":94,"x_max":407,"o":"m 250 625 q 318 659 289 643 q 344 682 347 675 q 321 685 342 690 q 271 667 300 681 q 212 634 242 654 q 164 590 182 614 q 149 590 160 583 q 131 610 138 596 q 126 647 125 625 q 149 693 128 668 q 185 722 163 710 q 231 742 207 733 q 274 754 254 750 q 306 757 294 758 q 336 742 318 754 q 371 711 354 729 q 397 674 388 693 q 403 639 407 654 q 375 604 396 615 q 319 576 354 593 q 350 549 340 561 q 365 522 360 536 q 351 487 369 507 q 308 449 333 467 q 257 419 283 431 q 217 407 231 407 q 169 422 192 407 q 131 456 147 436 q 104 497 114 475 q 94 533 94 518 q 99 563 96 554 q 108 571 103 571 q 117 566 113 571 q 124 556 121 561 q 157 494 138 507 q 195 488 176 482 q 230 509 214 494 q 251 531 246 524 q 259 538 254 533 q 266 548 264 542 q 265 563 268 554 q 251 583 263 572 q 240 592 247 588 q 231 601 233 596 q 231 612 228 606 q 250 625 233 618 z "},"":{"ha":275,"x_min":132,"x_max":410,"o":"m 407 693 q 389 658 403 681 q 356 609 375 636 q 317 553 338 582 q 276 500 296 525 q 240 457 256 475 q 215 432 224 439 q 190 425 207 425 q 160 430 174 425 q 139 444 146 435 q 143 467 132 453 q 157 486 147 471 q 181 523 167 501 q 214 570 196 544 q 251 622 232 596 q 218 606 235 610 q 189 605 201 603 q 172 613 176 607 q 176 626 167 619 q 194 637 182 629 q 223 655 207 644 q 256 679 239 665 q 290 710 274 693 q 317 736 307 732 q 340 734 324 738 q 372 724 356 731 q 399 710 388 718 q 407 693 410 701 z "},"":{"ha":347,"x_min":139,"x_max":425,"o":"m 294 714 q 331 704 315 714 q 350 678 346 694 q 387 664 368 674 q 415 635 406 654 q 422 588 425 617 q 390 515 418 558 q 345 465 372 488 q 281 432 318 443 q 239 432 264 426 q 192 453 214 438 q 154 492 169 468 q 143 544 139 515 q 159 602 146 572 q 192 657 172 632 q 238 698 211 682 q 294 714 264 714 m 240 485 q 269 485 247 474 q 311 519 292 496 q 286 549 297 531 q 269 593 275 568 q 237 530 246 561 q 240 485 228 499 z "},"":{"ha":675,"x_min":4,"x_max":607,"o":"m 606 301 q 570 242 599 282 q 508 158 542 201 q 442 78 474 114 q 397 32 410 42 q 372 24 389 25 q 342 28 356 24 q 322 41 329 32 q 326 65 315 50 l 368 132 q 330 114 347 119 q 301 111 313 108 q 276 133 286 118 q 261 167 265 149 q 258 202 257 185 q 264 232 258 219 q 290 284 276 258 q 335 339 303 310 q 365 347 344 347 q 404 340 385 346 q 436 325 424 335 q 442 307 449 315 q 403 264 426 288 q 360 219 381 240 q 326 182 340 199 q 314 161 313 165 q 327 160 315 156 q 356 175 339 165 q 392 198 372 185 q 431 222 411 211 q 484 299 458 264 q 522 344 510 335 q 542 347 528 350 q 572 336 557 343 q 597 319 586 329 q 606 301 607 310 m 347 558 q 314 500 340 539 q 256 419 288 461 q 197 342 225 378 q 156 297 168 307 q 131 290 147 290 q 100 294 114 290 q 79 308 86 299 q 83 332 72 318 q 97 351 88 336 q 122 388 107 367 q 154 435 136 410 q 192 486 172 461 q 158 470 175 474 q 129 469 142 467 q 112 478 117 472 q 117 492 107 485 q 134 502 122 494 q 162 520 146 510 q 196 544 178 531 q 231 575 214 558 l 250 599 l 251 599 l 257 601 q 280 599 264 603 q 311 589 296 596 q 338 574 326 582 q 347 558 349 565 m 15 82 q 65 137 29 97 q 147 230 100 176 q 246 343 193 283 q 347 457 299 403 q 433 555 396 511 q 489 618 471 599 q 519 635 506 636 q 541 625 533 635 q 549 601 549 615 q 539 581 550 588 q 484 534 522 571 q 397 447 446 497 q 292 337 347 396 q 188 224 238 278 q 100 127 139 169 q 44 65 61 85 q 24 50 33 53 q 10 51 15 47 q 5 64 4 56 q 15 82 6 72 z "},"":{"ha":694,"x_min":47,"x_max":629,"o":"m 350 153 q 415 192 376 167 q 487 244 453 218 q 544 290 521 269 q 567 317 568 311 q 540 318 564 325 q 483 295 515 311 q 419 256 451 279 q 368 208 386 233 q 356 211 364 203 q 346 238 349 219 q 347 279 343 256 q 372 328 351 303 q 407 357 385 344 q 453 378 429 369 q 497 390 476 386 q 528 392 518 393 q 558 376 540 389 q 593 346 576 364 q 619 308 610 328 q 625 274 629 289 q 589 222 618 249 q 521 171 560 194 q 440 128 482 147 q 365 100 397 110 q 474 94 433 76 q 543 157 515 113 q 562 156 546 161 q 592 140 578 151 q 609 112 606 129 q 592 74 613 94 q 517 35 554 36 q 445 47 481 35 q 376 71 410 58 q 311 75 342 83 q 294 79 299 71 q 294 100 290 88 q 309 126 297 113 q 340 149 321 140 l 350 153 m 360 549 q 327 490 353 529 q 270 409 301 451 q 210 331 239 367 q 168 286 181 296 q 143 279 160 279 q 113 284 126 279 q 92 299 99 289 q 97 322 86 308 q 111 342 101 326 q 135 378 121 357 q 168 426 150 400 q 206 476 186 451 q 172 460 189 464 q 142 460 154 457 q 125 469 129 463 q 131 482 121 475 q 147 492 135 485 q 176 510 160 500 q 209 535 192 521 q 243 565 226 549 l 264 589 l 265 589 l 269 592 q 292 590 276 593 q 324 579 308 586 q 351 564 340 572 q 360 549 363 556 m 58 82 q 108 137 72 97 q 190 230 143 176 q 290 343 238 283 q 391 457 343 403 q 477 555 439 511 q 532 618 515 599 q 563 635 549 636 q 584 625 576 635 q 592 601 592 615 q 582 581 593 588 q 527 534 565 571 q 440 447 489 497 q 336 337 390 396 q 233 224 282 278 q 144 127 183 169 q 89 65 106 85 q 68 50 78 53 q 53 51 58 47 q 48 64 47 56 q 58 82 49 72 z "},"":{"ha":739,"x_min":21,"x_max":694,"o":"m 692 326 q 672 291 688 314 q 637 240 657 268 q 594 183 617 213 q 549 127 571 153 q 510 83 528 101 q 483 57 492 64 q 458 49 475 50 q 428 53 442 49 q 409 66 415 57 q 414 90 403 75 l 456 157 q 416 139 433 144 q 389 136 399 133 q 363 158 374 143 q 348 192 353 174 q 344 227 343 210 q 350 257 344 244 q 376 309 363 283 q 422 364 390 335 q 452 372 432 372 q 492 365 472 371 q 523 350 511 360 q 528 332 535 340 q 490 289 513 313 q 447 244 468 265 q 413 207 426 224 q 400 186 399 190 q 413 185 401 181 q 442 200 425 190 q 478 223 458 210 q 517 247 497 236 q 571 324 546 289 q 608 369 596 360 q 628 372 614 375 q 658 361 643 368 q 684 344 674 354 q 692 326 694 335 m 176 519 q 244 553 215 538 q 272 576 274 569 q 248 581 269 585 q 197 563 226 576 q 138 529 168 550 q 90 485 108 508 q 76 484 86 478 q 58 506 65 490 q 53 542 51 521 q 75 589 56 564 q 111 617 89 606 q 157 638 133 629 q 201 649 181 646 q 232 651 222 653 q 263 636 244 649 q 297 606 281 624 q 324 568 314 588 q 331 533 335 549 q 302 499 324 510 q 247 472 281 488 q 276 444 267 457 q 292 417 286 431 q 278 381 296 401 q 235 343 260 361 q 183 313 210 325 q 143 301 157 301 q 96 316 118 301 q 57 351 74 331 q 31 392 40 371 q 22 428 21 414 q 26 457 22 449 q 35 465 31 465 q 43 460 39 465 q 50 450 47 456 q 83 390 64 401 q 122 383 103 378 q 157 403 142 389 q 178 425 172 418 q 185 433 181 428 q 192 444 190 438 q 192 458 194 450 q 178 478 189 467 q 167 486 174 482 q 157 495 160 490 q 157 506 154 500 q 176 519 160 513 m 69 82 q 119 137 83 97 q 201 230 154 176 q 301 343 249 283 q 402 457 354 403 q 488 555 450 511 q 543 618 526 599 q 574 635 560 636 q 596 625 588 635 q 604 601 604 615 q 593 581 604 588 q 538 534 576 571 q 451 447 500 497 q 347 337 401 396 q 244 224 293 278 q 156 127 194 169 q 100 65 117 85 q 79 50 89 53 q 64 51 69 47 q 59 64 58 56 q 69 82 60 72 z "},"":{"ha":236,"x_min":44,"x_max":190,"o":"m 114 417 q 132 411 119 417 q 157 397 144 406 q 179 379 169 389 q 189 361 189 369 q 182 327 190 343 q 160 300 174 311 q 133 283 147 289 q 111 278 119 276 q 92 286 104 279 q 70 302 81 293 q 52 321 60 311 q 44 339 44 331 q 51 362 44 349 q 67 387 57 375 q 90 408 78 399 q 114 417 103 417 z "},"":{"ha":544,"x_min":119,"x_max":324,"o":"m 215 460 q 240 451 224 460 q 275 432 257 443 q 306 407 293 421 q 319 383 319 393 q 312 335 324 358 q 282 297 300 313 q 244 272 264 281 q 214 267 225 264 q 187 278 203 269 q 156 299 171 288 q 130 325 140 311 q 119 350 119 339 q 128 381 119 363 q 151 417 138 400 q 183 447 165 435 q 215 460 200 460 z "},"":{"ha":481,"x_min":-164,"x_max":611,"o":"m 610 867 q 592 819 611 849 q 526 739 574 790 q 398 607 479 688 q 194 406 317 526 q 75 258 124 333 q 106 265 85 257 q 154 286 128 274 q 206 313 181 299 q 249 339 232 326 q 285 410 264 379 q 324 439 307 442 q 344 431 333 436 q 365 420 356 426 q 379 406 374 414 q 383 386 385 397 q 371 353 382 375 q 348 310 360 332 q 328 269 336 288 q 326 247 321 251 q 346 251 331 244 q 383 269 361 257 q 431 300 406 282 q 482 340 457 318 q 523 356 510 365 q 511 315 536 346 q 471 272 494 294 q 424 228 447 249 q 379 194 400 208 q 347 176 358 179 q 312 182 332 175 q 273 203 292 189 q 242 237 254 217 q 233 282 231 257 l 233 283 q 138 203 172 229 q 89 175 104 178 q 61 180 74 172 q 39 199 49 188 q -32 62 -8 119 q -65 -6 -56 4 q -87 -5 -72 -11 q -119 14 -103 1 q -148 42 -135 26 q -164 72 -161 58 q -142 117 -164 78 q -81 217 -119 157 q 9 354 -42 278 q 115 509 60 431 q 227 663 171 588 q 333 799 283 739 q 423 898 383 860 q 485 940 463 936 q 535 939 513 946 q 574 919 558 932 q 599 892 590 907 q 610 867 608 876 m 543 864 q 517 851 538 868 q 465 801 496 833 q 397 724 435 768 q 320 631 360 681 q 242 531 281 582 q 169 433 203 479 q 301 567 232 494 q 428 702 371 639 q 519 810 485 765 q 543 864 553 856 m 461 476 q 441 481 453 476 q 419 492 429 485 q 402 508 408 499 q 397 526 396 517 q 405 549 399 535 q 419 576 411 563 q 438 599 428 589 q 458 611 449 608 q 482 608 468 613 q 508 594 496 603 q 528 574 521 585 q 535 557 536 564 q 526 535 535 549 q 507 510 518 522 q 483 488 496 497 q 461 476 469 478 z "},"":{"ha":525,"x_min":-164,"x_max":917,"o":"m 532 343 q 571 354 564 363 q 556 324 578 346 q 506 278 532 301 q 453 235 479 256 q 402 201 426 215 q 357 183 378 188 q 315 183 339 181 q 271 194 292 185 q 236 222 250 204 q 222 267 222 239 l 222 274 q 135 201 167 225 q 89 175 103 178 q 61 180 74 172 q 39 199 49 188 q -32 62 -8 119 q -65 -6 -56 4 q -87 -5 -72 -11 q -119 14 -103 1 q -148 42 -135 26 q -164 72 -161 58 q -144 117 -164 78 q -88 217 -124 157 q -6 354 -53 278 q 91 509 40 431 q 194 663 142 588 q 292 799 246 739 q 375 898 338 860 q 435 940 413 936 q 485 939 463 946 q 524 919 508 932 q 549 892 540 907 q 560 867 558 876 q 551 819 561 849 q 502 739 540 790 q 390 607 464 688 q 194 406 317 526 q 75 258 124 333 q 108 266 85 257 q 158 288 131 275 q 211 316 185 301 q 253 343 238 331 q 313 443 276 386 q 395 563 350 500 q 490 688 440 625 q 590 802 540 750 q 685 892 639 854 q 769 942 732 929 q 810 946 785 947 q 858 937 835 944 q 899 915 882 929 q 917 881 917 900 q 890 819 917 858 q 817 733 863 781 q 712 630 771 685 q 590 521 653 575 q 465 417 528 467 q 351 331 403 368 q 325 292 335 310 q 312 262 317 276 q 315 242 307 247 q 349 250 319 238 q 413 281 378 263 q 483 317 449 299 q 532 343 517 336 m 844 874 q 817 865 839 881 q 765 819 796 850 q 695 748 733 789 q 618 664 657 707 q 414 426 526 561 q 473 475 432 440 q 565 556 514 510 q 668 653 615 603 q 763 749 721 704 q 829 828 806 794 q 844 874 853 863 m 493 864 q 470 851 488 868 q 428 801 453 833 q 372 724 403 768 q 306 631 340 681 q 238 531 272 582 q 169 433 203 479 q 294 567 232 494 q 403 702 356 639 q 477 810 451 765 q 493 864 503 856 z "},"":{"ha":875,"x_min":22,"x_max":1135,"o":"m 301 181 q 537 201 417 203 q 767 175 657 200 q 967 103 876 150 q 1111 -10 1057 57 q 1133 -54 1135 -39 q 1111 -47 1132 -69 q 940 78 1046 29 q 708 143 835 128 q 444 135 582 158 q 178 44 307 113 q 144 25 161 35 q 109 10 126 15 q 75 8 92 6 q 42 26 58 11 q 24 48 26 39 q 27 65 22 57 q 43 82 32 74 q 67 99 54 90 q 165 197 115 143 q 267 310 215 251 q 249 305 256 307 q 239 303 242 303 q 226 307 228 300 q 229 323 225 314 q 244 342 233 332 q 268 356 254 351 l 317 368 q 453 520 383 444 q 599 660 522 596 q 760 772 676 724 q 940 840 844 819 q 1031 846 990 850 q 1096 832 1071 842 q 1128 813 1121 822 q 1117 806 1135 804 q 949 775 1029 807 q 797 690 869 743 q 658 569 724 638 q 531 432 592 501 q 594 452 567 443 q 632 465 622 461 q 645 465 642 469 q 647 451 649 460 q 636 433 644 443 q 614 418 628 424 q 561 399 599 411 q 478 372 524 386 q 387 269 431 318 q 301 181 343 219 z "},"":{"ha":276,"x_min":-26,"x_max":664,"o":"m 283 343 q 322 354 315 363 q 307 324 329 346 q 257 278 283 301 q 205 235 231 256 q 154 201 179 215 q 108 183 129 188 q 67 183 90 181 q 22 194 43 185 q -12 222 1 204 q -26 267 -26 239 q -7 322 -26 281 q 44 418 13 363 q 118 539 76 474 q 207 668 160 604 q 93 642 140 653 q 39 628 46 631 q 26 632 28 625 q 29 648 25 639 q 44 667 33 657 q 68 681 54 676 q 131 696 79 683 q 250 725 182 708 q 374 864 313 804 q 489 942 436 924 q 528 946 503 947 q 576 937 553 944 q 617 915 600 929 q 635 881 635 900 q 607 814 635 857 l 647 826 q 660 826 657 831 q 661 814 664 822 q 650 796 658 806 q 628 781 642 786 q 565 760 613 772 q 469 652 525 710 q 350 536 413 594 q 223 424 288 478 q 103 331 158 371 q 78 292 88 310 q 65 262 69 276 q 67 242 60 247 q 100 250 71 238 q 165 281 129 263 q 234 317 200 299 q 283 343 268 336 m 397 715 q 314 615 356 667 q 239 522 272 564 q 165 426 200 474 q 219 472 182 439 q 301 549 256 506 q 394 642 346 593 q 481 736 442 692 l 397 715 m 564 874 q 524 853 556 882 q 447 774 492 824 l 526 793 q 560 843 549 822 q 564 874 571 864 z "},"":{"ha":925,"x_min":-128,"x_max":1468,"o":"m 1458 932 q 1467 924 1465 936 q 1461 891 1468 911 q 1439 849 1454 871 q 1399 810 1424 826 q 1319 773 1376 796 q 1194 731 1261 750 q 1073 667 1144 707 q 917 578 1001 628 q 739 470 832 528 q 551 351 646 413 q 364 226 456 289 q 192 106 272 164 q 435 169 313 140 q 683 208 558 197 q 732 212 707 210 q 781 213 757 214 q 827 204 804 211 q 869 182 850 197 q 889 161 888 168 q 882 152 890 154 q 858 150 874 150 q 826 150 843 150 q 606 124 726 150 q 360 56 485 97 q 116 -37 235 14 q -99 -139 -3 -89 q -126 -130 -124 -151 q -106 -73 -128 -108 q -38 3 -85 -37 q 82 68 8 43 q 304 240 190 160 q 537 396 418 321 q 776 543 656 471 q 1019 689 897 615 q 799 654 904 671 q 592 616 694 638 q 387 565 490 594 q 169 490 283 535 q 160 501 163 488 q 163 533 158 514 q 182 574 168 553 q 224 606 196 594 q 422 667 319 643 q 630 710 524 692 q 844 744 736 728 q 1056 785 951 761 q 1263 843 1161 808 q 1458 932 1364 878 m 1050 935 q 1025 906 1047 925 q 974 866 1003 886 q 917 831 944 846 q 881 817 890 817 q 848 831 864 817 q 820 864 832 844 q 801 904 808 883 q 797 939 794 925 q 805 951 797 946 q 822 958 813 956 q 842 961 832 961 q 858 957 853 961 q 863 942 864 951 q 857 922 861 933 q 849 899 853 911 q 847 875 844 888 q 877 900 860 885 q 911 929 894 915 q 943 954 928 943 q 968 968 958 965 q 992 969 978 971 q 1020 963 1007 968 q 1042 951 1033 958 q 1050 935 1051 944 z "},"":{"ha":351,"x_min":-94,"x_max":400,"o":"m 11 399 q 61 417 22 413 q 144 419 100 421 q 224 412 188 418 q 268 399 261 406 q 278 366 283 385 q 250 335 274 347 q 211 315 236 328 q 161 286 186 301 q 99 250 132 269 q 110 238 104 243 q 122 228 115 232 q 135 222 128 224 q 176 231 146 219 q 241 259 207 243 q 307 292 275 275 q 351 317 339 308 q 390 322 381 332 q 381 294 400 311 q 338 261 369 286 q 270 209 307 236 q 199 161 233 182 q 151 140 165 140 q 125 150 138 140 q 101 173 113 160 q 78 199 89 186 q 57 218 67 211 q 33 197 46 210 q 8 172 21 183 q -17 151 -4 160 q -43 140 -31 142 q -65 146 -56 138 q -82 167 -75 154 q -92 193 -89 179 q -92 215 -94 207 q -65 244 -86 228 q -17 272 -43 260 q 32 290 8 285 q 65 285 56 294 l 157 335 q 101 319 126 326 q 58 306 79 313 q 25 293 36 299 q 6 300 13 288 q -1 331 0 313 q 1 370 -1 350 q 11 399 4 390 m 383 618 q 358 589 381 608 q 307 549 336 569 q 251 515 278 529 q 214 500 224 500 q 181 514 197 500 q 153 547 165 528 q 135 588 142 567 q 131 622 128 608 q 138 634 131 629 q 156 642 146 639 q 176 644 165 644 q 192 640 186 644 q 196 626 197 635 q 190 606 194 617 q 182 583 186 594 q 181 558 178 571 q 210 583 193 568 q 244 613 228 599 q 276 638 261 626 q 301 651 292 649 q 326 653 311 654 q 353 647 340 651 q 376 635 367 642 q 383 618 385 628 z "},"":{"ha":994,"x_min":-3,"x_max":1292,"o":"m 424 753 q 540 806 468 775 q 695 863 611 836 q 869 908 779 889 q 1038 926 958 926 q 1182 901 1118 926 q 1278 817 1246 876 q 1283 766 1292 790 q 1252 720 1275 742 q 1197 681 1229 699 q 1132 651 1165 664 q 1069 631 1099 638 q 1025 624 1040 624 q 965 631 990 622 q 928 652 940 640 q 918 675 915 664 q 942 689 921 686 q 988 699 958 692 q 1052 718 1018 707 q 1119 744 1086 729 q 1177 773 1153 758 q 1211 803 1201 788 q 1208 832 1221 818 q 1118 863 1179 861 q 976 847 1057 865 q 803 792 896 828 q 615 711 710 757 q 433 613 521 665 q 274 508 344 561 q 157 406 203 456 q 103 317 111 356 q 117 286 97 290 q 164 287 136 282 q 220 301 192 292 q 261 314 249 311 q 374 345 315 328 q 493 377 433 363 q 612 402 553 392 q 728 411 671 413 q 801 391 761 410 q 870 342 840 372 q 911 272 900 311 q 899 189 922 232 q 817 97 872 143 q 690 11 763 51 q 536 -60 618 -29 q 374 -109 454 -92 q 224 -127 294 -126 q 103 -106 153 -128 q 41 -55 67 -89 q 7 17 15 -21 q 13 91 -1 56 q 68 147 26 126 q 99 147 82 153 q 127 131 115 142 q 142 109 139 121 q 135 90 146 97 q 69 35 85 58 q 64 -4 54 11 q 103 -27 74 -19 q 171 -35 132 -35 q 253 -29 210 -35 q 335 -11 296 -24 q 567 81 453 25 q 786 233 682 138 q 835 302 838 281 q 795 326 833 324 q 692 318 757 329 q 552 291 626 307 q 403 258 478 275 q 272 233 328 242 q 215 230 246 229 q 153 235 183 231 q 97 251 124 240 q 51 278 69 261 q 11 388 -3 326 q 83 513 25 449 q 231 639 140 576 q 424 753 322 701 m 860 1025 q 835 996 858 1015 q 784 956 813 976 q 728 922 756 936 q 690 907 700 907 q 658 921 674 907 q 631 954 643 935 q 611 994 618 974 q 607 1028 604 1014 q 615 1040 607 1035 q 632 1049 622 1046 q 652 1051 642 1051 q 668 1047 663 1051 q 672 1033 674 1042 q 667 1013 671 1024 q 658 990 663 1001 q 657 965 654 978 q 687 990 669 975 q 721 1019 704 1006 q 753 1044 738 1033 q 778 1058 768 1056 q 802 1060 788 1061 q 830 1053 817 1058 q 852 1042 843 1049 q 860 1025 861 1035 z "},"":{"ha":278,"x_min":-39,"x_max":294,"o":"m 74 343 q 128 344 103 347 q 174 332 154 340 q 206 310 194 324 q 218 278 218 296 q 206 235 218 260 q 176 186 194 210 q 133 143 157 163 q 86 118 108 124 q 40 119 63 113 q 1 140 18 126 q -28 172 -17 154 q -39 203 -39 189 q -31 225 -39 213 q -11 249 -24 238 q 17 272 1 261 q 47 289 32 282 q 75 290 71 300 q 65 264 79 279 q 52 249 61 260 q 34 228 43 239 q 19 208 25 218 q 17 194 13 199 q 41 201 24 189 q 76 231 58 213 q 106 269 93 250 q 118 297 119 288 q 99 306 115 307 q 61 305 82 306 q 19 308 40 304 q -14 328 -3 311 q -24 369 -26 346 q -11 413 -22 392 q 17 448 0 433 q 51 465 35 463 q 75 461 63 467 q 98 447 88 456 q 115 426 108 438 q 122 406 122 415 q 104 374 122 386 q 74 343 86 361 m 293 618 q 269 589 292 608 q 217 549 246 569 q 161 515 189 529 q 124 500 133 500 q 92 514 107 500 q 64 547 76 528 q 44 588 51 567 q 40 622 38 608 q 48 634 40 629 q 65 642 56 639 q 85 644 75 644 q 101 640 96 644 q 106 626 107 635 q 100 606 104 617 q 92 583 96 594 q 90 558 88 571 q 120 583 103 568 q 154 613 138 599 q 186 638 171 626 q 211 651 201 649 q 235 653 221 654 q 263 647 250 651 q 285 635 276 642 q 293 618 294 628 z "},"":{"ha":1364,"x_min":79,"x_max":1128,"o":"m 674 357 q 717 378 686 357 q 791 431 749 399 q 881 503 833 464 q 971 581 928 543 q 1049 651 1014 619 q 1100 699 1083 682 q 1112 700 1106 703 q 1122 690 1118 697 q 1127 673 1126 682 q 1124 656 1128 664 q 1075 574 1103 619 q 1018 483 1047 529 q 961 393 989 436 q 913 318 933 350 q 879 269 892 286 q 869 261 867 253 q 863 265 868 260 q 853 279 857 269 q 850 303 850 289 q 858 336 850 318 q 888 385 868 358 q 933 440 908 411 q 982 501 957 469 q 1026 561 1007 532 q 887 450 967 508 q 724 343 807 392 q 683 331 699 329 q 660 344 668 333 q 648 370 651 354 q 644 400 644 386 q 649 490 644 446 q 657 583 653 535 q 622 528 644 561 q 576 459 600 494 q 531 389 551 424 q 500 331 510 354 q 491 328 497 326 q 480 340 485 331 q 475 367 475 350 q 485 407 475 383 q 513 460 496 429 q 550 521 531 490 q 588 578 569 551 q 622 624 607 606 q 625 628 622 626 l 626 628 q 638 640 633 636 q 644 644 642 643 q 658 639 653 649 l 660 639 l 660 686 q 474 676 604 697 q 308 634 393 664 q 161 551 224 604 q 121 506 129 526 q 122 475 113 486 q 121 470 125 471 q 110 472 117 469 q 96 481 103 475 q 86 494 89 486 q 89 542 79 519 q 119 583 99 564 q 165 620 139 603 q 219 651 192 638 q 323 691 267 675 q 438 713 379 707 q 553 716 496 719 q 660 700 610 713 l 660 725 q 668 733 660 732 q 686 729 676 735 q 704 711 696 724 q 714 678 713 699 l 714 676 q 729 644 731 661 q 706 614 728 626 q 689 532 699 576 q 672 449 679 488 q 665 383 665 410 q 674 357 664 357 m 250 310 q 276 399 257 350 q 318 494 294 449 q 368 577 342 540 q 417 628 394 614 q 436 636 425 633 q 457 639 447 639 q 472 637 467 639 q 475 633 476 635 q 422 568 453 610 q 360 475 390 526 q 308 369 331 424 q 281 265 286 314 q 273 257 279 257 q 261 263 267 257 q 251 281 256 269 q 250 310 247 293 z "},"^":{"ha":542,"x_min":154,"x_max":411,"o":"m 157 468 q 181 497 158 478 q 233 537 204 517 q 288 572 261 557 q 326 586 315 586 q 358 572 343 586 q 386 539 374 558 q 405 499 399 519 q 410 465 411 479 q 402 453 410 458 q 385 444 394 447 q 365 442 375 442 q 349 447 354 443 q 344 460 342 451 q 350 481 346 469 q 358 504 354 492 q 360 528 361 517 q 330 502 347 517 q 296 474 313 488 q 264 449 279 460 q 239 435 249 438 q 215 433 229 432 q 186 440 200 435 q 163 451 172 444 q 157 468 154 458 z "},"_":{"ha":358,"x_min":-28,"x_max":300,"o":"m 26 142 q 81 142 44 142 q 159 142 118 142 q 235 144 200 143 q 285 147 271 144 q 298 143 296 149 q 296 131 300 138 q 281 117 292 124 q 256 107 269 110 q 193 101 233 103 q 110 100 153 100 q 31 100 67 100 q -17 100 -4 100 q -28 106 -28 100 q -21 121 -28 113 q -1 135 -14 129 q 26 142 11 142 z "},"":{"ha":244,"x_min":-22,"x_max":146,"o":"m 19 94 q -8 92 6 86 q -19 118 -22 99 q -8 153 -18 126 q 16 210 3 181 q 44 264 29 240 q 68 290 58 288 q 92 286 78 292 q 118 272 106 281 q 138 253 131 263 q 144 235 146 243 q 128 206 144 226 q 91 162 113 185 q 49 119 69 139 q 19 94 28 100 z "},"":{"ha":1014,"x_min":21,"x_max":1529,"o":"m 51 103 q 36 246 21 172 q 100 394 51 319 l 74 394 q 63 401 63 394 q 69 415 63 407 q 89 430 76 424 q 117 436 101 436 l 128 436 q 138 447 133 442 q 147 460 142 453 l 118 460 q 107 466 107 460 q 115 481 107 472 q 134 495 122 489 q 161 501 146 501 l 185 501 q 376 663 265 586 q 612 804 488 740 q 865 914 736 868 q 1109 981 993 960 q 1320 993 1225 1001 q 1474 942 1415 985 q 1526 865 1522 904 q 1500 786 1529 825 q 1417 710 1471 747 q 1298 639 1364 672 q 1162 576 1232 606 q 1030 526 1092 547 q 922 492 968 504 q 860 476 876 479 q 833 488 846 475 q 812 516 819 500 q 806 547 804 532 q 824 565 807 563 q 853 574 821 565 q 937 600 885 583 q 1055 639 989 617 q 1188 688 1121 661 q 1314 742 1254 714 q 1413 800 1374 771 q 1466 858 1453 829 q 1451 911 1479 886 q 1349 944 1418 943 q 1190 922 1281 944 q 993 858 1099 900 q 779 760 888 817 q 566 638 671 704 q 374 501 461 571 q 467 503 425 503 q 522 507 510 504 q 535 503 532 508 q 533 490 538 497 q 517 476 528 483 q 492 467 507 469 q 424 461 472 463 q 322 458 376 460 q 308 447 314 453 q 294 436 301 442 q 409 438 357 436 q 476 442 461 439 q 490 438 488 443 q 488 425 492 432 q 472 411 483 418 q 447 401 461 404 q 368 397 424 399 q 250 393 313 394 q 170 302 204 347 q 119 215 136 257 q 104 135 103 172 q 131 65 106 97 q 196 33 151 36 q 297 43 240 29 q 416 83 353 57 q 538 140 479 110 q 648 203 597 171 q 731 260 699 235 q 741 264 739 267 q 741 252 743 261 q 733 229 739 243 q 718 201 726 215 q 643 115 693 160 q 531 32 593 69 q 399 -28 468 -6 q 263 -49 329 -51 q 142 -11 197 -46 q 51 103 86 24 z "},"":{"ha":1001,"x_min":22,"x_max":1558,"o":"m 385 444 l 411 474 q 374 474 392 474 q 351 475 356 475 q 340 481 340 475 q 348 496 340 488 q 367 510 356 504 q 394 517 379 517 l 449 517 q 614 678 524 600 q 800 822 704 756 q 994 940 896 889 q 1181 1020 1092 990 q 1348 1055 1271 1050 q 1481 1033 1425 1060 q 1547 969 1536 1007 q 1538 887 1558 931 q 1473 795 1518 843 q 1371 701 1428 747 q 1251 612 1314 654 q 1132 535 1188 569 q 1034 479 1076 501 q 975 451 992 457 q 947 457 963 447 q 920 481 931 467 q 908 509 910 494 q 922 531 907 524 q 949 545 919 529 q 1026 588 978 561 q 1133 650 1074 614 q 1252 725 1193 686 q 1364 805 1311 764 q 1449 883 1417 846 q 1490 950 1482 919 q 1465 1000 1497 981 q 1372 1015 1429 1021 q 1244 980 1315 1008 q 1093 904 1174 951 q 928 797 1013 857 q 763 665 844 736 q 607 517 681 593 q 673 517 640 517 q 733 517 706 517 q 778 519 760 518 q 806 522 797 521 q 818 518 815 524 q 816 506 821 513 q 801 492 811 499 q 775 482 790 485 q 743 478 764 479 q 694 476 722 478 q 633 474 667 475 q 567 474 600 474 l 540 444 q 615 445 578 444 q 683 447 651 446 q 736 448 714 447 q 767 450 758 449 q 779 446 776 451 q 777 433 782 440 q 762 419 772 426 q 736 410 751 413 q 701 407 725 408 q 646 404 678 406 q 577 402 614 403 q 503 401 540 401 q 400 282 450 339 q 301 181 350 225 q 537 201 417 203 q 767 175 657 200 q 967 103 876 150 q 1111 -10 1057 57 q 1133 -54 1135 -39 q 1111 -47 1132 -69 q 940 78 1046 29 q 708 143 835 128 q 444 135 582 158 q 178 44 307 113 q 144 25 161 35 q 109 10 126 15 q 75 8 92 6 q 42 26 58 11 q 24 48 26 39 q 27 65 22 57 q 43 82 32 74 q 67 99 54 90 q 205 240 136 161 q 349 403 274 319 l 314 403 q 303 409 303 403 q 310 424 303 415 q 329 438 317 432 q 357 444 342 444 l 385 444 z "},"":{"ha":697,"x_min":58,"x_max":1167,"o":"m 269 172 q 308 215 289 194 q 343 256 328 236 q 258 238 301 240 q 176 250 214 236 q 111 296 139 264 q 72 381 83 328 q 63 510 58 442 q 86 643 68 578 q 133 766 104 708 q 197 864 161 824 q 271 923 232 904 q 347 931 310 942 q 363 921 350 929 q 388 901 375 913 q 407 881 400 890 q 408 868 414 871 q 331 808 371 851 q 256 707 290 764 q 195 585 221 650 q 159 463 169 521 q 157 358 149 404 q 200 289 165 311 q 249 275 222 275 q 303 282 275 275 q 359 299 332 289 q 410 317 386 310 q 555 477 483 400 q 701 626 626 554 q 856 765 775 697 q 1031 894 938 832 q 1082 909 1056 911 q 1128 896 1108 907 q 1157 871 1147 885 q 1158 851 1167 857 q 1057 778 1110 819 q 953 694 1004 738 q 856 606 903 650 q 772 524 810 561 q 793 491 788 514 q 783 451 799 468 q 681 377 739 406 q 568 317 622 349 q 425 174 492 246 q 472 174 451 174 q 500 176 492 175 q 513 173 510 178 q 510 160 515 168 q 495 146 506 153 q 469 136 485 139 q 435 133 457 135 q 386 132 414 132 l 367 108 q 422 109 399 108 q 456 111 444 110 q 468 108 465 113 q 466 95 471 103 q 451 81 461 88 q 425 72 440 74 q 387 68 411 69 q 332 65 363 67 q 252 -34 290 15 q 178 -133 214 -83 q 158 -136 174 -139 q 127 -125 143 -133 q 99 -103 111 -117 q 89 -72 86 -89 q 116 -17 92 -54 q 178 65 140 21 l 108 65 q 97 72 97 65 q 104 86 97 78 q 124 101 111 94 q 151 107 136 107 l 214 107 l 233 131 l 153 131 q 142 137 142 131 q 149 151 142 143 q 169 166 157 160 q 197 172 182 172 l 269 172 z "},"":{"ha":390,"x_min":-17,"x_max":342,"o":"m 164 397 q 187 390 171 397 q 219 372 203 382 q 240 397 228 383 q 263 422 251 410 q 283 441 274 433 q 299 449 293 449 q 314 440 306 447 q 328 425 322 433 q 338 408 335 417 q 339 394 342 400 q 329 384 338 390 q 310 370 321 378 q 285 354 299 363 q 260 339 272 346 q 269 326 265 332 q 274 315 274 321 q 256 261 275 286 q 304 236 281 250 q 331 215 328 222 q 326 199 331 208 q 315 180 322 189 q 301 165 308 171 q 289 161 294 160 q 257 181 281 161 q 214 224 233 201 q 177 201 193 210 q 160 194 161 193 q 134 208 150 200 q 103 228 118 217 q 83 203 94 217 q 61 179 72 190 q 41 160 50 168 q 26 153 32 153 q 11 161 19 154 q -3 176 3 168 q -13 193 -10 185 q -14 207 -17 201 q -4 218 -12 211 q 16 233 4 225 q 42 250 28 242 q 68 265 56 258 q 64 282 64 271 q 71 308 64 293 q 89 339 78 324 q 39 365 64 351 q 11 386 14 379 q 15 403 11 393 q 26 422 19 414 q 40 436 33 431 q 53 440 47 442 q 84 419 61 440 q 126 378 107 399 q 164 397 143 393 m 132 256 q 150 256 138 247 q 175 279 163 265 q 197 308 188 293 q 203 326 206 322 q 185 326 199 335 q 160 303 172 318 q 138 274 147 289 q 132 256 129 260 z "},"[":{"ha":597,"x_min":3,"x_max":914,"o":"m 569 733 q 472 569 525 654 q 362 401 418 485 q 247 235 306 317 q 133 78 189 153 q 219 84 190 78 q 273 99 249 90 q 327 113 297 107 q 414 117 357 118 q 465 103 456 115 q 463 75 474 90 q 426 48 451 60 q 372 36 401 36 q 274 38 321 38 q 190 39 228 39 q 127 40 153 39 q 93 40 101 40 q 72 49 88 40 q 40 71 56 58 q 13 95 24 83 q 8 111 3 107 q 82 186 46 140 q 153 287 118 232 q 222 401 189 342 q 287 515 256 460 q 347 619 318 571 q 400 700 375 667 q 426 716 400 704 q 486 740 453 728 q 549 763 519 753 q 582 772 578 772 q 617 773 592 772 q 681 774 643 774 q 765 774 718 774 q 865 775 813 774 q 904 762 894 775 q 905 733 914 749 q 869 704 896 717 q 799 694 842 692 q 756 703 774 696 q 717 717 739 710 q 662 728 696 724 q 569 733 628 733 z "},"]":{"ha":733,"x_min":-56,"x_max":856,"o":"m 289 78 q 387 242 333 157 q 497 410 440 326 q 611 576 553 494 q 725 733 669 658 q 639 727 668 733 q 585 713 610 721 q 531 699 561 706 q 444 694 501 693 q 394 709 403 696 q 396 737 385 722 q 432 763 407 751 q 486 775 457 775 q 584 774 538 774 q 668 774 631 774 q 731 773 706 774 q 765 772 757 772 q 787 763 771 772 q 819 740 803 753 q 845 716 835 728 q 850 700 856 704 q 740 577 794 656 q 636 411 686 499 q 541 242 586 324 q 458 111 496 160 q 432 95 458 107 q 372 71 406 83 q 310 49 339 58 q 276 40 281 40 q 241 40 267 40 q 178 39 215 39 q 93 38 140 39 q -7 36 46 38 q -46 49 -36 36 q -47 78 -56 63 q -10 107 -37 94 q 60 117 17 119 q 102 108 85 114 q 141 94 119 101 q 197 83 163 88 q 289 78 231 78 z "},"~":{"ha":440,"x_min":49,"x_max":344,"o":"m 64 283 q 106 329 79 307 q 153 360 133 351 q 175 365 163 364 q 200 362 188 365 q 222 353 213 358 q 236 343 232 349 q 248 316 247 331 q 250 301 249 301 q 269 308 251 301 q 306 347 288 314 q 317 357 310 354 q 330 359 324 360 q 340 352 336 358 q 343 336 344 346 q 328 298 339 317 q 303 264 317 279 q 274 238 289 249 q 250 224 260 226 q 225 219 239 221 q 197 219 211 218 q 169 224 182 219 q 150 236 157 228 q 140 250 144 242 q 133 265 136 258 q 128 282 129 274 q 110 267 118 275 q 93 251 103 258 q 61 248 74 236 q 64 283 49 260 z "},"":{"ha":249,"x_min":-364,"x_max":611,"o":"m 610 867 q 592 819 611 849 q 526 739 574 790 q 398 607 479 688 q 194 406 317 526 q 75 258 124 333 q 110 267 85 257 q 165 291 136 276 q 220 322 193 306 q 260 349 247 338 q 281 361 274 361 q 290 355 289 361 q 286 338 290 349 q 272 318 282 328 q 149 213 193 246 q 89 175 106 179 q 61 180 74 172 q 39 199 49 188 q -4 124 24 172 q -65 17 -32 75 q -132 -100 -97 -40 q -195 -210 -167 -160 q -243 -292 -224 -260 q -265 -328 -262 -325 q -287 -327 -272 -333 q -319 -308 -303 -321 q -348 -280 -335 -296 q -364 -251 -361 -264 q -333 -192 -364 -246 q -249 -55 -301 -139 q -127 134 -196 29 q 16 348 -58 239 q 165 561 90 457 q 303 749 239 665 q 415 884 367 832 q 485 940 463 936 q 535 939 513 946 q 574 919 558 932 q 599 892 590 907 q 610 867 608 876 m 543 864 q 517 851 538 868 q 465 801 496 833 q 397 724 435 768 q 320 631 360 681 q 242 531 281 582 q 169 433 203 479 q 301 567 232 494 q 428 702 371 639 q 519 810 485 765 q 543 864 553 856 z "},"":{"ha":342,"x_min":-39,"x_max":376,"o":"m 17 28 q 33 80 22 46 q 58 157 44 114 q -1 188 26 167 q -33 236 -28 208 q -28 286 -39 257 q 1 343 -18 315 q 42 394 19 371 q 82 426 65 417 q 111 433 93 433 q 149 425 129 432 q 172 498 163 465 q 189 551 182 531 q 209 580 196 575 q 233 579 222 585 q 251 560 244 574 q 250 536 257 547 q 224 487 239 521 q 189 408 208 453 q 233 377 215 394 q 251 344 251 360 q 230 295 251 317 q 185 258 208 274 q 157 251 172 251 q 131 257 142 251 l 108 197 q 162 214 131 200 q 224 247 193 228 q 285 287 256 265 q 332 328 314 308 q 355 347 344 342 q 371 348 365 351 q 374 335 376 344 q 360 308 372 325 q 319 265 344 290 q 266 215 294 239 q 208 172 238 190 q 157 147 179 153 q 92 147 131 139 l 50 25 q 38 3 44 10 q 24 -2 31 -3 q 15 7 18 -1 q 17 28 13 15 m 111 314 q 77 250 90 282 q 75 206 64 218 l 111 314 m 178 369 q 176 371 176 369 l 175 372 q 166 350 169 361 q 158 328 163 339 q 178 351 171 340 q 178 369 185 363 z "},"":{"ha":235,"x_min":-3,"x_max":450,"o":"m 383 765 q 403 761 392 765 q 426 750 415 757 q 443 734 436 743 q 449 715 450 725 q 441 693 447 707 q 426 666 435 679 q 406 642 417 653 q 386 631 396 632 q 363 633 376 628 q 337 648 349 639 q 317 667 325 657 q 310 685 308 678 q 318 706 310 693 q 338 731 326 718 q 362 753 349 743 q 383 765 375 763 m 264 547 q 281 551 271 551 q 300 546 290 550 q 315 534 310 542 q 319 517 321 526 q 303 482 318 511 q 266 412 289 453 q 215 325 243 371 q 163 240 188 279 q 119 175 139 201 q 94 147 100 149 q 63 151 81 144 q 31 169 46 157 q 7 197 17 182 q -1 225 -3 211 q 17 256 -1 231 q 63 315 35 281 q 123 389 90 350 q 185 462 156 428 q 236 519 214 496 q 264 547 258 543 z "},"":{"ha":393,"x_min":17,"x_max":603,"o":"m 536 735 q 556 731 544 735 q 578 719 568 726 q 596 703 589 713 q 601 685 603 694 q 594 663 600 676 q 579 636 588 649 q 560 613 571 624 q 540 600 550 603 q 517 603 531 597 q 490 617 503 608 q 470 637 478 626 q 464 656 463 647 q 472 676 464 664 q 492 701 481 689 q 515 724 503 714 q 536 735 528 733 m 449 475 q 399 409 432 440 q 328 351 367 378 q 249 301 290 324 q 176 262 208 278 q 122 235 143 246 q 103 222 101 225 q 135 221 106 214 q 203 244 164 228 q 281 284 242 261 q 342 332 319 307 q 359 328 347 338 q 378 301 371 319 q 383 257 386 282 q 356 207 379 232 q 313 177 340 190 q 258 156 286 164 q 204 144 229 147 q 167 142 179 140 q 112 162 142 144 q 60 202 82 179 q 27 249 38 225 q 31 289 17 274 q 58 320 35 303 q 117 356 82 338 q 192 395 151 375 q 273 435 233 415 q 344 473 313 454 q 394 508 376 492 q 417 518 406 518 q 436 512 428 518 q 449 495 444 506 q 449 475 453 485 z "},"":{"ha":443,"x_min":24,"x_max":351,"o":"m 178 349 q 156 367 165 356 q 149 389 147 378 q 156 410 150 397 q 171 437 163 424 q 190 460 179 450 q 210 474 200 471 q 233 469 219 475 q 260 455 247 464 q 280 436 272 446 q 286 418 288 426 q 269 384 286 406 q 233 349 251 363 q 295 350 267 350 q 336 353 324 350 q 349 349 347 354 q 347 337 351 344 q 333 322 343 329 q 307 314 322 315 q 274 310 294 311 q 228 307 253 308 q 178 306 204 306 q 126 306 151 306 q 149 297 138 303 q 169 282 160 290 q 183 265 178 274 q 189 251 189 257 q 181 231 189 243 q 161 206 172 218 q 137 183 150 193 q 115 172 124 174 q 95 176 107 172 q 73 188 83 181 q 56 203 63 194 q 50 222 49 213 q 57 243 51 231 q 71 269 63 256 q 89 292 79 282 q 108 306 99 303 q 62 306 82 306 q 35 307 42 307 q 24 313 24 307 q 31 328 24 319 q 51 342 39 336 q 78 349 63 349 l 178 349 z "},"":{"ha":443,"x_min":63,"x_max":315,"o":"m 201 239 q 183 268 197 251 q 117 236 147 250 q 78 215 88 222 q 66 213 69 208 q 63 228 63 218 q 68 251 63 239 q 85 274 74 264 q 143 308 106 288 q 107 343 124 326 q 83 372 90 360 q 88 389 78 382 q 115 399 99 396 q 149 397 132 401 q 174 381 165 393 q 203 339 183 360 q 260 369 235 354 q 294 393 286 383 q 308 399 303 401 q 314 388 313 396 q 312 367 315 379 q 299 343 308 354 q 240 300 279 324 q 278 263 261 281 q 299 235 294 246 q 289 219 301 225 q 259 213 276 213 q 224 218 242 213 q 201 239 207 224 z "},"":{"ha":357,"x_min":-14,"x_max":300,"o":"m 119 331 q 83 331 100 331 q 57 332 65 332 q 46 338 46 332 q 53 353 46 344 q 72 367 60 361 q 100 374 85 374 l 136 374 q 160 450 153 414 q 176 459 163 460 q 203 450 189 458 q 227 428 217 442 q 235 400 238 415 q 232 386 233 393 q 228 372 231 379 q 260 373 244 372 q 285 375 275 374 q 298 371 296 376 q 296 358 300 365 q 281 344 292 351 q 256 335 269 338 l 215 331 q 199 285 208 306 q 186 251 190 264 q 169 245 182 242 q 142 259 156 249 q 119 285 128 269 q 115 315 110 300 l 119 331 m 40 197 q 83 197 57 197 q 135 196 108 196 q 186 196 163 196 q 225 199 210 196 q 238 194 235 200 q 235 182 240 189 q 220 168 231 175 q 194 158 210 161 q 143 153 172 154 q 85 153 114 153 q 33 155 57 154 q -3 156 8 156 q -14 162 -14 156 q -7 176 -14 168 q 13 191 0 185 q 40 197 25 197 z "},"":{"ha":794,"x_min":28,"x_max":696,"o":"m 557 522 q 656 432 624 481 q 692 333 688 383 q 677 233 696 282 q 626 143 658 185 q 551 70 594 101 q 465 24 508 39 q 351 6 411 0 q 235 38 292 11 q 133 107 179 64 q 60 201 88 150 q 31 307 33 253 q 60 411 28 361 q 145 509 94 465 q 260 573 196 553 q 399 583 324 593 q 557 522 474 574 m 517 344 q 495 295 517 317 q 450 258 474 274 q 425 251 439 251 q 400 256 411 251 q 383 267 389 260 q 381 285 376 275 q 397 305 385 293 q 422 329 410 317 q 442 352 435 342 q 443 369 450 363 q 413 356 435 378 q 372 304 392 335 q 340 243 351 274 q 343 203 329 213 q 389 201 356 192 q 461 232 422 211 q 538 279 500 253 q 597 328 575 306 l 603 335 q 603 426 618 383 q 528 499 589 469 q 417 522 471 525 q 316 497 363 518 q 231 440 269 475 q 169 369 193 406 q 135 289 142 329 q 140 213 129 249 q 174 150 150 178 q 233 106 199 122 q 308 86 267 89 q 394 99 350 83 q 466 145 424 110 q 544 226 508 181 q 480 176 513 199 q 422 147 447 154 q 373 145 403 142 q 313 160 343 149 q 259 190 282 171 q 232 236 236 210 q 237 286 226 257 q 266 343 247 315 q 308 394 285 371 q 347 426 331 417 q 392 430 364 436 q 449 410 421 424 q 497 378 476 397 q 517 344 517 360 z "},"":{"ha":783,"x_min":28,"x_max":696,"o":"m 557 522 q 656 432 624 481 q 692 333 688 383 q 677 233 696 282 q 626 143 658 185 q 551 70 594 101 q 465 24 508 39 q 351 6 411 0 q 235 38 292 11 q 133 107 179 64 q 60 201 88 150 q 31 307 33 253 q 60 411 28 361 q 145 509 94 465 q 260 573 196 553 q 399 583 324 593 q 557 522 474 574 m 314 364 q 331 359 319 358 q 353 364 342 360 q 376 374 365 368 q 390 383 386 379 q 405 389 393 389 q 429 384 417 389 q 452 370 442 379 q 465 349 463 361 q 455 317 467 338 q 430 276 443 296 q 410 240 417 256 q 414 225 403 225 q 453 242 425 225 q 512 280 481 258 q 571 322 543 301 q 608 353 599 343 q 600 434 617 396 q 528 499 583 472 q 417 522 471 525 q 316 497 363 518 q 231 440 269 475 q 169 369 193 406 q 135 289 142 329 q 140 213 129 249 q 174 150 150 178 q 233 106 199 122 q 308 86 267 89 q 394 99 350 83 q 443 127 415 107 q 499 176 471 147 q 553 238 528 204 q 594 308 579 272 q 562 270 581 292 q 522 228 543 249 q 478 190 500 207 q 436 165 456 174 q 405 165 425 161 q 364 179 385 169 q 328 205 343 189 q 314 242 313 221 q 323 280 314 260 q 343 324 332 300 q 292 322 318 317 q 249 342 265 328 q 229 376 232 356 q 247 419 226 396 q 291 449 269 446 q 325 440 313 451 q 337 406 338 428 q 314 364 336 385 z "},"":{"ha":400,"x_min":64,"x_max":276,"o":"m 164 667 q 190 658 172 667 q 226 638 208 650 q 259 610 244 625 q 274 585 274 596 q 264 536 276 560 q 232 496 251 513 q 192 471 213 479 q 160 465 172 463 q 133 478 149 468 q 101 500 117 488 q 75 526 86 513 q 64 551 64 539 q 73 583 64 564 q 97 620 82 603 q 129 651 111 638 q 164 667 147 664 m 132 525 q 150 526 138 518 q 175 549 163 535 q 197 578 188 564 q 203 597 206 593 q 185 597 199 606 q 160 573 172 588 q 138 544 147 558 q 132 525 129 529 z "},"":{"ha":399,"x_min":44,"x_max":533,"o":"m 490 576 q 522 585 510 594 q 514 553 533 576 q 483 516 503 540 q 443 467 464 492 q 401 422 422 442 q 367 400 381 403 q 316 406 349 396 q 260 435 283 415 q 225 410 242 422 q 192 393 208 399 q 154 394 176 390 q 110 410 132 399 q 72 439 89 422 q 50 478 56 456 q 62 534 44 501 q 104 596 79 567 q 156 647 129 625 q 199 669 183 668 q 223 668 208 671 q 252 658 238 665 q 278 642 267 651 q 294 619 290 632 q 328 635 314 636 q 351 628 339 632 q 374 618 364 624 q 392 604 385 613 q 397 586 399 596 q 386 556 397 575 q 363 518 375 538 q 342 483 350 499 q 339 464 333 468 q 358 470 343 461 q 393 495 372 479 q 440 532 414 511 q 490 576 465 553 m 142 443 q 180 452 157 435 q 224 496 203 469 q 259 550 244 522 q 274 592 274 578 q 254 598 268 603 q 224 578 240 593 q 190 540 207 563 q 160 498 172 518 q 141 462 147 478 q 142 443 135 446 z "},"":{"ha":508,"x_min":56,"x_max":401,"o":"m 81 242 q 69 283 67 260 q 82 326 71 306 q 110 362 93 347 q 144 378 128 376 l 150 378 q 170 417 157 396 q 201 458 183 439 q 238 491 218 476 q 276 510 257 506 q 322 508 300 515 q 363 488 344 501 q 391 456 381 474 q 401 425 401 439 q 394 403 401 415 q 374 380 386 392 q 347 358 363 368 q 317 340 332 347 q 289 339 293 329 q 299 365 285 349 q 312 379 303 369 q 330 400 321 389 q 345 420 339 411 q 347 433 351 429 q 323 427 340 439 q 288 397 306 415 q 256 360 269 379 q 244 332 243 342 q 264 322 247 322 q 302 323 281 322 q 344 320 324 324 q 376 300 365 317 q 388 259 389 282 q 375 215 386 236 q 347 180 364 194 q 311 164 329 165 l 306 164 q 285 124 299 144 q 256 84 272 103 q 219 51 239 65 q 181 32 199 36 q 135 33 157 26 q 94 54 113 40 q 66 85 76 68 q 56 117 56 101 q 63 138 56 126 q 83 162 71 150 q 110 184 94 174 q 140 201 125 194 q 168 203 164 213 q 158 176 172 193 q 145 163 154 172 q 127 142 136 153 q 112 122 118 131 q 110 108 106 113 q 134 115 117 103 q 169 144 151 126 q 199 181 186 163 q 211 210 213 200 q 192 219 208 219 q 155 219 176 219 q 113 222 133 218 q 81 242 92 225 m 290 285 q 201 290 238 278 q 183 275 193 283 q 167 257 174 267 q 213 258 190 260 q 256 250 236 257 q 273 267 263 258 q 290 285 283 275 z "},"":{"ha":528,"x_min":103,"x_max":439,"o":"m 432 850 q 410 807 424 839 q 381 728 397 775 q 344 623 364 682 q 301 499 324 564 l 261 499 l 369 865 q 390 894 376 889 q 415 892 404 899 q 433 874 426 886 q 432 850 439 861 m 107 -3 q 122 47 111 11 q 149 135 133 83 q 185 254 165 188 q 228 397 204 321 l 268 397 q 222 258 243 324 q 185 140 201 193 q 158 49 169 88 q 140 -7 146 11 q 127 -28 135 -22 q 113 -34 119 -35 q 105 -25 107 -33 q 107 -3 103 -17 z "},"{":{"ha":349,"x_min":40,"x_max":529,"o":"m 489 665 q 422 609 458 646 q 344 536 385 572 q 258 474 303 500 q 168 450 214 447 q 199 408 192 433 q 201 352 206 382 q 184 289 196 322 q 160 223 172 256 q 140 160 149 190 q 132 107 131 131 q 128 56 135 57 q 93 82 122 56 q 50 147 58 113 q 47 218 42 182 q 65 289 53 254 q 85 355 78 324 q 87 413 92 386 q 53 456 82 439 q 40 469 40 463 q 49 480 40 475 q 73 488 58 485 q 103 494 88 492 q 188 531 142 500 q 281 599 233 563 q 376 666 329 636 q 468 700 424 696 q 529 699 529 706 q 489 665 529 692 z "},"}":{"ha":443,"x_min":-96,"x_max":393,"o":"m -56 124 q 12 180 -25 143 q 90 253 49 217 q 175 315 131 289 q 265 339 219 340 q 234 381 240 356 q 233 437 228 407 q 249 500 238 467 q 273 566 261 533 q 294 628 285 599 q 301 682 303 658 q 305 733 299 732 q 340 707 311 733 q 383 641 375 676 q 386 570 392 606 q 368 499 381 535 q 349 433 356 464 q 347 376 342 401 q 381 333 351 350 q 393 320 393 326 q 384 308 393 314 q 360 299 375 303 q 331 293 346 296 q 246 256 292 288 q 152 189 200 225 q 56 123 104 153 q -35 89 8 93 q -96 90 -96 83 q -56 124 -96 97 z "},"":{"ha":318,"x_min":29,"x_max":242,"o":"m 83 578 q 159 578 119 578 q 226 583 199 579 q 240 579 238 585 q 238 567 242 574 q 222 553 233 560 q 197 543 211 546 q 108 536 153 536 q 40 536 64 536 q 29 542 29 536 q 36 557 29 549 q 56 572 43 565 q 83 578 68 578 z "},"":{"ha":456,"x_min":-317,"x_max":513,"o":"m 68 432 q 94 435 78 439 q 126 423 111 432 q 154 402 142 414 q 168 381 167 390 q 163 359 171 374 q 141 328 154 344 q 113 293 128 311 q 88 262 99 275 q 75 242 78 249 q 83 239 72 235 q 110 256 93 243 q 149 288 128 269 q 192 326 169 306 q 233 364 214 346 q 267 394 253 382 q 286 410 281 407 q 304 408 293 411 q 327 399 315 406 q 348 381 339 392 q 361 360 357 371 q 351 328 365 349 q 319 288 336 308 q 289 250 301 267 q 283 228 276 233 q 313 238 289 224 q 368 274 338 253 q 427 318 399 296 q 468 351 456 340 q 503 362 493 374 q 499 328 513 350 q 466 292 490 318 q 413 239 442 267 q 354 189 383 211 q 308 164 325 167 q 270 165 290 160 q 232 181 250 169 q 201 207 214 192 q 185 239 188 222 q 185 259 182 250 q 190 272 188 268 q 151 238 172 257 q 108 203 129 219 q 69 175 88 186 q 39 164 51 164 q 0 174 24 164 q -40 200 -24 183 q -97 111 -65 160 q -159 15 -129 63 q -214 -76 -189 -33 q -250 -144 -239 -118 q -272 -172 -258 -168 q -297 -169 -286 -176 q -312 -148 -308 -161 q -308 -125 -317 -135 q -259 -63 -292 -107 q -189 33 -226 -19 q -114 142 -151 86 q -51 240 -76 197 q -33 285 -47 258 q -2 340 -19 313 q 34 392 15 368 q 68 432 53 417 z "},"":{"ha":450,"x_min":29,"x_max":393,"o":"m 389 342 q 373 308 382 325 q 354 272 364 290 q 337 238 344 254 q 325 207 329 221 q 310 197 322 197 q 287 203 299 197 q 267 222 275 210 q 261 250 258 235 q 274 291 267 275 q 289 318 281 307 q 223 315 261 315 q 147 314 185 314 q 80 315 110 314 q 40 315 50 315 q 29 322 29 315 q 36 336 29 328 q 56 351 43 344 q 83 357 68 357 q 126 357 97 357 q 188 357 154 357 q 253 358 221 357 q 310 358 286 358 q 333 368 318 365 q 362 369 347 371 q 385 361 376 368 q 389 342 393 354 z "},"":{"ha":697,"x_min":58,"x_max":1167,"o":"m 410 317 q 555 477 483 400 q 701 626 626 554 q 856 765 775 697 q 1031 894 938 832 q 1082 909 1056 911 q 1128 896 1108 907 q 1157 871 1147 885 q 1158 851 1167 857 q 1057 778 1110 819 q 953 694 1004 738 q 856 606 903 650 q 772 524 810 561 q 793 491 788 514 q 783 451 799 468 q 681 377 739 406 q 568 317 622 349 q 356 94 451 208 q 178 -133 260 -21 q 158 -136 174 -139 q 127 -125 143 -133 q 99 -103 111 -117 q 89 -72 86 -89 q 117 -16 90 -54 q 183 69 144 22 q 265 166 222 117 q 343 256 308 215 q 258 238 301 240 q 176 250 214 236 q 111 296 139 264 q 72 381 83 328 q 63 510 58 442 q 86 643 68 578 q 133 766 104 708 q 197 864 161 824 q 271 923 232 904 q 347 931 310 942 q 363 921 350 929 q 388 901 375 913 q 407 881 400 890 q 408 868 414 871 q 331 808 371 851 q 256 707 290 764 q 195 585 221 650 q 159 463 169 521 q 157 358 149 404 q 200 289 165 311 q 249 275 222 275 q 303 282 275 275 q 359 299 332 289 q 410 317 386 310 m 674 910 q 692 904 679 910 q 717 890 704 899 q 739 872 729 882 q 749 856 749 863 q 742 822 751 838 q 721 794 733 806 q 694 776 708 782 q 672 774 681 771 q 642 787 661 775 q 614 814 624 799 q 585 794 599 801 q 561 790 571 788 q 542 798 554 792 q 520 813 531 804 q 502 832 510 822 q 494 850 494 842 q 501 873 494 860 q 517 898 507 886 q 540 919 528 910 q 564 928 553 928 q 577 924 568 928 q 597 915 586 921 q 617 901 607 908 q 633 885 628 893 q 674 910 651 907 z "},"":{"ha":590,"x_min":61,"x_max":535,"o":"m 381 685 q 365 608 389 685 q 464 610 415 617 q 496 667 483 651 q 517 681 508 683 q 517 660 521 682 q 501 603 513 639 q 526 581 517 593 q 528 551 535 569 q 518 532 525 543 q 501 508 511 521 q 478 481 490 494 q 456 458 467 468 q 431 413 443 449 q 408 326 419 376 q 388 218 397 276 q 368 106 378 160 q 350 10 358 53 q 333 -53 342 -33 q 306 -108 325 -75 q 268 -172 288 -142 q 230 -224 249 -203 q 203 -243 211 -246 q 210 -197 196 -242 q 254 -65 225 -151 q 325 150 283 22 q 414 444 367 278 q 379 463 403 454 q 325 482 356 472 l 318 461 q 308 417 315 450 q 290 338 300 383 q 267 238 279 292 q 243 132 256 185 q 219 31 231 79 q 197 -49 207 -17 q 172 -104 190 -71 q 134 -168 154 -137 q 95 -219 114 -199 q 68 -239 76 -240 q 67 -213 61 -237 q 94 -128 74 -189 q 148 34 114 -68 q 231 294 182 136 q 218 293 222 292 q 186 303 210 293 q 140 329 163 313 q 102 369 117 346 q 97 419 88 392 q 131 485 108 456 q 184 536 154 514 q 250 574 214 558 q 322 599 286 589 l 328 617 q 360 672 349 656 q 381 685 372 689 z "},"":{"ha":1165,"x_min":31,"x_max":1271,"o":"m 76 131 q 266 376 150 257 q 520 590 382 496 q 808 740 658 683 q 1100 797 958 797 q 1183 788 1147 797 q 1240 758 1219 778 q 1266 708 1261 739 q 1256 635 1271 678 q 1208 525 1239 588 q 1138 397 1176 463 q 1058 265 1100 331 q 980 144 1017 199 q 915 50 943 89 q 874 -3 886 11 q 840 -19 864 -15 q 792 -20 815 -24 q 756 -7 769 -17 q 756 19 743 3 q 798 80 775 47 q 844 147 821 113 q 888 216 867 182 q 926 281 910 250 q 727 240 824 263 q 538 188 631 217 q 352 124 444 160 q 165 47 260 89 q 140 -10 147 14 q 125 -53 132 -33 q 110 -59 122 -58 q 84 -56 99 -60 q 56 -44 69 -51 q 39 -28 43 -37 q 33 10 31 -11 q 42 55 35 32 q 59 98 49 78 q 76 131 69 118 m 968 361 q 1022 444 992 399 q 1078 533 1051 489 q 1125 619 1104 578 q 1151 693 1146 661 q 1144 744 1157 725 q 1090 764 1131 764 q 923 732 1008 764 q 752 647 838 700 q 585 524 667 593 q 431 382 504 456 q 297 235 358 308 q 192 103 236 163 q 361 181 264 140 q 565 256 458 221 q 776 319 671 292 q 968 361 881 347 m 1158 835 q 1128 843 1149 838 q 1084 856 1107 849 q 1040 871 1061 863 q 1010 889 1019 879 q 1002 917 1001 899 q 1010 951 1003 935 q 1028 979 1017 968 q 1051 989 1039 990 q 1082 973 1064 986 q 1119 942 1100 960 q 1157 907 1139 925 q 1186 876 1175 889 q 1198 854 1197 864 q 1193 839 1199 844 q 1178 832 1188 833 q 1158 835 1168 831 z "},"":{"ha":1165,"x_min":31,"x_max":1271,"o":"m 76 131 q 266 376 150 257 q 520 590 382 496 q 808 740 658 683 q 1100 797 958 797 q 1183 788 1147 797 q 1240 758 1219 778 q 1266 708 1261 739 q 1256 635 1271 678 q 1208 525 1239 588 q 1138 397 1176 463 q 1058 265 1100 331 q 980 144 1017 199 q 915 50 943 89 q 874 -3 886 11 q 840 -19 864 -15 q 792 -20 815 -24 q 756 -7 769 -17 q 756 19 743 3 q 798 80 775 47 q 844 147 821 113 q 888 216 867 182 q 926 281 910 250 q 727 240 824 263 q 538 188 631 217 q 352 124 444 160 q 165 47 260 89 q 140 -10 147 14 q 125 -53 132 -33 q 110 -59 122 -58 q 84 -56 99 -60 q 56 -44 69 -51 q 39 -28 43 -37 q 33 10 31 -11 q 42 55 35 32 q 59 98 49 78 q 76 131 69 118 m 968 361 q 1022 444 992 399 q 1078 533 1051 489 q 1125 619 1104 578 q 1151 693 1146 661 q 1144 744 1157 725 q 1090 764 1131 764 q 923 732 1008 764 q 752 647 838 700 q 585 524 667 593 q 431 382 504 456 q 297 235 358 308 q 192 103 236 163 q 361 181 264 140 q 565 256 458 221 q 776 319 671 292 q 968 361 881 347 m 1061 894 q 1084 915 1069 900 q 1117 947 1099 931 q 1153 978 1135 964 q 1183 994 1171 992 q 1211 988 1196 997 q 1237 965 1226 979 q 1252 935 1247 950 q 1249 910 1257 919 q 1219 891 1240 900 q 1174 874 1199 882 q 1124 860 1149 867 q 1083 850 1100 854 q 1059 850 1067 846 q 1049 862 1051 854 q 1051 878 1047 869 q 1061 894 1054 888 z "},"":{"ha":1165,"x_min":31,"x_max":1271,"o":"m 76 131 q 266 376 150 257 q 520 590 382 496 q 808 740 658 683 q 1100 797 958 797 q 1183 788 1147 797 q 1240 758 1219 778 q 1266 708 1261 739 q 1256 635 1271 678 q 1208 525 1239 588 q 1138 397 1176 463 q 1058 265 1100 331 q 980 144 1017 199 q 915 50 943 89 q 874 -3 886 11 q 840 -19 864 -15 q 792 -20 815 -24 q 756 -7 769 -17 q 756 19 743 3 q 798 80 775 47 q 844 147 821 113 q 888 216 867 182 q 926 281 910 250 q 727 240 824 263 q 538 188 631 217 q 352 124 444 160 q 165 47 260 89 q 140 -10 147 14 q 125 -53 132 -33 q 110 -59 122 -58 q 84 -56 99 -60 q 56 -44 69 -51 q 39 -28 43 -37 q 33 10 31 -11 q 42 55 35 32 q 59 98 49 78 q 76 131 69 118 m 968 361 q 1022 444 992 399 q 1078 533 1051 489 q 1125 619 1104 578 q 1151 693 1146 661 q 1144 744 1157 725 q 1090 764 1131 764 q 923 732 1008 764 q 752 647 838 700 q 585 524 667 593 q 431 382 504 456 q 297 235 358 308 q 192 103 236 163 q 361 181 264 140 q 565 256 458 221 q 776 319 671 292 q 968 361 881 347 m 993 865 q 1017 894 994 875 q 1069 934 1040 914 q 1126 969 1099 954 q 1164 983 1153 983 q 1196 969 1181 983 q 1223 936 1211 956 q 1242 896 1235 917 q 1247 861 1249 875 q 1238 849 1246 854 q 1221 842 1231 844 q 1201 839 1211 839 q 1185 843 1190 839 q 1180 858 1178 849 q 1186 878 1182 867 q 1194 901 1190 889 q 1197 925 1199 913 q 1166 899 1183 914 q 1132 871 1149 885 q 1100 846 1115 857 q 1075 832 1085 835 q 1051 831 1065 829 q 1023 837 1036 832 q 1001 849 1010 842 q 993 865 992 856 z "},"":{"ha":1165,"x_min":31,"x_max":1296,"o":"m 76 131 q 266 376 150 257 q 520 590 382 496 q 808 740 658 683 q 1100 797 958 797 q 1183 788 1147 797 q 1240 758 1219 778 q 1266 708 1261 739 q 1256 635 1271 678 q 1208 525 1239 588 q 1138 397 1176 463 q 1058 265 1100 331 q 980 144 1017 199 q 915 50 943 89 q 874 -3 886 11 q 840 -19 864 -15 q 792 -20 815 -24 q 756 -7 769 -17 q 756 19 743 3 q 798 80 775 47 q 844 147 821 113 q 888 216 867 182 q 926 281 910 250 q 727 240 824 263 q 538 188 631 217 q 352 124 444 160 q 165 47 260 89 q 140 -10 147 14 q 125 -53 132 -33 q 110 -59 122 -58 q 84 -56 99 -60 q 56 -44 69 -51 q 39 -28 43 -37 q 33 10 31 -11 q 42 55 35 32 q 59 98 49 78 q 76 131 69 118 m 968 361 q 1022 444 992 399 q 1078 533 1051 489 q 1125 619 1104 578 q 1151 693 1146 661 q 1144 744 1157 725 q 1090 764 1131 764 q 923 732 1008 764 q 752 647 838 700 q 585 524 667 593 q 431 382 504 456 q 297 235 358 308 q 192 103 236 163 q 361 181 264 140 q 565 256 458 221 q 776 319 671 292 q 968 361 881 347 m 1011 907 q 1054 952 1026 929 q 1101 983 1082 975 q 1124 988 1111 988 q 1149 985 1136 988 q 1171 977 1161 982 q 1185 967 1181 972 q 1197 940 1196 954 q 1199 925 1197 925 q 1218 931 1200 925 q 1253 969 1236 938 q 1278 982 1261 985 q 1292 960 1296 979 q 1276 922 1288 940 q 1251 888 1265 903 q 1223 861 1238 872 q 1199 847 1208 850 q 1145 842 1176 840 q 1099 860 1114 844 q 1089 874 1093 865 q 1082 889 1085 882 q 1076 906 1078 897 q 1058 890 1067 899 q 1042 875 1050 882 q 1024 866 1032 867 q 1010 871 1015 865 q 1004 886 1004 876 q 1011 907 1004 896 z "},"":{"ha":1165,"x_min":31,"x_max":1293,"o":"m 76 131 q 266 376 150 257 q 520 590 382 496 q 808 740 658 683 q 1100 797 958 797 q 1183 788 1147 797 q 1240 758 1219 778 q 1266 708 1261 739 q 1256 635 1271 678 q 1208 525 1239 588 q 1138 397 1176 463 q 1058 265 1100 331 q 980 144 1017 199 q 915 50 943 89 q 874 -3 886 11 q 840 -19 864 -15 q 792 -20 815 -24 q 756 -7 769 -17 q 756 19 743 3 q 798 80 775 47 q 844 147 821 113 q 888 216 867 182 q 926 281 910 250 q 727 240 824 263 q 538 188 631 217 q 352 124 444 160 q 165 47 260 89 q 140 -10 147 14 q 125 -53 132 -33 q 110 -59 122 -58 q 84 -56 99 -60 q 56 -44 69 -51 q 39 -28 43 -37 q 33 10 31 -11 q 42 55 35 32 q 59 98 49 78 q 76 131 69 118 m 968 361 q 1022 444 992 399 q 1078 533 1051 489 q 1125 619 1104 578 q 1151 693 1146 661 q 1144 744 1157 725 q 1090 764 1131 764 q 923 732 1008 764 q 752 647 838 700 q 585 524 667 593 q 431 382 504 456 q 297 235 358 308 q 192 103 236 163 q 361 181 264 140 q 565 256 458 221 q 776 319 671 292 q 968 361 881 347 m 1215 951 q 1233 946 1221 951 q 1258 932 1246 940 q 1281 914 1271 924 q 1290 897 1290 904 q 1284 863 1293 879 q 1263 835 1275 847 q 1236 818 1250 824 q 1214 815 1222 813 q 1184 828 1203 817 q 1156 856 1165 840 q 1126 836 1140 843 q 1103 832 1113 829 q 1084 840 1096 833 q 1062 855 1072 846 q 1044 874 1051 864 q 1036 892 1036 883 q 1042 915 1036 901 q 1059 940 1049 928 q 1082 960 1069 951 q 1106 969 1094 969 q 1119 966 1110 969 q 1138 956 1128 963 q 1159 942 1149 950 q 1175 926 1169 935 q 1215 951 1193 949 z "},"":{"ha":1165,"x_min":31,"x_max":1283,"o":"m 76 131 q 266 376 150 257 q 520 590 382 496 q 808 740 658 683 q 1100 797 958 797 q 1183 788 1147 797 q 1240 758 1219 778 q 1266 708 1261 739 q 1256 635 1271 678 q 1208 525 1239 588 q 1138 397 1176 463 q 1058 265 1100 331 q 980 144 1017 199 q 915 50 943 89 q 874 -3 886 11 q 840 -19 864 -15 q 792 -20 815 -24 q 756 -7 769 -17 q 756 19 743 3 q 798 80 775 47 q 844 147 821 113 q 888 216 867 182 q 926 281 910 250 q 727 240 824 263 q 538 188 631 217 q 352 124 444 160 q 165 47 260 89 q 140 -10 147 14 q 125 -53 132 -33 q 110 -59 122 -58 q 84 -56 99 -60 q 56 -44 69 -51 q 39 -28 43 -37 q 33 10 31 -11 q 42 55 35 32 q 59 98 49 78 q 76 131 69 118 m 968 361 q 1022 444 992 399 q 1078 533 1051 489 q 1125 619 1104 578 q 1151 693 1146 661 q 1144 744 1157 725 q 1090 764 1131 764 q 923 732 1008 764 q 752 647 838 700 q 585 524 667 593 q 431 382 504 456 q 297 235 358 308 q 192 103 236 163 q 361 181 264 140 q 565 256 458 221 q 776 319 671 292 q 968 361 881 347 m 1169 1032 q 1196 1024 1178 1032 q 1233 1003 1214 1015 q 1265 976 1251 990 q 1281 950 1279 961 q 1271 901 1283 925 q 1239 861 1258 878 q 1199 836 1219 844 q 1167 831 1179 828 q 1139 843 1156 833 q 1107 865 1122 853 q 1081 891 1092 878 q 1069 917 1069 904 q 1079 949 1069 929 q 1103 985 1089 968 q 1135 1016 1118 1003 q 1169 1032 1153 1029 m 1139 890 q 1157 891 1144 882 q 1182 914 1169 900 q 1203 942 1194 928 q 1210 961 1213 957 q 1192 961 1206 969 q 1167 938 1179 953 q 1145 909 1154 924 q 1139 890 1136 894 z "},"":{"ha":761,"x_min":15,"x_max":1529,"o":"m 51 103 q 44 278 15 188 q 147 458 72 368 q 331 630 221 547 q 569 782 442 713 q 832 902 697 851 q 1089 977 967 953 q 1313 994 1211 1001 q 1474 942 1414 988 q 1526 865 1522 904 q 1500 786 1529 825 q 1417 710 1471 747 q 1298 639 1364 672 q 1162 576 1232 606 q 1030 526 1092 547 q 922 492 968 504 q 860 476 876 479 q 833 488 846 475 q 812 516 819 500 q 806 547 804 532 q 824 565 807 563 q 853 574 821 565 q 937 600 885 583 q 1055 639 989 617 q 1188 688 1121 661 q 1314 742 1254 714 q 1413 800 1374 771 q 1466 858 1453 829 q 1451 911 1479 886 q 1324 944 1411 949 q 1124 904 1238 939 q 880 810 1010 869 q 626 676 750 750 q 392 517 501 601 q 211 352 283 433 q 113 197 139 271 q 131 65 88 122 q 196 33 151 36 q 297 43 240 29 q 416 83 353 57 q 538 140 479 110 q 648 203 597 171 q 731 260 699 235 q 741 264 739 267 q 741 252 743 261 q 733 229 739 243 q 718 201 726 215 q 638 109 692 157 q 517 24 585 61 q 376 -35 450 -14 q 233 -44 301 -56 q 233 -48 233 -47 q 232 -50 232 -49 q 210 -70 225 -61 q 193 -90 194 -79 q 209 -102 193 -96 q 241 -119 225 -108 q 265 -147 257 -129 q 257 -192 274 -164 q 211 -222 240 -219 q 153 -215 182 -225 q 101 -187 124 -204 q 75 -157 79 -169 q 74 -137 71 -144 q 84 -126 78 -129 q 97 -125 90 -122 q 108 -136 104 -128 q 135 -160 115 -154 q 164 -150 156 -167 q 165 -137 168 -142 q 155 -128 161 -132 q 142 -119 149 -124 q 131 -108 135 -115 q 131 -94 126 -103 q 146 -75 136 -85 q 168 -55 156 -65 q 190 -35 181 -44 q 111 13 147 -19 q 51 103 75 46 z "},"":{"ha":1089,"x_min":89,"x_max":1390,"o":"m 106 315 q 127 455 89 386 q 241 587 165 524 q 421 704 317 650 q 640 799 525 758 q 870 865 754 840 q 1086 892 986 889 q 1260 876 1186 896 q 1367 807 1335 856 q 1385 733 1390 771 q 1356 662 1379 694 q 1301 606 1333 629 q 1242 574 1269 582 q 1189 571 1213 565 q 1150 588 1165 576 q 1130 610 1135 599 q 1136 626 1125 622 q 1197 655 1157 635 q 1270 700 1236 675 q 1323 751 1304 725 q 1324 800 1342 778 q 1251 829 1303 825 q 1126 822 1199 833 q 969 788 1054 811 q 799 736 885 765 q 634 674 714 707 q 494 610 554 640 q 431 576 468 597 q 354 529 394 556 q 276 472 314 503 q 211 410 238 442 q 173 344 185 378 q 174 281 161 311 q 208 249 183 257 q 261 242 233 242 q 314 248 289 243 q 347 253 339 253 q 494 324 424 296 q 624 366 565 351 q 728 383 683 381 q 797 375 772 385 q 814 339 832 363 q 744 289 796 315 q 619 239 693 263 q 472 203 546 215 q 421 181 454 199 q 349 137 388 163 q 274 80 311 111 q 210 18 236 49 q 172 -40 183 -12 q 175 -86 160 -67 q 246 -105 193 -111 q 372 -74 299 -99 q 531 -8 444 -49 q 704 78 618 33 q 869 169 790 124 q 1007 250 949 214 q 1030 263 1019 258 q 1044 267 1040 268 q 1045 258 1049 267 q 1026 231 1042 249 q 954 160 1007 207 q 828 60 901 113 q 666 -42 754 8 q 490 -125 578 -93 q 319 -162 401 -157 q 172 -131 236 -168 q 109 -67 128 -106 q 99 17 90 -28 q 146 109 108 61 q 253 200 183 157 q 158 241 200 211 q 106 315 115 271 m 1107 942 q 1076 950 1097 944 q 1033 962 1056 956 q 989 976 1010 968 q 958 994 968 985 q 951 1022 950 1004 q 958 1057 951 1040 q 976 1085 965 1074 q 1000 1094 988 1097 q 1031 1079 1013 1092 q 1068 1049 1049 1067 q 1106 1014 1088 1032 q 1135 983 1124 996 q 1147 961 1146 971 q 1142 946 1147 951 q 1126 939 1136 940 q 1107 942 1117 938 z "},"":{"ha":1089,"x_min":89,"x_max":1390,"o":"m 106 315 q 127 455 89 386 q 241 587 165 524 q 421 704 317 650 q 640 799 525 758 q 870 865 754 840 q 1086 892 986 889 q 1260 876 1186 896 q 1367 807 1335 856 q 1385 733 1390 771 q 1356 662 1379 694 q 1301 606 1333 629 q 1242 574 1269 582 q 1189 571 1213 565 q 1150 588 1165 576 q 1130 610 1135 599 q 1136 626 1125 622 q 1197 655 1157 635 q 1270 700 1236 675 q 1323 751 1304 725 q 1324 800 1342 778 q 1251 829 1303 825 q 1126 822 1199 833 q 969 788 1054 811 q 799 736 885 765 q 634 674 714 707 q 494 610 554 640 q 431 576 468 597 q 354 529 394 556 q 276 472 314 503 q 211 410 238 442 q 173 344 185 378 q 174 281 161 311 q 208 249 183 257 q 261 242 233 242 q 314 248 289 243 q 347 253 339 253 q 494 324 424 296 q 624 366 565 351 q 728 383 683 381 q 797 375 772 385 q 814 339 832 363 q 744 289 796 315 q 619 239 693 263 q 472 203 546 215 q 421 181 454 199 q 349 137 388 163 q 274 80 311 111 q 210 18 236 49 q 172 -40 183 -12 q 175 -86 160 -67 q 246 -105 193 -111 q 372 -74 299 -99 q 531 -8 444 -49 q 704 78 618 33 q 869 169 790 124 q 1007 250 949 214 q 1030 263 1019 258 q 1044 267 1040 268 q 1045 258 1049 267 q 1026 231 1042 249 q 954 160 1007 207 q 828 60 901 113 q 666 -42 754 8 q 490 -125 578 -93 q 319 -162 401 -157 q 172 -131 236 -168 q 109 -67 128 -106 q 99 17 90 -28 q 146 109 108 61 q 253 200 183 157 q 158 241 200 211 q 106 315 115 271 m 908 956 q 931 976 915 961 q 963 1008 946 992 q 999 1039 981 1025 q 1031 1056 1017 1053 q 1058 1049 1043 1058 q 1084 1024 1074 1039 q 1099 994 1094 1010 q 1094 969 1103 979 q 1066 951 1086 960 q 1021 934 1046 942 q 972 920 996 926 q 931 910 947 914 q 906 910 914 906 q 895 923 897 915 q 897 940 893 931 q 908 956 901 949 z "},"":{"ha":1089,"x_min":89,"x_max":1390,"o":"m 106 315 q 127 455 89 386 q 241 587 165 524 q 421 704 317 650 q 640 799 525 758 q 870 865 754 840 q 1086 892 986 889 q 1260 876 1186 896 q 1367 807 1335 856 q 1385 733 1390 771 q 1356 662 1379 694 q 1301 606 1333 629 q 1242 574 1269 582 q 1189 571 1213 565 q 1150 588 1165 576 q 1130 610 1135 599 q 1136 626 1125 622 q 1197 655 1157 635 q 1270 700 1236 675 q 1323 751 1304 725 q 1324 800 1342 778 q 1251 829 1303 825 q 1126 822 1199 833 q 969 788 1054 811 q 799 736 885 765 q 634 674 714 707 q 494 610 554 640 q 431 576 468 597 q 354 529 394 556 q 276 472 314 503 q 211 410 238 442 q 173 344 185 378 q 174 281 161 311 q 208 249 183 257 q 261 242 233 242 q 314 248 289 243 q 347 253 339 253 q 494 324 424 296 q 624 366 565 351 q 728 383 683 381 q 797 375 772 385 q 814 339 832 363 q 744 289 796 315 q 619 239 693 263 q 472 203 546 215 q 421 181 454 199 q 349 137 388 163 q 274 80 311 111 q 210 18 236 49 q 172 -40 183 -12 q 175 -86 160 -67 q 246 -105 193 -111 q 372 -74 299 -99 q 531 -8 444 -49 q 704 78 618 33 q 869 169 790 124 q 1007 250 949 214 q 1030 263 1019 258 q 1044 267 1040 268 q 1045 258 1049 267 q 1026 231 1042 249 q 954 160 1007 207 q 828 60 901 113 q 666 -42 754 8 q 490 -125 578 -93 q 319 -162 401 -157 q 172 -131 236 -168 q 109 -67 128 -106 q 99 17 90 -28 q 146 109 108 61 q 253 200 183 157 q 158 241 200 211 q 106 315 115 271 m 949 960 q 973 989 950 969 q 1024 1028 996 1008 q 1080 1063 1053 1049 q 1118 1078 1107 1078 q 1150 1064 1135 1078 q 1178 1031 1165 1050 q 1197 991 1190 1011 q 1201 957 1203 971 q 1194 944 1201 950 q 1176 936 1186 939 q 1156 934 1167 933 q 1140 939 1146 935 q 1135 952 1133 943 q 1142 972 1138 961 q 1149 996 1146 983 q 1151 1019 1153 1008 q 1122 994 1139 1008 q 1088 965 1104 979 q 1056 940 1071 951 q 1031 926 1040 929 q 1006 925 1021 924 q 978 931 992 926 q 955 943 964 936 q 949 960 946 950 z "},"":{"ha":1089,"x_min":89,"x_max":1390,"o":"m 106 315 q 127 455 89 386 q 241 587 165 524 q 421 704 317 650 q 640 799 525 758 q 870 865 754 840 q 1086 892 986 889 q 1260 876 1186 896 q 1367 807 1335 856 q 1385 733 1390 771 q 1356 662 1379 694 q 1301 606 1333 629 q 1242 574 1269 582 q 1189 571 1213 565 q 1150 588 1165 576 q 1130 610 1135 599 q 1136 626 1125 622 q 1197 655 1157 635 q 1270 700 1236 675 q 1323 751 1304 725 q 1324 800 1342 778 q 1251 829 1303 825 q 1126 822 1199 833 q 969 788 1054 811 q 799 736 885 765 q 634 674 714 707 q 494 610 554 640 q 431 576 468 597 q 354 529 394 556 q 276 472 314 503 q 211 410 238 442 q 173 344 185 378 q 174 281 161 311 q 208 249 183 257 q 261 242 233 242 q 314 248 289 243 q 347 253 339 253 q 494 324 424 296 q 624 366 565 351 q 728 383 683 381 q 797 375 772 385 q 814 339 832 363 q 744 289 796 315 q 619 239 693 263 q 472 203 546 215 q 421 181 454 199 q 349 137 388 163 q 274 80 311 111 q 210 18 236 49 q 172 -40 183 -12 q 175 -86 160 -67 q 246 -105 193 -111 q 372 -74 299 -99 q 531 -8 444 -49 q 704 78 618 33 q 869 169 790 124 q 1007 250 949 214 q 1030 263 1019 258 q 1044 267 1040 268 q 1045 258 1049 267 q 1026 231 1042 249 q 954 160 1007 207 q 828 60 901 113 q 666 -42 754 8 q 490 -125 578 -93 q 319 -162 401 -157 q 172 -131 236 -168 q 109 -67 128 -106 q 99 17 90 -28 q 146 109 108 61 q 253 200 183 157 q 158 241 200 211 q 106 315 115 271 m 1178 1074 q 1196 1068 1183 1074 q 1221 1054 1208 1063 q 1243 1036 1233 1046 q 1253 1018 1253 1026 q 1247 984 1256 1000 q 1226 957 1239 968 q 1199 940 1213 946 q 1176 936 1185 933 q 1147 951 1165 939 q 1118 976 1129 963 q 1090 957 1104 964 q 1067 953 1075 950 q 1048 961 1060 954 q 1026 977 1036 968 q 1008 996 1015 986 q 1000 1014 1000 1006 q 1006 1037 1000 1024 q 1023 1062 1013 1050 q 1045 1083 1033 1074 q 1068 1092 1057 1092 q 1082 1088 1072 1092 q 1102 1077 1092 1083 q 1123 1063 1113 1071 q 1139 1049 1133 1056 q 1158 1065 1147 1058 q 1178 1074 1168 1072 z "},"":{"ha":786,"x_min":92,"x_max":1050,"o":"m 524 743 q 599 763 557 751 q 686 785 642 774 q 774 808 731 797 q 853 829 818 819 q 913 845 889 839 q 942 853 936 851 q 961 848 947 854 q 988 832 975 842 q 1008 813 1001 822 q 1010 797 1015 803 q 913 678 963 751 q 810 519 863 604 q 701 344 757 433 q 588 176 646 254 q 472 40 531 99 q 351 -40 413 -18 q 273 -53 311 -56 q 203 -35 235 -51 q 144 8 171 -19 q 100 72 118 36 q 101 91 92 89 q 118 78 110 93 q 206 10 158 18 q 300 24 253 1 q 388 87 347 46 q 457 167 429 128 q 572 333 517 251 q 679 493 626 414 q 786 649 732 572 q 897 800 840 725 q 788 765 842 786 q 681 722 733 744 q 574 679 628 700 q 467 644 521 658 q 420 647 426 635 q 428 678 414 658 q 469 717 442 697 q 524 743 496 736 m 1010 876 q 979 885 1000 879 q 935 897 958 890 q 892 913 913 904 q 861 931 871 921 q 853 958 853 940 q 861 993 854 976 q 879 1021 868 1010 q 903 1031 890 1032 q 933 1015 915 1028 q 972 984 951 1001 q 1010 949 992 967 q 1039 918 1028 931 q 1050 896 1050 906 q 1044 881 1050 886 q 1029 874 1039 875 q 1010 876 1019 872 z "},"":{"ha":786,"x_min":92,"x_max":1075,"o":"m 524 743 q 599 763 557 751 q 686 785 642 774 q 774 808 731 797 q 853 829 818 819 q 913 845 889 839 q 942 853 936 851 q 961 848 947 854 q 988 832 975 842 q 1008 813 1001 822 q 1010 797 1015 803 q 913 678 963 751 q 810 519 863 604 q 701 344 757 433 q 588 176 646 254 q 472 40 531 99 q 351 -40 413 -18 q 273 -53 311 -56 q 203 -35 235 -51 q 144 8 171 -19 q 100 72 118 36 q 101 91 92 89 q 118 78 110 93 q 206 10 158 18 q 300 24 253 1 q 388 87 347 46 q 457 167 429 128 q 572 333 517 251 q 679 493 626 414 q 786 649 732 572 q 897 800 840 725 q 788 765 842 786 q 681 722 733 744 q 574 679 628 700 q 467 644 521 658 q 420 647 426 635 q 428 678 414 658 q 469 717 442 697 q 524 743 496 736 m 881 935 q 903 956 888 940 q 935 988 918 971 q 971 1018 953 1004 q 1001 1035 989 1032 q 1029 1028 1014 1038 q 1056 1005 1044 1019 q 1071 975 1067 990 q 1067 950 1075 960 q 1038 931 1058 940 q 992 915 1017 922 q 942 901 967 907 q 901 890 918 894 q 877 890 885 886 q 867 902 869 894 q 869 919 865 910 q 881 935 872 928 z "},"":{"ha":786,"x_min":92,"x_max":1083,"o":"m 524 743 q 599 763 557 751 q 686 785 642 774 q 774 808 731 797 q 853 829 818 819 q 913 845 889 839 q 942 853 936 851 q 961 848 947 854 q 988 832 975 842 q 1008 813 1001 822 q 1010 797 1015 803 q 913 678 963 751 q 810 519 863 604 q 701 344 757 433 q 588 176 646 254 q 472 40 531 99 q 351 -40 413 -18 q 273 -53 311 -56 q 203 -35 235 -51 q 144 8 171 -19 q 100 72 118 36 q 101 91 92 89 q 118 78 110 93 q 206 10 158 18 q 300 24 253 1 q 388 87 347 46 q 457 167 429 128 q 572 333 517 251 q 679 493 626 414 q 786 649 732 572 q 897 800 840 725 q 788 765 842 786 q 681 722 733 744 q 574 679 628 700 q 467 644 521 658 q 420 647 426 635 q 428 678 414 658 q 469 717 442 697 q 524 743 496 736 m 828 933 q 852 963 829 943 q 904 1002 875 982 q 960 1037 933 1022 q 999 1051 988 1051 q 1031 1038 1015 1051 q 1058 1004 1046 1024 q 1076 965 1069 985 q 1082 931 1083 944 q 1074 918 1082 924 q 1056 910 1067 913 q 1035 907 1046 907 q 1019 911 1025 907 q 1015 926 1013 917 q 1021 946 1017 935 q 1029 969 1025 957 q 1032 993 1033 981 q 1002 967 1019 982 q 967 939 985 953 q 935 914 950 925 q 910 900 919 903 q 885 899 900 897 q 858 905 871 900 q 835 917 844 910 q 828 933 826 924 z "},"":{"ha":786,"x_min":92,"x_max":1115,"o":"m 524 743 q 599 763 557 751 q 686 785 642 774 q 774 808 731 797 q 853 829 818 819 q 913 845 889 839 q 942 853 936 851 q 961 848 947 854 q 988 832 975 842 q 1008 813 1001 822 q 1010 797 1015 803 q 913 678 963 751 q 810 519 863 604 q 701 344 757 433 q 588 176 646 254 q 472 40 531 99 q 351 -40 413 -18 q 273 -53 311 -56 q 203 -35 235 -51 q 144 8 171 -19 q 100 72 118 36 q 101 91 92 89 q 118 78 110 93 q 206 10 158 18 q 300 24 253 1 q 388 87 347 46 q 457 167 429 128 q 572 333 517 251 q 679 493 626 414 q 786 649 732 572 q 897 800 840 725 q 788 765 842 786 q 681 722 733 744 q 574 679 628 700 q 467 644 521 658 q 420 647 426 635 q 428 678 414 658 q 469 717 442 697 q 524 743 496 736 m 1039 1015 q 1057 1010 1044 1015 q 1082 996 1069 1004 q 1104 978 1094 988 q 1114 960 1114 968 q 1107 926 1115 942 q 1085 899 1099 910 q 1058 881 1072 888 q 1036 878 1044 875 q 1007 892 1025 881 q 978 918 989 904 q 950 899 964 906 q 926 894 936 892 q 908 903 919 896 q 885 919 896 910 q 867 938 875 928 q 860 956 860 947 q 866 978 860 965 q 883 1003 872 992 q 905 1024 893 1015 q 928 1033 917 1033 q 942 1029 932 1033 q 962 1019 951 1025 q 983 1005 972 1013 q 999 990 993 997 q 1017 1007 1007 1000 q 1039 1015 1028 1014 z "},"":{"ha":1401,"x_min":6,"x_max":1381,"o":"m 558 324 q 603 427 579 378 q 649 515 626 476 q 694 577 672 553 q 733 607 715 601 q 779 613 756 613 q 820 608 803 613 q 845 594 838 603 q 843 575 853 585 q 775 477 815 543 q 693 324 735 411 q 753 325 725 325 q 793 328 781 325 q 806 324 804 329 q 804 312 808 319 q 789 297 800 304 q 764 289 778 290 q 674 282 729 282 q 612 127 639 207 q 572 -31 585 47 q 781 50 675 -4 q 982 174 888 104 q 1152 325 1076 244 q 1269 485 1228 406 q 1310 635 1310 564 q 1253 758 1310 707 q 1128 822 1204 804 q 963 834 1053 839 q 776 805 874 829 q 588 742 679 781 q 415 655 496 704 q 278 551 335 606 q 257 558 264 539 q 254 610 250 576 q 278 683 258 643 q 339 751 299 722 q 513 844 417 807 q 709 899 608 881 q 910 914 810 917 q 1095 887 1010 911 q 1247 817 1181 863 q 1347 703 1313 771 q 1377 561 1381 633 q 1344 417 1374 489 q 1264 279 1315 346 q 1149 156 1213 213 q 922 -3 1050 68 q 651 -112 793 -75 q 363 -147 510 -150 q 81 -81 215 -143 q 32 -53 51 -67 q 9 -31 13 -39 q 20 -23 6 -22 q 75 -39 35 -24 q 270 -77 167 -76 q 474 -56 374 -78 q 490 98 469 7 q 543 281 510 189 q 514 281 528 281 q 494 282 500 282 q 483 288 483 282 q 491 303 483 294 q 511 317 499 311 q 539 324 524 324 l 558 324 z "},"":{"ha":1174,"x_min":44,"x_max":1504,"o":"m 406 697 q 422 694 413 700 q 445 824 431 757 q 483 944 460 892 q 539 1022 506 996 q 619 1031 572 1049 q 553 743 583 888 q 511 451 522 599 q 508 383 510 422 q 511 302 507 343 q 527 222 515 261 q 561 154 539 183 q 618 110 583 125 q 706 103 653 96 q 819 167 764 111 q 928 306 875 224 q 1030 485 981 388 q 1126 677 1079 583 q 1219 849 1174 771 q 1308 972 1264 928 q 1374 1013 1338 1001 q 1440 1024 1410 1024 q 1487 1018 1469 1025 q 1494 1003 1504 1011 q 1374 858 1432 951 q 1259 656 1317 765 q 1140 436 1201 547 q 1010 238 1079 325 q 858 99 940 150 q 678 61 776 49 q 574 98 618 68 q 498 172 529 128 q 447 270 467 215 q 418 382 428 325 q 406 494 408 439 q 410 597 404 550 l 410 603 q 326 481 369 546 q 242 349 282 417 q 172 214 203 282 q 124 82 140 146 q 109 65 124 63 q 78 87 94 68 q 53 139 63 106 q 56 217 44 172 q 82 293 63 249 q 129 388 101 338 q 190 488 157 438 q 260 580 224 538 q 333 653 296 622 q 406 697 371 685 m 797 922 q 840 967 813 944 q 886 999 867 989 q 908 1003 896 1003 q 933 1000 921 1003 q 956 992 946 997 q 969 982 965 988 q 981 955 981 969 q 983 940 982 940 q 1003 947 985 940 q 1039 985 1021 953 q 1050 994 1043 992 q 1063 997 1057 997 q 1074 990 1069 996 q 1076 975 1078 985 q 1061 937 1072 956 q 1036 902 1050 918 q 1008 875 1022 886 q 983 861 993 864 q 958 857 972 858 q 930 857 944 856 q 903 863 915 858 q 883 875 890 867 q 874 888 878 881 q 867 903 869 896 q 861 919 863 911 q 844 905 851 913 q 826 890 836 897 q 794 886 807 874 q 797 922 782 899 z "},"":{"ha":1172,"x_min":51,"x_max":1171,"o":"m 801 867 q 947 906 882 906 q 1060 876 1013 906 q 1134 794 1107 847 q 1166 671 1161 740 q 1152 521 1171 601 q 1089 357 1133 440 q 977 201 1043 274 q 830 74 911 129 q 657 -18 749 18 q 468 -65 565 -54 q 352 -60 410 -72 q 244 -22 294 -49 q 152 47 193 6 q 85 142 111 88 q 65 279 51 208 q 122 418 78 350 q 235 548 167 486 q 381 660 303 610 q 538 745 458 710 q 686 794 618 781 q 724 826 697 810 q 801 867 750 843 m 833 799 q 872 789 857 794 q 885 776 886 783 q 865 760 885 768 q 803 747 846 753 q 695 720 747 739 q 595 676 643 701 q 503 622 547 651 q 419 564 458 593 q 336 491 382 536 q 249 393 290 446 q 177 284 207 340 q 142 175 147 228 q 163 78 136 122 q 261 7 189 35 q 440 -10 347 -26 q 623 55 533 6 q 794 181 713 104 q 941 346 876 257 q 1047 528 1006 435 q 1097 707 1088 622 q 1088 803 1104 771 q 1039 847 1071 836 q 965 848 1007 857 q 876 818 922 839 l 833 799 m 1069 931 q 1039 939 1060 933 q 995 951 1018 944 q 952 965 972 957 q 922 983 932 974 q 915 1011 914 993 q 922 1046 915 1029 q 940 1074 929 1063 q 964 1083 951 1086 q 993 1067 975 1081 q 1031 1037 1011 1054 q 1069 1001 1051 1019 q 1099 972 1088 983 q 1110 950 1110 960 q 1104 935 1110 940 q 1089 928 1099 929 q 1069 931 1079 926 z "},"":{"ha":1172,"x_min":51,"x_max":1171,"o":"m 801 867 q 947 906 882 906 q 1060 876 1013 906 q 1134 794 1107 847 q 1166 671 1161 740 q 1152 521 1171 601 q 1089 357 1133 440 q 977 201 1043 274 q 830 74 911 129 q 657 -18 749 18 q 468 -65 565 -54 q 352 -60 410 -72 q 244 -22 294 -49 q 152 47 193 6 q 85 142 111 88 q 65 279 51 208 q 122 418 78 350 q 235 548 167 486 q 381 660 303 610 q 538 745 458 710 q 686 794 618 781 q 724 826 697 810 q 801 867 750 843 m 833 799 q 872 789 857 794 q 885 776 886 783 q 865 760 885 768 q 803 747 846 753 q 695 720 747 739 q 595 676 643 701 q 503 622 547 651 q 419 564 458 593 q 336 491 382 536 q 249 393 290 446 q 177 284 207 340 q 142 175 147 228 q 163 78 136 122 q 261 7 189 35 q 440 -10 347 -26 q 623 55 533 6 q 794 181 713 104 q 941 346 876 257 q 1047 528 1006 435 q 1097 707 1088 622 q 1088 803 1104 771 q 1039 847 1071 836 q 965 848 1007 857 q 876 818 922 839 l 833 799 m 889 997 q 911 1018 896 1003 q 944 1050 926 1033 q 979 1081 961 1067 q 1010 1097 997 1094 q 1038 1090 1022 1100 q 1064 1066 1053 1081 q 1079 1036 1075 1051 q 1075 1011 1083 1021 q 1046 992 1067 1001 q 1000 976 1025 983 q 951 962 975 968 q 910 951 926 956 q 885 952 893 947 q 876 965 878 957 q 877 981 874 972 q 889 997 881 990 z "},"":{"ha":1172,"x_min":51,"x_max":1171,"o":"m 801 867 q 947 906 882 906 q 1060 876 1013 906 q 1134 794 1107 847 q 1166 671 1161 740 q 1152 521 1171 601 q 1089 357 1133 440 q 977 201 1043 274 q 830 74 911 129 q 657 -18 749 18 q 468 -65 565 -54 q 352 -60 410 -72 q 244 -22 294 -49 q 152 47 193 6 q 85 142 111 88 q 65 279 51 208 q 122 418 78 350 q 235 548 167 486 q 381 660 303 610 q 538 745 458 710 q 686 794 618 781 q 724 826 697 810 q 801 867 750 843 m 833 799 q 872 789 857 794 q 885 776 886 783 q 865 760 885 768 q 803 747 846 753 q 695 720 747 739 q 595 676 643 701 q 503 622 547 651 q 419 564 458 593 q 336 491 382 536 q 249 393 290 446 q 177 284 207 340 q 142 175 147 228 q 163 78 136 122 q 261 7 189 35 q 440 -10 347 -26 q 623 55 533 6 q 794 181 713 104 q 941 346 876 257 q 1047 528 1006 435 q 1097 707 1088 622 q 1088 803 1104 771 q 1039 847 1071 836 q 965 848 1007 857 q 876 818 922 839 l 833 799 m 831 967 q 855 996 832 976 q 906 1035 878 1015 q 962 1070 935 1056 q 1000 1085 989 1085 q 1032 1071 1017 1085 q 1060 1038 1047 1057 q 1078 998 1072 1018 q 1083 964 1085 978 q 1076 951 1083 957 q 1058 943 1068 946 q 1038 940 1047 940 q 1022 944 1028 940 q 1017 959 1015 950 q 1024 979 1019 968 q 1031 1002 1028 990 q 1033 1026 1035 1014 q 1003 1001 1021 1015 q 969 972 986 986 q 936 947 951 958 q 911 933 921 936 q 887 932 901 931 q 859 938 872 933 q 837 950 846 943 q 831 967 828 957 z "},"":{"ha":1172,"x_min":51,"x_max":1171,"o":"m 801 867 q 947 906 882 906 q 1060 876 1013 906 q 1134 794 1107 847 q 1166 671 1161 740 q 1152 521 1171 601 q 1089 357 1133 440 q 977 201 1043 274 q 830 74 911 129 q 657 -18 749 18 q 468 -65 565 -54 q 352 -60 410 -72 q 244 -22 294 -49 q 152 47 193 6 q 85 142 111 88 q 65 279 51 208 q 122 418 78 350 q 235 548 167 486 q 381 660 303 610 q 538 745 458 710 q 686 794 618 781 q 724 826 697 810 q 801 867 750 843 m 833 799 q 872 789 857 794 q 885 776 886 783 q 865 760 885 768 q 803 747 846 753 q 695 720 747 739 q 595 676 643 701 q 503 622 547 651 q 419 564 458 593 q 336 491 382 536 q 249 393 290 446 q 177 284 207 340 q 142 175 147 228 q 163 78 136 122 q 261 7 189 35 q 440 -10 347 -26 q 623 55 533 6 q 794 181 713 104 q 941 346 876 257 q 1047 528 1006 435 q 1097 707 1088 622 q 1088 803 1104 771 q 1039 847 1071 836 q 965 848 1007 857 q 876 818 922 839 l 833 799 m 858 994 q 901 1040 874 1018 q 949 1072 929 1063 q 995 1074 968 1081 q 1032 1056 1022 1067 q 1042 1028 1042 1043 q 1044 1014 1043 1014 q 1065 1020 1047 1014 q 1100 1058 1082 1026 q 1111 1068 1104 1065 q 1125 1070 1118 1071 q 1136 1064 1132 1069 q 1139 1049 1140 1058 q 1124 1010 1135 1029 q 1099 976 1113 992 q 1070 949 1085 960 q 1044 935 1056 938 q 1019 931 1033 932 q 992 931 1006 929 q 965 936 978 932 q 944 949 953 940 q 935 962 939 954 q 929 976 932 969 q 924 993 925 985 q 905 978 913 986 q 889 964 897 971 q 871 955 879 956 q 857 960 863 954 q 851 974 851 965 q 858 994 851 983 z "},"":{"ha":1172,"x_min":51,"x_max":1171,"o":"m 801 867 q 947 906 882 906 q 1060 876 1013 906 q 1134 794 1107 847 q 1166 671 1161 740 q 1152 521 1171 601 q 1089 357 1133 440 q 977 201 1043 274 q 830 74 911 129 q 657 -18 749 18 q 468 -65 565 -54 q 352 -60 410 -72 q 244 -22 294 -49 q 152 47 193 6 q 85 142 111 88 q 65 279 51 208 q 122 418 78 350 q 235 548 167 486 q 381 660 303 610 q 538 745 458 710 q 686 794 618 781 q 724 826 697 810 q 801 867 750 843 m 833 799 q 872 789 857 794 q 885 776 886 783 q 865 760 885 768 q 803 747 846 753 q 695 720 747 739 q 595 676 643 701 q 503 622 547 651 q 419 564 458 593 q 336 491 382 536 q 249 393 290 446 q 177 284 207 340 q 142 175 147 228 q 163 78 136 122 q 261 7 189 35 q 440 -10 347 -26 q 623 55 533 6 q 794 181 713 104 q 941 346 876 257 q 1047 528 1006 435 q 1097 707 1088 622 q 1088 803 1104 771 q 1039 847 1071 836 q 965 848 1007 857 q 876 818 922 839 l 833 799 m 1039 1069 q 1057 1064 1044 1069 q 1082 1050 1069 1058 q 1104 1032 1094 1042 q 1114 1015 1114 1022 q 1107 981 1115 997 q 1085 953 1099 965 q 1058 936 1072 942 q 1036 933 1044 931 q 1007 947 1025 935 q 978 974 989 960 q 950 954 964 961 q 926 950 936 947 q 908 958 919 951 q 885 974 896 965 q 867 992 875 983 q 860 1010 860 1001 q 866 1033 860 1019 q 883 1058 872 1046 q 905 1078 893 1069 q 928 1089 917 1088 q 942 1085 932 1089 q 962 1074 951 1081 q 983 1060 972 1068 q 999 1044 993 1053 q 1039 1069 1017 1067 z "},"":{"ha":1172,"x_min":51,"x_max":1233,"o":"m 801 867 q 973 904 899 913 q 1093 849 1047 896 q 1143 895 1122 876 q 1172 924 1164 914 q 1203 941 1189 942 q 1224 930 1217 940 q 1233 906 1232 919 q 1222 885 1233 892 q 1187 860 1213 879 q 1125 810 1161 840 q 1160 719 1149 771 q 1167 609 1171 668 q 1143 486 1163 550 q 1089 357 1124 422 q 977 201 1043 274 q 830 74 911 129 q 657 -18 749 18 q 468 -65 565 -54 q 322 -52 393 -72 q 192 14 250 -32 q 153 -25 163 -14 q 133 -40 142 -37 q 118 -39 124 -43 q 113 -26 113 -35 q 124 -8 114 -18 q 138 7 126 -3 q 167 33 150 17 q 85 142 115 81 q 65 279 51 208 q 122 418 78 350 q 235 548 167 486 q 381 660 303 610 q 538 745 458 710 q 686 794 618 781 q 724 826 697 810 q 801 867 750 843 m 1093 783 q 958 672 1035 735 q 799 538 882 608 q 629 394 715 467 q 465 253 543 321 q 320 128 386 185 q 211 32 254 71 q 234 19 222 25 q 261 7 246 14 q 440 -10 347 -26 q 623 55 533 6 q 794 181 713 104 q 941 346 876 257 q 1047 528 1006 435 q 1097 707 1088 622 q 1093 783 1101 754 m 186 51 q 299 150 231 90 q 447 280 367 210 q 615 426 528 350 q 785 574 701 501 q 942 713 868 647 q 1069 826 1015 778 q 987 851 1040 857 q 876 818 933 844 l 833 799 q 872 789 857 794 q 885 776 886 783 q 865 760 885 768 q 803 747 846 753 q 695 720 747 739 q 595 676 643 701 q 503 622 547 651 q 419 564 458 593 q 346 500 386 539 q 267 415 306 461 q 198 319 229 369 q 151 222 167 269 q 142 129 136 174 q 186 51 149 85 z "},"":{"ha":1094,"x_min":36,"x_max":1428,"o":"m 164 117 q 322 147 232 111 q 513 242 413 182 q 717 379 613 303 q 915 532 821 456 q 1088 677 1010 608 q 1217 789 1167 746 q 1278 813 1240 810 q 1351 811 1317 817 q 1406 795 1385 806 q 1419 776 1428 785 q 1333 706 1389 750 q 1215 608 1278 663 q 1090 490 1153 553 q 984 363 1028 428 q 923 236 940 299 q 932 118 906 174 q 931 99 939 106 q 906 103 922 92 q 863 163 874 124 q 857 245 853 201 q 874 331 861 289 q 903 401 888 374 q 767 319 842 365 q 613 228 692 274 q 453 145 533 183 q 303 87 374 107 q 174 69 232 67 q 82 111 117 72 q 43 192 50 146 q 47 288 36 238 q 84 392 58 339 q 142 493 110 444 q 208 584 174 542 q 274 657 243 626 q 332 687 296 679 q 400 692 368 694 q 451 678 432 689 q 457 653 469 667 q 428 620 451 646 q 374 557 406 594 q 306 473 343 519 q 235 378 269 426 q 174 285 201 331 q 133 202 146 239 q 126 142 121 165 q 164 117 132 119 m 872 761 q 842 769 863 764 q 798 782 821 775 q 754 797 775 789 q 724 815 733 806 q 716 843 715 825 q 724 878 717 861 q 742 906 731 894 q 765 915 753 918 q 796 899 778 913 q 833 869 814 886 q 871 833 853 851 q 900 803 889 815 q 912 781 911 790 q 907 765 913 771 q 892 758 901 760 q 872 761 882 757 z "},"":{"ha":1094,"x_min":36,"x_max":1428,"o":"m 164 117 q 322 147 232 111 q 513 242 413 182 q 717 379 613 303 q 915 532 821 456 q 1088 677 1010 608 q 1217 789 1167 746 q 1278 813 1240 810 q 1351 811 1317 817 q 1406 795 1385 806 q 1419 776 1428 785 q 1333 706 1389 750 q 1215 608 1278 663 q 1090 490 1153 553 q 984 363 1028 428 q 923 236 940 299 q 932 118 906 174 q 931 99 939 106 q 906 103 922 92 q 863 163 874 124 q 857 245 853 201 q 874 331 861 289 q 903 401 888 374 q 767 319 842 365 q 613 228 692 274 q 453 145 533 183 q 303 87 374 107 q 174 69 232 67 q 82 111 117 72 q 43 192 50 146 q 47 288 36 238 q 84 392 58 339 q 142 493 110 444 q 208 584 174 542 q 274 657 243 626 q 332 687 296 679 q 400 692 368 694 q 451 678 432 689 q 457 653 469 667 q 428 620 451 646 q 374 557 406 594 q 306 473 343 519 q 235 378 269 426 q 174 285 201 331 q 133 202 146 239 q 126 142 121 165 q 164 117 132 119 m 761 801 q 784 822 769 807 q 817 854 799 838 q 853 885 835 871 q 883 901 871 899 q 911 895 896 904 q 937 872 926 886 q 952 842 947 857 q 949 817 957 826 q 919 798 940 807 q 874 781 899 789 q 824 767 849 774 q 783 757 800 761 q 759 757 767 753 q 749 769 751 761 q 751 785 747 776 q 761 801 754 794 z "},"":{"ha":1094,"x_min":36,"x_max":1428,"o":"m 164 117 q 322 147 232 111 q 513 242 413 182 q 717 379 613 303 q 915 532 821 456 q 1088 677 1010 608 q 1217 789 1167 746 q 1278 813 1240 810 q 1351 811 1317 817 q 1406 795 1385 806 q 1419 776 1428 785 q 1333 706 1389 750 q 1215 608 1278 663 q 1090 490 1153 553 q 984 363 1028 428 q 923 236 940 299 q 932 118 906 174 q 931 99 939 106 q 906 103 922 92 q 863 163 874 124 q 857 245 853 201 q 874 331 861 289 q 903 401 888 374 q 767 319 842 365 q 613 228 692 274 q 453 145 533 183 q 303 87 374 107 q 174 69 232 67 q 82 111 117 72 q 43 192 50 146 q 47 288 36 238 q 84 392 58 339 q 142 493 110 444 q 208 584 174 542 q 274 657 243 626 q 332 687 296 679 q 400 692 368 694 q 451 678 432 689 q 457 653 469 667 q 428 620 451 646 q 374 557 406 594 q 306 473 343 519 q 235 378 269 426 q 174 285 201 331 q 133 202 146 239 q 126 142 121 165 q 164 117 132 119 m 728 815 q 752 844 729 825 q 804 884 775 864 q 860 919 833 904 q 899 933 888 933 q 931 919 915 933 q 958 886 946 906 q 976 846 969 867 q 982 811 983 825 q 974 799 982 804 q 956 792 967 794 q 935 789 946 789 q 919 793 925 789 q 915 808 913 799 q 921 828 917 817 q 929 851 925 839 q 932 875 933 863 q 902 849 919 864 q 867 821 885 835 q 835 796 850 807 q 810 782 819 785 q 785 781 800 779 q 758 787 771 782 q 735 799 744 792 q 728 815 726 806 z "},"":{"ha":1094,"x_min":36,"x_max":1428,"o":"m 164 117 q 322 147 232 111 q 513 242 413 182 q 717 379 613 303 q 915 532 821 456 q 1088 677 1010 608 q 1217 789 1167 746 q 1278 813 1240 810 q 1351 811 1317 817 q 1406 795 1385 806 q 1419 776 1428 785 q 1333 706 1389 750 q 1215 608 1278 663 q 1090 490 1153 553 q 984 363 1028 428 q 923 236 940 299 q 932 118 906 174 q 931 99 939 106 q 906 103 922 92 q 863 163 874 124 q 857 245 853 201 q 874 331 861 289 q 903 401 888 374 q 767 319 842 365 q 613 228 692 274 q 453 145 533 183 q 303 87 374 107 q 174 69 232 67 q 82 111 117 72 q 43 192 50 146 q 47 288 36 238 q 84 392 58 339 q 142 493 110 444 q 208 584 174 542 q 274 657 243 626 q 332 687 296 679 q 400 692 368 694 q 451 678 432 689 q 457 653 469 667 q 428 620 451 646 q 374 557 406 594 q 306 473 343 519 q 235 378 269 426 q 174 285 201 331 q 133 202 146 239 q 126 142 121 165 q 164 117 132 119 m 875 881 q 893 874 881 881 q 918 860 906 868 q 940 842 931 851 q 950 825 950 832 q 944 791 953 807 q 922 763 935 775 q 896 746 910 751 q 874 743 882 740 q 844 757 863 744 q 815 783 825 769 q 787 764 801 771 q 764 760 772 757 q 744 768 756 761 q 723 784 733 775 q 705 802 713 793 q 697 819 697 811 q 703 842 697 829 q 719 868 710 856 q 742 890 729 881 q 765 899 754 899 q 778 894 769 899 q 798 884 788 890 q 819 870 808 878 q 835 856 829 863 q 875 881 856 876 z "},"":{"ha":697,"x_min":58,"x_max":1167,"o":"m 410 317 q 555 477 483 400 q 701 626 626 554 q 856 765 775 697 q 1031 894 938 832 q 1082 909 1056 911 q 1128 896 1108 907 q 1157 871 1147 885 q 1158 851 1167 857 q 1057 778 1110 819 q 953 694 1004 738 q 856 606 903 650 q 772 524 810 561 q 793 491 788 514 q 783 451 799 468 q 681 377 739 406 q 568 317 622 349 q 356 94 451 208 q 178 -133 260 -21 q 158 -136 174 -139 q 127 -125 143 -133 q 99 -103 111 -117 q 89 -72 86 -89 q 117 -16 90 -54 q 183 69 144 22 q 265 166 222 117 q 343 256 308 215 q 258 238 301 240 q 176 250 214 236 q 111 296 139 264 q 72 381 83 328 q 63 510 58 442 q 86 643 68 578 q 133 766 104 708 q 197 864 161 824 q 271 923 232 904 q 347 931 310 942 q 363 921 350 929 q 388 901 375 913 q 407 881 400 890 q 408 868 414 871 q 331 808 371 851 q 256 707 290 764 q 195 585 221 650 q 159 463 169 521 q 157 358 149 404 q 200 289 165 311 q 249 275 222 275 q 303 282 275 275 q 359 299 332 289 q 410 317 386 310 m 603 917 q 626 938 611 922 q 658 969 640 953 q 694 1000 676 986 q 725 1017 713 1014 q 753 1010 738 1019 q 778 987 768 1001 q 794 957 789 972 q 790 932 799 942 q 761 913 782 922 q 715 897 740 904 q 666 883 690 889 q 625 872 642 876 q 601 872 608 868 q 591 884 593 876 q 592 901 589 892 q 603 917 596 910 z "},"":{"ha":399,"x_min":-39,"x_max":450,"o":"m 407 343 q 438 352 426 361 q 431 319 450 343 q 400 283 419 307 q 360 233 381 258 q 318 189 339 208 q 283 167 297 169 q 233 172 265 163 q 176 201 200 182 q 142 177 158 189 q 108 160 125 165 q 71 161 93 157 q 27 177 49 165 q -11 206 6 189 q -33 244 -28 222 q -22 301 -39 268 q 21 363 -4 333 q 73 413 46 392 q 115 436 100 435 q 140 435 125 438 q 169 425 154 432 q 195 408 183 418 q 211 386 207 399 q 244 401 231 403 q 268 394 256 399 q 291 385 281 390 q 308 371 301 379 q 314 353 315 363 q 303 323 314 342 q 279 285 292 304 q 258 250 267 265 q 256 231 250 235 q 274 237 260 228 q 310 262 289 246 q 356 299 331 278 q 407 343 382 319 m 58 210 q 97 219 74 201 q 140 263 119 236 q 176 317 161 289 q 190 358 190 344 q 171 365 185 371 q 140 344 157 360 q 106 307 124 329 q 76 265 89 285 q 58 228 64 244 q 58 210 51 213 m 308 497 q 278 506 299 500 q 234 517 257 511 q 190 532 211 524 q 160 550 169 540 q 152 578 151 560 q 160 613 153 596 q 178 641 167 629 q 201 650 189 653 q 232 634 214 647 q 269 603 250 621 q 307 568 289 586 q 336 539 325 550 q 348 517 347 526 q 343 501 349 507 q 328 494 338 496 q 308 497 318 493 z "},"":{"ha":399,"x_min":-39,"x_max":450,"o":"m 407 343 q 438 352 426 361 q 431 319 450 343 q 400 283 419 307 q 360 233 381 258 q 318 189 339 208 q 283 167 297 169 q 233 172 265 163 q 176 201 200 182 q 142 177 158 189 q 108 160 125 165 q 71 161 93 157 q 27 177 49 165 q -11 206 6 189 q -33 244 -28 222 q -22 301 -39 268 q 21 363 -4 333 q 73 413 46 392 q 115 436 100 435 q 140 435 125 438 q 169 425 154 432 q 195 408 183 418 q 211 386 207 399 q 244 401 231 403 q 268 394 256 399 q 291 385 281 390 q 308 371 301 379 q 314 353 315 363 q 303 323 314 342 q 279 285 292 304 q 258 250 267 265 q 256 231 250 235 q 274 237 260 228 q 310 262 289 246 q 356 299 331 278 q 407 343 382 319 m 58 210 q 97 219 74 201 q 140 263 119 236 q 176 317 161 289 q 190 358 190 344 q 171 365 185 371 q 140 344 157 360 q 106 307 124 329 q 76 265 89 285 q 58 228 64 244 q 58 210 51 213 m 181 549 q 203 569 188 554 q 235 601 218 585 q 271 632 253 618 q 301 649 289 646 q 329 642 314 651 q 356 619 344 633 q 371 589 367 604 q 367 564 375 574 q 338 545 358 554 q 292 528 317 536 q 242 513 267 519 q 201 503 218 507 q 177 503 185 499 q 167 516 169 508 q 169 533 165 524 q 181 549 172 542 z "},"":{"ha":399,"x_min":-39,"x_max":450,"o":"m 407 343 q 438 352 426 361 q 431 319 450 343 q 400 283 419 307 q 360 233 381 258 q 318 189 339 208 q 283 167 297 169 q 233 172 265 163 q 176 201 200 182 q 142 177 158 189 q 108 160 125 165 q 71 161 93 157 q 27 177 49 165 q -11 206 6 189 q -33 244 -28 222 q -22 301 -39 268 q 21 363 -4 333 q 73 413 46 392 q 115 436 100 435 q 140 435 125 438 q 169 425 154 432 q 195 408 183 418 q 211 386 207 399 q 244 401 231 403 q 268 394 256 399 q 291 385 281 390 q 308 371 301 379 q 314 353 315 363 q 303 323 314 342 q 279 285 292 304 q 258 250 267 265 q 256 231 250 235 q 274 237 260 228 q 310 262 289 246 q 356 299 331 278 q 407 343 382 319 m 58 210 q 97 219 74 201 q 140 263 119 236 q 176 317 161 289 q 190 358 190 344 q 171 365 185 371 q 140 344 157 360 q 106 307 124 329 q 76 265 89 285 q 58 228 64 244 q 58 210 51 213 m 125 542 q 149 571 126 551 q 201 610 172 590 q 257 645 231 631 q 294 660 283 660 q 327 646 311 660 q 355 613 343 632 q 373 573 367 593 q 378 539 379 553 q 370 526 378 532 q 353 518 363 521 q 333 515 343 515 q 317 519 322 515 q 312 534 310 525 q 318 554 314 543 q 326 577 322 565 q 328 601 329 589 q 298 576 315 590 q 264 547 281 561 q 232 522 247 533 q 207 508 217 511 q 183 507 197 506 q 154 513 168 508 q 131 525 140 518 q 125 542 122 532 z "},"":{"ha":399,"x_min":-39,"x_max":450,"o":"m 407 343 q 438 352 426 361 q 431 319 450 343 q 400 283 419 307 q 360 233 381 258 q 318 189 339 208 q 283 167 297 169 q 233 172 265 163 q 176 201 200 182 q 142 177 158 189 q 108 160 125 165 q 71 161 93 157 q 27 177 49 165 q -11 206 6 189 q -33 244 -28 222 q -22 301 -39 268 q 21 363 -4 333 q 73 413 46 392 q 115 436 100 435 q 140 435 125 438 q 169 425 154 432 q 195 408 183 418 q 211 386 207 399 q 244 401 231 403 q 268 394 256 399 q 291 385 281 390 q 308 371 301 379 q 314 353 315 363 q 303 323 314 342 q 279 285 292 304 q 258 250 267 265 q 256 231 250 235 q 274 237 260 228 q 310 262 289 246 q 356 299 331 278 q 407 343 382 319 m 58 210 q 97 219 74 201 q 140 263 119 236 q 176 317 161 289 q 190 358 190 344 q 171 365 185 371 q 140 344 157 360 q 106 307 124 329 q 76 265 89 285 q 58 228 64 244 q 58 210 51 213 m 126 568 q 169 614 142 592 q 217 644 197 636 q 239 649 226 649 q 264 647 251 650 q 286 638 276 643 q 300 628 296 633 q 311 601 311 615 q 314 586 311 586 q 333 593 315 586 q 368 632 350 600 q 379 642 372 639 q 393 644 386 644 q 404 638 400 643 q 407 622 408 632 q 392 584 403 603 q 367 549 381 565 q 338 522 353 533 q 314 508 324 511 q 260 503 292 501 q 214 522 229 506 q 204 535 208 528 q 197 550 200 543 q 192 567 193 558 q 173 552 181 560 q 157 536 165 544 q 139 528 147 528 q 125 533 131 528 q 119 548 119 539 q 126 568 119 557 z "},"":{"ha":399,"x_min":-39,"x_max":450,"o":"m 407 343 q 438 352 426 361 q 431 319 450 343 q 400 283 419 307 q 360 233 381 258 q 318 189 339 208 q 283 167 297 169 q 233 172 265 163 q 176 201 200 182 q 142 177 158 189 q 108 160 125 165 q 71 161 93 157 q 27 177 49 165 q -11 206 6 189 q -33 244 -28 222 q -22 301 -39 268 q 21 363 -4 333 q 73 413 46 392 q 115 436 100 435 q 140 435 125 438 q 169 425 154 432 q 195 408 183 418 q 211 386 207 399 q 244 401 231 403 q 268 394 256 399 q 291 385 281 390 q 308 371 301 379 q 314 353 315 363 q 303 323 314 342 q 279 285 292 304 q 258 250 267 265 q 256 231 250 235 q 274 237 260 228 q 310 262 289 246 q 356 299 331 278 q 407 343 382 319 m 311 618 q 329 613 317 618 q 354 599 342 607 q 376 581 367 590 q 386 564 386 571 q 381 530 389 546 q 359 502 372 514 q 332 485 346 490 q 310 482 318 479 q 281 495 299 483 q 251 522 263 507 q 223 503 238 510 q 200 499 208 496 q 181 506 193 500 q 159 522 169 513 q 141 540 149 531 q 133 558 133 550 q 140 581 133 568 q 156 606 146 594 q 178 627 167 618 q 201 636 190 636 q 215 633 206 636 q 235 623 225 629 q 256 609 246 617 q 272 593 267 601 q 311 618 290 615 m 58 210 q 97 219 74 201 q 140 263 119 236 q 176 317 161 289 q 190 358 190 344 q 171 365 185 371 q 140 344 157 360 q 106 307 124 329 q 76 265 89 285 q 58 228 64 244 q 58 210 51 213 z "},"":{"ha":399,"x_min":-39,"x_max":450,"o":"m 407 343 q 438 352 426 361 q 431 319 450 343 q 400 283 419 307 q 360 233 381 258 q 318 189 339 208 q 283 167 297 169 q 233 172 265 163 q 176 201 200 182 q 142 177 158 189 q 108 160 125 165 q 71 161 93 157 q 27 177 49 165 q -11 206 6 189 q -33 244 -28 222 q -22 301 -39 268 q 21 363 -4 333 q 73 413 46 392 q 115 436 100 435 q 140 435 125 438 q 169 425 154 432 q 195 408 183 418 q 211 386 207 399 q 244 401 231 403 q 268 394 256 399 q 291 385 281 390 q 308 371 301 379 q 314 353 315 363 q 303 323 314 342 q 279 285 292 304 q 258 250 267 265 q 256 231 250 235 q 274 237 260 228 q 310 262 289 246 q 356 299 331 278 q 407 343 382 319 m 58 210 q 97 219 74 201 q 140 263 119 236 q 176 317 161 289 q 190 358 190 344 q 171 365 185 371 q 140 344 157 360 q 106 307 124 329 q 76 265 89 285 q 58 228 64 244 q 58 210 51 213 m 265 667 q 292 658 274 667 q 328 638 310 650 q 361 610 347 625 q 375 585 375 596 q 365 536 378 560 q 333 496 353 513 q 294 471 314 479 q 261 465 274 463 q 234 478 250 468 q 203 500 218 488 q 176 526 188 513 q 165 551 165 539 q 175 583 165 564 q 199 620 185 603 q 231 651 214 638 q 265 667 249 664 m 233 525 q 252 526 239 518 q 278 549 265 535 q 299 578 290 564 q 306 597 307 593 q 287 597 300 606 q 261 573 274 588 q 240 544 249 558 q 233 525 231 529 z "},"":{"ha":342,"x_min":-71,"x_max":376,"o":"m 251 344 q 230 295 251 317 q 185 258 208 274 q 160 251 174 251 q 135 256 147 251 q 117 267 124 260 q 115 285 111 275 q 133 305 119 293 q 158 329 146 317 q 178 352 171 342 q 178 369 185 363 q 148 356 169 378 q 106 304 126 335 q 75 243 86 274 q 78 203 64 213 q 125 201 92 192 q 197 232 158 211 q 272 279 235 253 q 332 328 310 306 q 355 347 344 342 q 371 348 365 351 q 374 335 376 344 q 360 308 372 325 q 319 265 344 290 q 266 215 294 239 q 208 172 238 190 q 157 147 179 153 q 123 144 143 143 q 82 150 103 144 q 63 135 72 142 q 51 118 53 128 q 67 106 51 113 q 99 90 83 100 q 124 62 115 79 q 115 17 132 44 q 69 -14 99 -11 q 11 -6 40 -17 q -40 22 -18 4 q -67 51 -62 39 q -67 72 -71 64 q -58 83 -64 79 q -44 83 -51 86 q -33 72 -37 81 q -6 48 -26 54 q 22 58 14 42 q 23 72 26 67 q 13 81 19 76 q 0 89 7 85 q -11 100 -7 93 q -1 128 -19 111 q 39 165 18 146 q -9 194 11 176 q -33 236 -29 211 q -28 286 -39 257 q 1 343 -18 315 q 42 394 19 371 q 82 426 65 417 q 127 430 99 436 q 183 410 156 424 q 231 378 211 397 q 251 344 251 360 z "},"":{"ha":335,"x_min":-8,"x_max":372,"o":"m 340 339 q 369 351 367 358 q 360 325 372 344 q 324 276 347 304 q 274 224 301 249 q 215 179 246 199 q 158 156 185 160 q 111 165 140 153 q 55 199 82 176 q 10 250 28 221 q -3 310 -8 279 q 18 358 1 335 q 56 398 35 381 q 98 426 76 415 q 135 436 119 436 q 163 429 147 436 q 192 411 179 422 q 213 385 206 400 q 219 356 221 371 q 199 320 217 340 q 158 281 181 300 q 100 235 133 258 q 198 254 131 226 q 340 339 265 282 m 176 365 q 151 359 171 369 q 111 332 131 349 q 78 295 92 315 q 72 261 65 275 q 99 281 81 265 q 137 314 118 296 q 168 347 156 332 q 176 365 181 361 m 190 497 q 160 506 181 500 q 116 517 139 511 q 72 532 93 524 q 42 550 51 540 q 34 578 33 560 q 42 613 35 596 q 60 641 49 629 q 83 650 71 653 q 114 634 96 647 q 151 603 132 621 q 189 568 171 586 q 218 539 207 550 q 230 517 229 526 q 225 501 231 507 q 210 494 219 496 q 190 497 200 493 z "}}}
